AnekTelugu-ExpandedThin.ufo
<glyph name="three" format="2">
  <advance width="1375"/>
  <unicode hex="0033"/>
  <outline>
    <contour>
      <point x="677" y="-21" type="curve" smooth="yes"/>
      <point x="1053" y="-21"/>
      <point x="1235" y="123"/>
      <point x="1235" y="341" type="curve" smooth="yes"/>
      <point x="1235" y="361" type="line" smooth="yes"/>
      <point x="1235" y="556"/>
      <point x="1093" y="672"/>
      <point x="765" y="674" type="curve"/>
      <point x="747" y="667" type="line"/>
      <point x="747" y="661" type="line"/>
      <point x="1085" y="663"/>
      <point x="1217" y="795"/>
      <point x="1217" y="963" type="curve" smooth="yes"/>
      <point x="1217" y="977" type="line" smooth="yes"/>
      <point x="1217" y="1175"/>
      <point x="1058" y="1297"/>
      <point x="704" y="1297" type="curve" smooth="yes"/>
      <point x="436" y="1297"/>
      <point x="246" y="1220"/>
      <point x="150" y="1157" type="curve"/>
      <point x="145" y="1115" type="line"/>
      <point x="268" y="1192"/>
      <point x="445" y="1260"/>
      <point x="702" y="1260" type="curve" smooth="yes"/>
      <point x="1029" y="1260"/>
      <point x="1176" y="1157"/>
      <point x="1176" y="977" type="curve" smooth="yes"/>
      <point x="1176" y="963" type="line" smooth="yes"/>
      <point x="1176" y="806"/>
      <point x="1057" y="686"/>
      <point x="726" y="685" type="curve" smooth="yes"/>
      <point x="402" y="684" type="line"/>
      <point x="402" y="652" type="line"/>
      <point x="724" y="651" type="line" smooth="yes"/>
      <point x="1071" y="650"/>
      <point x="1194" y="538"/>
      <point x="1194" y="359" type="curve" smooth="yes"/>
      <point x="1194" y="343" type="line" smooth="yes"/>
      <point x="1194" y="144"/>
      <point x="1025" y="16"/>
      <point x="677" y="16" type="curve" smooth="yes"/>
      <point x="450" y="16"/>
      <point x="256" y="80"/>
      <point x="138" y="145" type="curve"/>
      <point x="143" y="100" type="line"/>
      <point x="230" y="56"/>
      <point x="422" y="-21"/>
    </contour>
  </outline>
</glyph>
<glyph name="greater" format="2">
  <advance width="1442"/>
  <unicode hex="003E"/>
  <outline>
    <contour>
      <point x="1244" y="627" type="line"/>
      <point x="1244" y="601" type="line"/>
      <point x="257" y="281" type="line"/>
      <point x="257" y="241" type="line"/>
      <point x="1276" y="576" type="line"/>
      <point x="1276" y="652" type="line"/>
      <point x="257" y="987" type="line"/>
      <point x="257" y="947" type="line"/>
    </contour>
  </outline>
</glyph>
<glyph name="Candrabindu_above.te" format="2">
  <unicode hex="0C00"/>
  <outline>
    <contour>
      <point x="-774" y="1310" type="curve" smooth="yes"/>
      <point x="-524" y="1310"/>
      <point x="-425" y="1411"/>
      <point x="-425" y="1550" type="curve" smooth="yes"/>
      <point x="-425" y="1552" type="line"/>
      <point x="-464" y="1552" type="line"/>
      <point x="-466" y="1424"/>
      <point x="-549" y="1346"/>
      <point x="-774" y="1346" type="curve" smooth="yes"/>
      <point x="-999" y="1346"/>
      <point x="-1082" y="1424"/>
      <point x="-1084" y="1552" type="curve"/>
      <point x="-1123" y="1552" type="line"/>
      <point x="-1123" y="1550" type="line" smooth="yes"/>
      <point x="-1123" y="1411"/>
      <point x="-1024" y="1310"/>
    </contour>
    <contour>
      <point x="-774" y="1501" type="curve" smooth="yes"/>
      <point x="-738" y="1501"/>
      <point x="-719" y="1517"/>
      <point x="-719" y="1546" type="curve" smooth="yes"/>
      <point x="-719" y="1575"/>
      <point x="-738" y="1591"/>
      <point x="-774" y="1591" type="curve" smooth="yes"/>
      <point x="-810" y="1591"/>
      <point x="-829" y="1575"/>
      <point x="-829" y="1546" type="curve" smooth="yes"/>
      <point x="-829" y="1517"/>
      <point x="-810" y="1501"/>
    </contour>
  </outline>
</glyph>
<glyph name="Candrabindu.te" format="2">
  <advance width="919"/>
  <unicode hex="0C01"/>
  <outline>
    <contour>
      <point x="838" y="-14" type="curve"/>
      <point x="840" y="-14" type="line"/>
      <point x="846" y="22" type="line"/>
      <point x="838" y="22" type="line" smooth="yes"/>
      <point x="416" y="22"/>
      <point x="194" y="206"/>
      <point x="194" y="554" type="curve" smooth="yes"/>
      <point x="194" y="568" type="line" smooth="yes"/>
      <point x="194" y="916"/>
      <point x="416" y="1100"/>
      <point x="838" y="1100" type="curve" smooth="yes"/>
      <point x="846" y="1100" type="line"/>
      <point x="840" y="1136" type="line"/>
      <point x="838" y="1136" type="line"/>
      <point x="389" y="1136"/>
      <point x="155" y="939"/>
      <point x="155" y="568" type="curve" smooth="yes"/>
      <point x="155" y="554" type="line" smooth="yes"/>
      <point x="155" y="183"/>
      <point x="389" y="-14"/>
    </contour>
  </outline>
</glyph>
<glyph name="Anuswara.te" format="2">
  <advance width="1698"/>
  <unicode hex="0C02"/>
  <outline>
    <contour>
      <point x="849" y="-27" type="curve" smooth="yes"/>
      <point x="1298" y="-27"/>
      <point x="1533" y="171"/>
      <point x="1533" y="555" type="curve" smooth="yes"/>
      <point x="1533" y="568" type="line" smooth="yes"/>
      <point x="1533" y="947"/>
      <point x="1298" y="1148"/>
      <point x="849" y="1148" type="curve" smooth="yes"/>
      <point x="400" y="1148"/>
      <point x="165" y="947"/>
      <point x="165" y="568" type="curve" smooth="yes"/>
      <point x="165" y="555" type="line" smooth="yes"/>
      <point x="165" y="171"/>
      <point x="400" y="-27"/>
    </contour>
    <contour>
      <point x="849" y="9" type="curve" smooth="yes"/>
      <point x="427" y="9"/>
      <point x="204" y="194"/>
      <point x="204" y="555" type="curve" smooth="yes"/>
      <point x="204" y="568" type="line" smooth="yes"/>
      <point x="204" y="924"/>
      <point x="427" y="1113"/>
      <point x="849" y="1113" type="curve" smooth="yes"/>
      <point x="1272" y="1113"/>
      <point x="1494" y="924"/>
      <point x="1494" y="568" type="curve" smooth="yes"/>
      <point x="1494" y="555" type="line" smooth="yes"/>
      <point x="1494" y="194"/>
      <point x="1272" y="9"/>
    </contour>
  </outline>
</glyph>
<glyph name="Visarga.te" format="2">
  <advance width="1013"/>
  <unicode hex="0C03"/>
  <outline>
    <contour>
      <point x="507" y="623" type="curve" smooth="yes"/>
      <point x="735" y="623"/>
      <point x="864" y="717"/>
      <point x="864" y="883" type="curve" smooth="yes"/>
      <point x="864" y="886" type="line" smooth="yes"/>
      <point x="864" y="1052"/>
      <point x="735" y="1146"/>
      <point x="507" y="1146" type="curve" smooth="yes"/>
      <point x="279" y="1146"/>
      <point x="150" y="1052"/>
      <point x="150" y="886" type="curve" smooth="yes"/>
      <point x="150" y="883" type="line" smooth="yes"/>
      <point x="150" y="717"/>
      <point x="279" y="623"/>
    </contour>
    <contour>
      <point x="507" y="-27" type="curve" smooth="yes"/>
      <point x="735" y="-27"/>
      <point x="864" y="67"/>
      <point x="864" y="233" type="curve" smooth="yes"/>
      <point x="864" y="236" type="line" smooth="yes"/>
      <point x="864" y="402"/>
      <point x="735" y="496"/>
      <point x="507" y="496" type="curve" smooth="yes"/>
      <point x="279" y="496"/>
      <point x="150" y="402"/>
      <point x="150" y="236" type="curve" smooth="yes"/>
      <point x="150" y="233" type="line" smooth="yes"/>
      <point x="150" y="67"/>
      <point x="279" y="-27"/>
    </contour>
    <contour>
      <point x="507" y="9" type="curve" smooth="yes"/>
      <point x="297" y="9"/>
      <point x="189" y="85"/>
      <point x="189" y="233" type="curve" smooth="yes"/>
      <point x="189" y="236" type="line" smooth="yes"/>
      <point x="189" y="384"/>
      <point x="297" y="460"/>
      <point x="507" y="460" type="curve" smooth="yes"/>
      <point x="717" y="460"/>
      <point x="825" y="384"/>
      <point x="825" y="236" type="curve" smooth="yes"/>
      <point x="825" y="233" type="line" smooth="yes"/>
      <point x="825" y="85"/>
      <point x="717" y="9"/>
    </contour>
    <contour>
      <point x="507" y="659" type="curve" smooth="yes"/>
      <point x="297" y="659"/>
      <point x="189" y="735"/>
      <point x="189" y="883" type="curve" smooth="yes"/>
      <point x="189" y="886" type="line" smooth="yes"/>
      <point x="189" y="1034"/>
      <point x="297" y="1110"/>
      <point x="507" y="1110" type="curve" smooth="yes"/>
      <point x="717" y="1110"/>
      <point x="825" y="1034"/>
      <point x="825" y="886" type="curve" smooth="yes"/>
      <point x="825" y="883" type="line" smooth="yes"/>
      <point x="825" y="735"/>
      <point x="717" y="659"/>
    </contour>
  </outline>
</glyph>
<glyph name="vowelA.te" format="2">
  <advance width="2065"/>
  <unicode hex="0C05"/>
  <outline>
    <contour>
      <point x="1441" y="1148" type="curve" smooth="yes"/>
      <point x="1174" y="1148"/>
      <point x="1038" y="1025"/>
      <point x="1038" y="838" type="curve" smooth="yes"/>
      <point x="1038" y="835" type="line" smooth="yes"/>
      <point x="1038" y="693"/>
      <point x="1121" y="611"/>
      <point x="1253" y="577" type="curve"/>
      <point x="1253" y="573" type="line"/>
      <point x="614" y="573" type="line"/>
      <point x="620" y="539" type="line"/>
      <point x="1387" y="543" type="line"/>
      <point x="1387" y="573" type="line"/>
      <point x="1312" y="579" type="line"/>
      <point x="1152" y="623"/>
      <point x="1078" y="699"/>
      <point x="1078" y="834" type="curve" smooth="yes"/>
      <point x="1078" y="838" type="line" smooth="yes"/>
      <point x="1078" y="1009"/>
      <point x="1203" y="1113"/>
      <point x="1441" y="1113" type="curve" smooth="yes"/>
      <point x="1715" y="1113"/>
      <point x="1861" y="951"/>
      <point x="1861" y="641" type="curve" smooth="yes"/>
      <point x="1861" y="625" type="line" smooth="yes"/>
      <point x="1861" y="219"/>
      <point x="1580" y="9"/>
      <point x="1032" y="9" type="curve" smooth="yes"/>
      <point x="486" y="9"/>
      <point x="204" y="205"/>
      <point x="204" y="580" type="curve" smooth="yes"/>
      <point x="204" y="598" type="line" smooth="yes"/>
      <point x="204" y="922"/>
      <point x="402" y="1100"/>
      <point x="755" y="1100" type="curve" smooth="yes"/>
      <point x="766" y="1100" type="line"/>
      <point x="761" y="1136" type="line"/>
      <point x="745" y="1136" type="line" smooth="yes"/>
      <point x="375" y="1136"/>
      <point x="165" y="942"/>
      <point x="165" y="598" type="curve" smooth="yes"/>
      <point x="165" y="580" type="line" smooth="yes"/>
      <point x="165" y="180"/>
      <point x="457" y="-27"/>
      <point x="1032" y="-27" type="curve" smooth="yes"/>
      <point x="1608" y="-27"/>
      <point x="1900" y="194"/>
      <point x="1900" y="625" type="curve" smooth="yes"/>
      <point x="1900" y="641" type="line" smooth="yes"/>
      <point x="1900" y="969"/>
      <point x="1738" y="1148"/>
    </contour>
  </outline>
</glyph>
<glyph name="vowelAa.te" format="2">
  <advance width="2058"/>
  <unicode hex="0C06"/>
  <outline>
    <contour>
      <point x="1032" y="-27" type="curve" smooth="yes"/>
      <point x="1578" y="-27"/>
      <point x="1869" y="177"/>
      <point x="1898" y="555" type="curve"/>
      <point x="1898" y="573" type="line"/>
      <point x="1636" y="573" type="line"/>
      <point x="1636" y="577" type="line"/>
      <point x="1725" y="611"/>
      <point x="1810" y="694"/>
      <point x="1810" y="835" type="curve" smooth="yes"/>
      <point x="1810" y="838" type="line" smooth="yes"/>
      <point x="1810" y="1024"/>
      <point x="1666" y="1148"/>
      <point x="1387" y="1148" type="curve" smooth="yes"/>
      <point x="1106" y="1148"/>
      <point x="963" y="1024"/>
      <point x="963" y="838" type="curve" smooth="yes"/>
      <point x="963" y="835" type="line" smooth="yes"/>
      <point x="963" y="694"/>
      <point x="1047" y="611"/>
      <point x="1138" y="577" type="curve"/>
      <point x="1138" y="573" type="line"/>
      <point x="614" y="573" type="line"/>
      <point x="620" y="541" type="line"/>
      <point x="1857" y="541" type="line"/>
      <point x="1857" y="538" type="line"/>
      <point x="1821" y="192"/>
      <point x="1540" y="9"/>
      <point x="1032" y="9" type="curve" smooth="yes"/>
      <point x="486" y="9"/>
      <point x="204" y="205"/>
      <point x="204" y="580" type="curve" smooth="yes"/>
      <point x="204" y="598" type="line" smooth="yes"/>
      <point x="204" y="922"/>
      <point x="402" y="1100"/>
      <point x="755" y="1100" type="curve" smooth="yes"/>
      <point x="766" y="1100" type="line"/>
      <point x="761" y="1136" type="line"/>
      <point x="745" y="1136" type="line" smooth="yes"/>
      <point x="375" y="1136"/>
      <point x="165" y="942"/>
      <point x="165" y="598" type="curve" smooth="yes"/>
      <point x="165" y="580" type="line" smooth="yes"/>
      <point x="165" y="180"/>
      <point x="457" y="-27"/>
    </contour>
    <contour>
      <point x="1210" y="573" type="line"/>
      <point x="1078" y="623"/>
      <point x="1003" y="704"/>
      <point x="1003" y="834" type="curve" smooth="yes"/>
      <point x="1003" y="837" type="line" smooth="yes"/>
      <point x="1003" y="1007"/>
      <point x="1135" y="1113"/>
      <point x="1387" y="1113" type="curve" smooth="yes"/>
      <point x="1638" y="1113"/>
      <point x="1771" y="1007"/>
      <point x="1771" y="837" type="curve" smooth="yes"/>
      <point x="1771" y="834" type="line" smooth="yes"/>
      <point x="1771" y="695"/>
      <point x="1685" y="620"/>
      <point x="1563" y="573" type="curve"/>
    </contour>
  </outline>
</glyph>
<glyph name="vowelI.te" format="2">
  <advance width="1897"/>
  <unicode hex="0C07"/>
  <outline>
    <contour>
      <point x="897" y="-21" type="curve" smooth="yes"/>
      <point x="1417" y="-21"/>
      <point x="1720" y="237"/>
      <point x="1720" y="684" type="curve" smooth="yes"/>
      <point x="1720" y="696" type="line" smooth="yes"/>
      <point x="1720" y="991"/>
      <point x="1574" y="1148"/>
      <point x="1298" y="1148" type="curve" smooth="yes"/>
      <point x="1060" y="1148"/>
      <point x="932" y="1032"/>
      <point x="919" y="817" type="curve"/>
      <point x="916" y="817" type="line"/>
      <point x="902" y="1032"/>
      <point x="781" y="1148"/>
      <point x="537" y="1148" type="curve" smooth="yes"/>
      <point x="283" y="1148"/>
      <point x="150" y="1034"/>
      <point x="150" y="817" type="curve" smooth="yes"/>
      <point x="150" y="813" type="line" smooth="yes"/>
      <point x="150" y="767"/>
      <point x="158" y="719"/>
      <point x="176" y="671" type="curve"/>
      <point x="215" y="671" type="line"/>
      <point x="197" y="721"/>
      <point x="190" y="770"/>
      <point x="190" y="813" type="curve" smooth="yes"/>
      <point x="190" y="817" type="line" smooth="yes"/>
      <point x="190" y="1013"/>
      <point x="307" y="1113"/>
      <point x="539" y="1113" type="curve" smooth="yes"/>
      <point x="784" y="1113"/>
      <point x="880" y="984"/>
      <point x="894" y="767" type="curve" smooth="yes"/>
      <point x="896" y="737" type="line"/>
      <point x="939" y="737" type="line"/>
      <point x="941" y="767" type="line" smooth="yes"/>
      <point x="957" y="1002"/>
      <point x="1075" y="1113"/>
      <point x="1297" y="1113" type="curve" smooth="yes"/>
      <point x="1550" y="1113"/>
      <point x="1681" y="970"/>
      <point x="1681" y="696" type="curve" smooth="yes"/>
      <point x="1681" y="684" type="line" smooth="yes"/>
      <point x="1681" y="522"/>
      <point x="1636" y="386"/>
      <point x="1561" y="281" type="curve"/>
      <point x="1554" y="271" type="line"/>
      <point x="1424" y="106"/>
      <point x="1200" y="15"/>
      <point x="897" y="15" type="curve" smooth="yes"/>
      <point x="519" y="15"/>
      <point x="322" y="99"/>
      <point x="322" y="278" type="curve" smooth="yes"/>
      <point x="322" y="283" type="line" smooth="yes"/>
      <point x="322" y="465"/>
      <point x="508" y="548"/>
      <point x="857" y="548" type="curve" smooth="yes"/>
      <point x="1163" y="548"/>
      <point x="1407" y="465"/>
      <point x="1554" y="255" type="curve"/>
      <point x="1563" y="242" type="line"/>
      <point x="1618" y="160"/>
      <point x="1657" y="52"/>
      <point x="1681" y="-68" type="curve"/>
      <point x="1722" y="-68" type="line"/>
      <point x="1692" y="69"/>
      <point x="1648" y="183"/>
      <point x="1586" y="271" type="curve"/>
      <point x="1579" y="283" type="line"/>
      <point x="1429" y="497"/>
      <point x="1185" y="584"/>
      <point x="857" y="584" type="curve" smooth="yes"/>
      <point x="483" y="584"/>
      <point x="283" y="488"/>
      <point x="283" y="283" type="curve" smooth="yes"/>
      <point x="283" y="278" type="line" smooth="yes"/>
      <point x="283" y="77"/>
      <point x="490" y="-21"/>
    </contour>
  </outline>
</glyph>
<glyph name="vowelIi.te" format="2">
  <advance width="2730"/>
  <unicode hex="0C08"/>
  <outline>
    <contour>
      <point x="2180" y="-27" type="curve" smooth="yes"/>
      <point x="2431" y="-27"/>
      <point x="2565" y="77"/>
      <point x="2565" y="265" type="curve" smooth="yes"/>
      <point x="2565" y="269" type="line" smooth="yes"/>
      <point x="2565" y="414"/>
      <point x="2491" y="518"/>
      <point x="2290" y="569" type="curve" smooth="yes"/>
      <point x="2282" y="571"/>
      <point x="2272" y="579"/>
      <point x="2262" y="580" type="curve"/>
      <point x="1536" y="580" type="line"/>
      <point x="1527" y="580" type="line"/>
      <point x="240" y="580" type="line"/>
      <point x="233" y="580" type="line"/>
      <point x="55" y="580" type="line"/>
      <point x="55" y="546" type="line"/>
      <point x="233" y="546" type="line"/>
      <point x="240" y="546" type="line"/>
      <point x="1527" y="546" type="line"/>
      <point x="1538" y="546" type="line"/>
      <point x="2016" y="546" type="line"/>
      <point x="1867" y="498"/>
      <point x="1796" y="405"/>
      <point x="1796" y="269" type="curve" smooth="yes"/>
      <point x="1796" y="265" type="line" smooth="yes"/>
      <point x="1796" y="77"/>
      <point x="1931" y="-27"/>
    </contour>
    <contour>
      <point x="886" y="-27" type="curve" smooth="yes"/>
      <point x="1322" y="-27"/>
      <point x="1552" y="171"/>
      <point x="1552" y="550" type="curve" smooth="yes"/>
      <point x="1552" y="562" type="line" smooth="yes"/>
      <point x="1552" y="936"/>
      <point x="1322" y="1134"/>
      <point x="886" y="1134" type="curve" smooth="yes"/>
      <point x="450" y="1134"/>
      <point x="221" y="936"/>
      <point x="221" y="562" type="curve" smooth="yes"/>
      <point x="221" y="550" type="line" smooth="yes"/>
      <point x="221" y="171"/>
      <point x="450" y="-27"/>
    </contour>
    <contour>
      <point x="886" y="9" type="curve" smooth="yes"/>
      <point x="477" y="9"/>
      <point x="260" y="194"/>
      <point x="260" y="550" type="curve" smooth="yes"/>
      <point x="260" y="562" type="line" smooth="yes"/>
      <point x="260" y="915"/>
      <point x="477" y="1100"/>
      <point x="886" y="1100" type="curve" smooth="yes"/>
      <point x="1295" y="1100"/>
      <point x="1513" y="915"/>
      <point x="1513" y="562" type="curve" smooth="yes"/>
      <point x="1513" y="550" type="line" smooth="yes"/>
      <point x="1513" y="194"/>
      <point x="1295" y="9"/>
    </contour>
    <contour>
      <point x="2180" y="9" type="curve" smooth="yes"/>
      <point x="1954" y="9"/>
      <point x="1835" y="98"/>
      <point x="1835" y="267" type="curve" smooth="yes"/>
      <point x="1835" y="269" type="line" smooth="yes"/>
      <point x="1835" y="412"/>
      <point x="1915" y="498"/>
      <point x="2095" y="546" type="curve"/>
      <point x="2267" y="546" type="line"/>
      <point x="2447" y="498"/>
      <point x="2526" y="412"/>
      <point x="2526" y="269" type="curve" smooth="yes"/>
      <point x="2526" y="267" type="line" smooth="yes"/>
      <point x="2526" y="98"/>
      <point x="2408" y="9"/>
    </contour>
    <contour>
      <point x="870" y="1109" type="curve"/>
      <point x="884" y="1109" type="line"/>
      <point x="1038" y="1109"/>
      <point x="1121" y="1165"/>
      <point x="1230" y="1274" type="curve" smooth="yes"/>
      <point x="1442" y="1485" type="line" smooth="yes"/>
      <point x="1543" y="1586"/>
      <point x="1607" y="1609"/>
      <point x="1701" y="1609" type="curve" smooth="yes"/>
      <point x="1717" y="1609" type="line"/>
      <point x="1714" y="1645" type="line"/>
      <point x="1698" y="1645" type="line" smooth="yes"/>
      <point x="1585" y="1645"/>
      <point x="1519" y="1612"/>
      <point x="1414" y="1509" type="curve" smooth="yes"/>
      <point x="1198" y="1296" type="line" smooth="yes"/>
      <point x="1095" y="1195"/>
      <point x="1006" y="1136"/>
      <point x="884" y="1136" type="curve"/>
      <point x="870" y="1136" type="line"/>
      <point x="733" y="1136"/>
      <point x="642" y="1197"/>
      <point x="573" y="1299" type="curve" smooth="yes"/>
      <point x="479" y="1438" type="line"/>
      <point x="431" y="1438" type="line"/>
      <point x="547" y="1274" type="line" smooth="yes"/>
      <point x="625" y="1163"/>
      <point x="707" y="1109"/>
    </contour>
    <contour>
      <point x="2290" y="562" type="line"/>
      <point x="2458" y="594"/>
      <point x="2561" y="686"/>
      <point x="2561" y="844" type="curve" smooth="yes"/>
      <point x="2561" y="847" type="line" smooth="yes"/>
      <point x="2561" y="1034"/>
      <point x="2442" y="1134"/>
      <point x="2213" y="1134" type="curve" smooth="yes"/>
      <point x="2067" y="1134"/>
      <point x="1955" y="1091"/>
      <point x="1872" y="1048" type="curve"/>
      <point x="1865" y="997" type="line"/>
      <point x="1955" y="1052"/>
      <point x="2075" y="1098"/>
      <point x="2214" y="1098" type="curve" smooth="yes"/>
      <point x="2417" y="1098"/>
      <point x="2522" y="1013"/>
      <point x="2522" y="847" type="curve" smooth="yes"/>
      <point x="2522" y="844" type="line" smooth="yes"/>
      <point x="2522" y="703"/>
      <point x="2434" y="618"/>
      <point x="2254" y="580" type="curve"/>
    </contour>
  </outline>
</glyph>
<glyph name="vowelU.te" format="2">
  <advance width="2133"/>
  <unicode hex="0C09"/>
  <outline>
    <contour>
      <point x="664" y="-21" type="curve" smooth="yes"/>
      <point x="910" y="-21"/>
      <point x="1047" y="110"/>
      <point x="1063" y="356" type="curve"/>
      <point x="1066" y="356" type="line"/>
      <point x="1080" y="110"/>
      <point x="1233" y="-21"/>
      <point x="1506" y="-21" type="curve" smooth="yes"/>
      <point x="1769" y="-21"/>
      <point x="1912" y="100"/>
      <point x="1912" y="312" type="curve"/>
      <point x="1912" y="313" type="line"/>
      <point x="1912" y="421"/>
      <point x="1877" y="497"/>
      <point x="1820" y="561" type="curve"/>
      <point x="1776" y="561" type="line"/>
      <point x="1847" y="487"/>
      <point x="1873" y="408"/>
      <point x="1873" y="315" type="curve"/>
      <point x="1873" y="313" type="line"/>
      <point x="1873" y="121"/>
      <point x="1747" y="15"/>
      <point x="1505" y="15" type="curve" smooth="yes"/>
      <point x="1244" y="15"/>
      <point x="1103" y="140"/>
      <point x="1088" y="402" type="curve" smooth="yes"/>
      <point x="1086" y="436" type="line"/>
      <point x="1042" y="436" type="line"/>
      <point x="1040" y="402" type="line" smooth="yes"/>
      <point x="1025" y="142"/>
      <point x="896" y="15"/>
      <point x="666" y="15" type="curve" smooth="yes"/>
      <point x="398" y="15"/>
      <point x="260" y="161"/>
      <point x="260" y="443" type="curve" smooth="yes"/>
      <point x="260" y="456" type="line" smooth="yes"/>
      <point x="260" y="888"/>
      <point x="522" y="1100"/>
      <point x="1063" y="1100" type="curve" smooth="yes"/>
      <point x="1349" y="1100"/>
      <point x="1557" y="1032"/>
      <point x="1691" y="958" type="curve"/>
      <point x="1688" y="999" type="line"/>
      <point x="1547" y="1080"/>
      <point x="1338" y="1136"/>
      <point x="1063" y="1136" type="curve" smooth="yes"/>
      <point x="500" y="1136"/>
      <point x="221" y="910"/>
      <point x="221" y="456" type="curve" smooth="yes"/>
      <point x="221" y="443" type="line" smooth="yes"/>
      <point x="221" y="139"/>
      <point x="373" y="-21"/>
    </contour>
    <contour>
      <point x="55" y="546" type="line"/>
      <point x="2041" y="546" type="line"/>
      <point x="2041" y="580" type="line"/>
      <point x="55" y="580" type="line"/>
    </contour>
    <contour>
      <point x="1051" y="1111" type="curve"/>
      <point x="1077" y="1111" type="line"/>
      <point x="1091" y="1224"/>
      <point x="1100" y="1303"/>
      <point x="1100" y="1371" type="curve" smooth="yes"/>
      <point x="1100" y="1425"/>
      <point x="1089" y="1463"/>
      <point x="1084" y="1482" type="curve"/>
      <point x="1044" y="1482" type="line"/>
      <point x="1038" y="1463"/>
      <point x="1028" y="1424"/>
      <point x="1028" y="1371" type="curve" smooth="yes"/>
      <point x="1028" y="1305"/>
      <point x="1037" y="1224"/>
    </contour>
  </outline>
</glyph>
<glyph name="vowelUu.te" format="2">
  <advance width="3116"/>
  <unicode hex="0C0A"/>
  <outline>
    <contour>
      <point x="2566" y="-27" type="curve" smooth="yes"/>
      <point x="2816" y="-27"/>
      <point x="2951" y="77"/>
      <point x="2951" y="265" type="curve"/>
      <point x="2951" y="269" type="line"/>
      <point x="2951" y="416"/>
      <point x="2874" y="518"/>
      <point x="2675" y="569" type="curve" smooth="yes"/>
      <point x="2667" y="571"/>
      <point x="2658" y="579"/>
      <point x="2647" y="580" type="curve"/>
      <point x="55" y="580" type="line"/>
      <point x="55" y="546" type="line"/>
      <point x="2402" y="546" type="line"/>
      <point x="2254" y="498"/>
      <point x="2182" y="405"/>
      <point x="2182" y="269" type="curve"/>
      <point x="2182" y="265" type="line"/>
      <point x="2182" y="77"/>
      <point x="2316" y="-27"/>
    </contour>
    <contour>
      <point x="664" y="-21" type="curve" smooth="yes"/>
      <point x="910" y="-21"/>
      <point x="1047" y="110"/>
      <point x="1063" y="356" type="curve"/>
      <point x="1066" y="356" type="line"/>
      <point x="1080" y="110"/>
      <point x="1231" y="-21"/>
      <point x="1506" y="-21" type="curve" smooth="yes"/>
      <point x="1769" y="-21"/>
      <point x="1912" y="100"/>
      <point x="1912" y="312" type="curve"/>
      <point x="1912" y="313" type="line"/>
      <point x="1912" y="421"/>
      <point x="1877" y="497"/>
      <point x="1820" y="561" type="curve"/>
      <point x="1776" y="561" type="line"/>
      <point x="1847" y="487"/>
      <point x="1873" y="408"/>
      <point x="1873" y="315" type="curve"/>
      <point x="1873" y="313" type="line"/>
      <point x="1873" y="121"/>
      <point x="1747" y="15"/>
      <point x="1505" y="15" type="curve" smooth="yes"/>
      <point x="1245" y="15"/>
      <point x="1103" y="142"/>
      <point x="1088" y="402" type="curve" smooth="yes"/>
      <point x="1086" y="436" type="line"/>
      <point x="1042" y="436" type="line"/>
      <point x="1040" y="402" type="line" smooth="yes"/>
      <point x="1025" y="142"/>
      <point x="897" y="15"/>
      <point x="666" y="15" type="curve" smooth="yes"/>
      <point x="398" y="15"/>
      <point x="260" y="161"/>
      <point x="260" y="443" type="curve" smooth="yes"/>
      <point x="260" y="456" type="line" smooth="yes"/>
      <point x="260" y="888"/>
      <point x="522" y="1100"/>
      <point x="1063" y="1100" type="curve" smooth="yes"/>
      <point x="1349" y="1100"/>
      <point x="1557" y="1032"/>
      <point x="1691" y="958" type="curve"/>
      <point x="1688" y="999" type="line"/>
      <point x="1547" y="1080"/>
      <point x="1338" y="1136"/>
      <point x="1063" y="1136" type="curve" smooth="yes"/>
      <point x="500" y="1136"/>
      <point x="221" y="910"/>
      <point x="221" y="456" type="curve" smooth="yes"/>
      <point x="221" y="443" type="line" smooth="yes"/>
      <point x="221" y="139"/>
      <point x="373" y="-21"/>
    </contour>
    <contour>
      <point x="864" y="1111" type="curve"/>
      <point x="889" y="1111" type="line"/>
      <point x="905" y="1224"/>
      <point x="913" y="1307"/>
      <point x="913" y="1371" type="curve" smooth="yes"/>
      <point x="913" y="1423"/>
      <point x="902" y="1463"/>
      <point x="897" y="1482" type="curve"/>
      <point x="857" y="1482" type="line"/>
      <point x="852" y="1463"/>
      <point x="841" y="1427"/>
      <point x="841" y="1371" type="curve" smooth="yes"/>
      <point x="841" y="1301"/>
      <point x="850" y="1224"/>
    </contour>
    <contour>
      <point x="1218" y="1111" type="curve"/>
      <point x="1243" y="1111" type="line"/>
      <point x="1259" y="1224"/>
      <point x="1267" y="1308"/>
      <point x="1267" y="1371" type="curve" smooth="yes"/>
      <point x="1267" y="1425"/>
      <point x="1256" y="1463"/>
      <point x="1251" y="1482" type="curve"/>
      <point x="1211" y="1482" type="line"/>
      <point x="1206" y="1463"/>
      <point x="1195" y="1427"/>
      <point x="1195" y="1371" type="curve" smooth="yes"/>
      <point x="1195" y="1301"/>
      <point x="1204" y="1224"/>
    </contour>
    <contour>
      <point x="2566" y="9" type="curve" smooth="yes"/>
      <point x="2339" y="9"/>
      <point x="2221" y="98"/>
      <point x="2221" y="267" type="curve"/>
      <point x="2221" y="269" type="line"/>
      <point x="2221" y="410"/>
      <point x="2298" y="497"/>
      <point x="2480" y="546" type="curve"/>
      <point x="2653" y="546" type="line"/>
      <point x="2831" y="498"/>
      <point x="2912" y="413"/>
      <point x="2912" y="269" type="curve"/>
      <point x="2912" y="267" type="line"/>
      <point x="2912" y="98"/>
      <point x="2793" y="9"/>
    </contour>
    <contour>
      <point x="2676" y="562" type="line"/>
      <point x="2844" y="594"/>
      <point x="2947" y="687"/>
      <point x="2947" y="844" type="curve"/>
      <point x="2947" y="847" type="line"/>
      <point x="2947" y="1034"/>
      <point x="2828" y="1134"/>
      <point x="2599" y="1134" type="curve" smooth="yes"/>
      <point x="2453" y="1134"/>
      <point x="2340" y="1091"/>
      <point x="2258" y="1048" type="curve"/>
      <point x="2251" y="997" type="line"/>
      <point x="2340" y="1052"/>
      <point x="2461" y="1098"/>
      <point x="2599" y="1098" type="curve" smooth="yes"/>
      <point x="2803" y="1098"/>
      <point x="2908" y="1013"/>
      <point x="2908" y="847" type="curve"/>
      <point x="2908" y="844" type="line"/>
      <point x="2908" y="704"/>
      <point x="2820" y="618"/>
      <point x="2639" y="580" type="curve"/>
    </contour>
  </outline>
</glyph>
<glyph name="vowelVocalicL.te" format="2">
  <advance width="2519"/>
  <unicode hex="0C0C"/>
  <outline>
    <contour>
      <point x="1591" y="-27" type="curve" smooth="yes"/>
      <point x="2097" y="-27"/>
      <point x="2354" y="182"/>
      <point x="2354" y="589" type="curve" smooth="yes"/>
      <point x="2354" y="600" type="line" smooth="yes"/>
      <point x="2354" y="933"/>
      <point x="2180" y="1136"/>
      <point x="1847" y="1136" type="curve" smooth="yes"/>
      <point x="1831" y="1136" type="line"/>
      <point x="1826" y="1100" type="line"/>
      <point x="1837" y="1100" type="line" smooth="yes"/>
      <point x="2155" y="1100"/>
      <point x="2315" y="911"/>
      <point x="2315" y="600" type="curve" smooth="yes"/>
      <point x="2315" y="589" type="line" smooth="yes"/>
      <point x="2315" y="206"/>
      <point x="2068" y="9"/>
      <point x="1591" y="9" type="curve" smooth="yes"/>
      <point x="1208" y="9"/>
      <point x="1007" y="109"/>
      <point x="1007" y="278" type="curve"/>
      <point x="1007" y="281" type="line"/>
      <point x="1007" y="431"/>
      <point x="1115" y="500"/>
      <point x="1374" y="562" type="curve" smooth="yes"/>
      <point x="1639" y="626"/>
      <point x="1699" y="715"/>
      <point x="1699" y="847" type="curve" smooth="yes"/>
      <point x="1699" y="860" type="line" smooth="yes"/>
      <point x="1699" y="1038"/>
      <point x="1572" y="1148"/>
      <point x="1306" y="1148" type="curve" smooth="yes"/>
      <point x="1057" y="1148"/>
      <point x="914" y="1032"/>
      <point x="899" y="817" type="curve"/>
      <point x="896" y="817" type="line"/>
      <point x="881" y="1032"/>
      <point x="760" y="1148"/>
      <point x="516" y="1148" type="curve" smooth="yes"/>
      <point x="262" y="1148"/>
      <point x="130" y="1034"/>
      <point x="130" y="817" type="curve"/>
      <point x="130" y="813" type="line"/>
      <point x="130" y="767"/>
      <point x="137" y="719"/>
      <point x="156" y="671" type="curve"/>
      <point x="195" y="671" type="line"/>
      <point x="176" y="721"/>
      <point x="169" y="769"/>
      <point x="169" y="813" type="curve"/>
      <point x="169" y="817" type="line"/>
      <point x="169" y="1013"/>
      <point x="287" y="1113"/>
      <point x="518" y="1113" type="curve" smooth="yes"/>
      <point x="765" y="1113"/>
      <point x="860" y="982"/>
      <point x="874" y="767" type="curve" smooth="yes"/>
      <point x="876" y="737" type="line"/>
      <point x="919" y="737" type="line"/>
      <point x="921" y="767" type="line" smooth="yes"/>
      <point x="937" y="1002"/>
      <point x="1070" y="1113"/>
      <point x="1306" y="1113" type="curve" smooth="yes"/>
      <point x="1548" y="1113"/>
      <point x="1660" y="1016"/>
      <point x="1660" y="860" type="curve" smooth="yes"/>
      <point x="1660" y="847" type="line" smooth="yes"/>
      <point x="1660" y="748"/>
      <point x="1636" y="661"/>
      <point x="1361" y="595" type="curve" smooth="yes"/>
      <point x="1092" y="530"/>
      <point x="968" y="450"/>
      <point x="968" y="281" type="curve"/>
      <point x="968" y="278" type="line"/>
      <point x="968" y="89"/>
      <point x="1175" y="-27"/>
    </contour>
  </outline>
</glyph>
<glyph name="vowelE.te" format="2">
  <advance width="1967"/>
  <unicode hex="0C0E"/>
  <outline>
    <contour>
      <point x="530" y="-22" type="curve" smooth="yes"/>
      <point x="755" y="-22"/>
      <point x="892" y="77"/>
      <point x="917" y="260" type="curve"/>
      <point x="920" y="260" type="line"/>
      <point x="955" y="76"/>
      <point x="1106" y="-22"/>
      <point x="1334" y="-22" type="curve" smooth="yes"/>
      <point x="1644" y="-22"/>
      <point x="1802" y="163"/>
      <point x="1802" y="527" type="curve" smooth="yes"/>
      <point x="1802" y="539" type="line" smooth="yes"/>
      <point x="1802" y="1089"/>
      <point x="1506" y="1347"/>
      <point x="901" y="1347" type="curve" smooth="yes"/>
      <point x="852" y="1347" type="line"/>
      <point x="847" y="1312" type="line"/>
      <point x="901" y="1312" type="line"/>
      <point x="1485" y="1312"/>
      <point x="1763" y="1073"/>
      <point x="1763" y="539" type="curve" smooth="yes"/>
      <point x="1763" y="527" type="line" smooth="yes"/>
      <point x="1763" y="185"/>
      <point x="1619" y="14"/>
      <point x="1333" y="14" type="curve" smooth="yes"/>
      <point x="1105" y="14"/>
      <point x="946" y="122"/>
      <point x="936" y="335" type="curve" smooth="yes"/>
      <point x="935" y="356" type="line" smooth="yes"/>
      <point x="925" y="566"/>
      <point x="792" y="694"/>
      <point x="533" y="694" type="curve" smooth="yes"/>
      <point x="275" y="694"/>
      <point x="130" y="566"/>
      <point x="130" y="340" type="curve" smooth="yes"/>
      <point x="130" y="333" type="line" smooth="yes"/>
      <point x="130" y="106"/>
      <point x="275" y="-22"/>
    </contour>
    <contour>
      <point x="531" y="14" type="curve" smooth="yes"/>
      <point x="297" y="14"/>
      <point x="169" y="128"/>
      <point x="169" y="333" type="curve" smooth="yes"/>
      <point x="169" y="340" type="line" smooth="yes"/>
      <point x="169" y="545"/>
      <point x="297" y="659"/>
      <point x="533" y="659" type="curve" smooth="yes"/>
      <point x="770" y="659"/>
      <point x="897" y="545"/>
      <point x="897" y="342" type="curve" smooth="yes"/>
      <point x="897" y="338" type="line" smooth="yes"/>
      <point x="897" y="130"/>
      <point x="770" y="14"/>
    </contour>
  </outline>
</glyph>
<glyph name="vowelEe.te" format="2">
  <advance width="1967"/>
  <unicode hex="0C0F"/>
  <outline>
    <contour>
      <point x="984" y="1709" type="line"/>
      <point x="989" y="1673" type="line"/>
      <point x="888" y="1673" type="line" smooth="yes"/>
      <point x="566" y="1673"/>
      <point x="408" y="1522"/>
      <point x="408" y="1216" type="curve" smooth="yes"/>
      <point x="408" y="1173" type="line"/>
      <point x="369" y="1173" type="line"/>
      <point x="369" y="1218" type="line" smooth="yes"/>
      <point x="369" y="1547"/>
      <point x="541" y="1709"/>
      <point x="886" y="1709" type="curve" smooth="yes"/>
    </contour>
    <component base="vowelE.te"/>
  </outline>
</glyph>
<glyph name="vowelAi.te" format="2">
  <advance width="1985"/>
  <unicode hex="0C10"/>
  <outline>
    <contour>
      <point x="565" y="-22" type="curve" smooth="yes"/>
      <point x="789" y="-22"/>
      <point x="927" y="72"/>
      <point x="952" y="242" type="curve"/>
      <point x="955" y="242" type="line"/>
      <point x="988" y="72"/>
      <point x="1135" y="-22"/>
      <point x="1357" y="-22" type="curve" smooth="yes"/>
      <point x="1665" y="-22"/>
      <point x="1820" y="180"/>
      <point x="1820" y="571" type="curve" smooth="yes"/>
      <point x="1820" y="589" type="line" smooth="yes"/>
      <point x="1820" y="945"/>
      <point x="1686" y="1148"/>
      <point x="1367" y="1148" type="curve" smooth="yes"/>
      <point x="1122" y="1148"/>
      <point x="988" y="1040"/>
      <point x="975" y="835" type="curve"/>
      <point x="972" y="835" type="line"/>
      <point x="957" y="1040"/>
      <point x="830" y="1148"/>
      <point x="577" y="1148" type="curve" smooth="yes"/>
      <point x="307" y="1148"/>
      <point x="165" y="1036"/>
      <point x="165" y="822" type="curve"/>
      <point x="165" y="819" type="line"/>
      <point x="165" y="789"/>
      <point x="168" y="757"/>
      <point x="175" y="724" type="curve"/>
      <point x="214" y="724" type="line"/>
      <point x="207" y="758"/>
      <point x="204" y="791"/>
      <point x="204" y="819" type="curve"/>
      <point x="204" y="822" type="line"/>
      <point x="204" y="1015"/>
      <point x="332" y="1113"/>
      <point x="579" y="1113" type="curve" smooth="yes"/>
      <point x="826" y="1113"/>
      <point x="935" y="998"/>
      <point x="949" y="785" type="curve" smooth="yes"/>
      <point x="951" y="755" type="line"/>
      <point x="995" y="755" type="line"/>
      <point x="997" y="785" type="line" smooth="yes"/>
      <point x="1012" y="1007"/>
      <point x="1134" y="1113"/>
      <point x="1366" y="1113" type="curve" smooth="yes"/>
      <point x="1661" y="1113"/>
      <point x="1781" y="924"/>
      <point x="1781" y="589" type="curve" smooth="yes"/>
      <point x="1781" y="571" type="line" smooth="yes"/>
      <point x="1781" y="199"/>
      <point x="1640" y="14"/>
      <point x="1355" y="14" type="curve" smooth="yes"/>
      <point x="1135" y="14"/>
      <point x="989" y="116"/>
      <point x="972" y="316" type="curve" smooth="yes"/>
      <point x="970" y="340" type="line" smooth="yes"/>
      <point x="953" y="546"/>
      <point x="823" y="659"/>
      <point x="568" y="659" type="curve" smooth="yes"/>
      <point x="310" y="659"/>
      <point x="165" y="536"/>
      <point x="165" y="322" type="curve" smooth="yes"/>
      <point x="165" y="315" type="line" smooth="yes"/>
      <point x="165" y="100"/>
      <point x="310" y="-22"/>
    </contour>
    <contour>
      <point x="566" y="14" type="curve" smooth="yes"/>
      <point x="332" y="14"/>
      <point x="204" y="123"/>
      <point x="204" y="315" type="curve" smooth="yes"/>
      <point x="204" y="322" type="line" smooth="yes"/>
      <point x="204" y="514"/>
      <point x="332" y="623"/>
      <point x="568" y="623" type="curve" smooth="yes"/>
      <point x="805" y="623"/>
      <point x="932" y="514"/>
      <point x="932" y="324" type="curve" smooth="yes"/>
      <point x="932" y="320" type="line" smooth="yes"/>
      <point x="932" y="125"/>
      <point x="805" y="14"/>
    </contour>
  </outline>
</glyph>
<glyph name="vowelO.te" format="2">
  <advance width="1984"/>
  <unicode hex="0C12"/>
  <outline>
    <contour>
      <point x="559" y="-22" type="curve" smooth="yes"/>
      <point x="836" y="-22"/>
      <point x="995" y="109"/>
      <point x="1011" y="356" type="curve"/>
      <point x="1014" y="356" type="line"/>
      <point x="1029" y="109"/>
      <point x="1177" y="-22"/>
      <point x="1450" y="-22" type="curve" smooth="yes"/>
      <point x="1712" y="-22"/>
      <point x="1854" y="100"/>
      <point x="1854" y="326" type="curve" smooth="yes"/>
      <point x="1854" y="328" type="line" smooth="yes"/>
      <point x="1854" y="402"/>
      <point x="1835" y="472"/>
      <point x="1812" y="520" type="curve"/>
      <point x="1771" y="520" type="line"/>
      <point x="1801" y="464"/>
      <point x="1815" y="393"/>
      <point x="1815" y="328" type="curve" smooth="yes"/>
      <point x="1815" y="329" type="line" smooth="yes"/>
      <point x="1815" y="123"/>
      <point x="1689" y="14"/>
      <point x="1449" y="14" type="curve" smooth="yes"/>
      <point x="1189" y="14"/>
      <point x="1051" y="141"/>
      <point x="1036" y="402" type="curve" smooth="yes"/>
      <point x="1034" y="436" type="line"/>
      <point x="991" y="436" type="line"/>
      <point x="989" y="402" type="line" smooth="yes"/>
      <point x="974" y="141"/>
      <point x="825" y="14"/>
      <point x="561" y="14" type="curve" smooth="yes"/>
      <point x="320" y="14"/>
      <point x="189" y="101"/>
      <point x="189" y="258" type="curve" smooth="yes"/>
      <point x="189" y="262" type="line" smooth="yes"/>
      <point x="189" y="408"/>
      <point x="259" y="478"/>
      <point x="582" y="577" type="curve" smooth="yes"/>
      <point x="883" y="670"/>
      <point x="970" y="739"/>
      <point x="970" y="881" type="curve" smooth="yes"/>
      <point x="970" y="883" type="line" smooth="yes"/>
      <point x="970" y="1048"/>
      <point x="826" y="1148"/>
      <point x="572" y="1148" type="curve" smooth="yes"/>
      <point x="310" y="1148"/>
      <point x="163" y="1043"/>
      <point x="163" y="856" type="curve" smooth="yes"/>
      <point x="163" y="854" type="line" smooth="yes"/>
      <point x="163" y="792"/>
      <point x="181" y="734"/>
      <point x="211" y="671" type="curve"/>
      <point x="254" y="671" type="line"/>
      <point x="221" y="733"/>
      <point x="203" y="793"/>
      <point x="203" y="853" type="curve" smooth="yes"/>
      <point x="203" y="854" type="line" smooth="yes"/>
      <point x="203" y="1022"/>
      <point x="335" y="1113"/>
      <point x="572" y="1113" type="curve" smooth="yes"/>
      <point x="803" y="1113"/>
      <point x="931" y="1025"/>
      <point x="931" y="883" type="curve" smooth="yes"/>
      <point x="931" y="881" type="line" smooth="yes"/>
      <point x="931" y="752"/>
      <point x="850" y="694"/>
      <point x="555" y="603" type="curve" smooth="yes"/>
      <point x="264" y="513"/>
      <point x="150" y="442"/>
      <point x="150" y="262" type="curve" smooth="yes"/>
      <point x="150" y="258" type="line" smooth="yes"/>
      <point x="150" y="77"/>
      <point x="296" y="-22"/>
    </contour>
  </outline>
</glyph>
<glyph name="vowelOo.te" format="2">
  <advance width="1984"/>
  <unicode hex="0C13"/>
  <outline>
    <contour>
      <point x="960" y="1419" type="curve"/>
      <point x="955" y="1463" type="line"/>
      <point x="876" y="1503"/>
      <point x="770" y="1544"/>
      <point x="602" y="1544" type="curve" smooth="yes"/>
      <point x="370" y="1544"/>
      <point x="248" y="1469"/>
      <point x="248" y="1324" type="curve" smooth="yes"/>
      <point x="248" y="1205"/>
      <point x="349" y="1125"/>
      <point x="546" y="1125" type="curve"/>
      <point x="558" y="1146" type="line"/>
      <point x="381" y="1146"/>
      <point x="287" y="1219"/>
      <point x="287" y="1324" type="curve" smooth="yes"/>
      <point x="287" y="1445"/>
      <point x="395" y="1509"/>
      <point x="602" y="1509" type="curve" smooth="yes"/>
      <point x="756" y="1509"/>
      <point x="876" y="1469"/>
    </contour>
    <component base="vowelO.te"/>
  </outline>
</glyph>
<glyph name="vowelAu.te" format="2">
  <advance width="2072"/>
  <unicode hex="0C14"/>
  <outline>
    <contour>
      <point x="559" y="-22" type="curve" smooth="yes"/>
      <point x="836" y="-22"/>
      <point x="995" y="108"/>
      <point x="1011" y="356" type="curve"/>
      <point x="1014" y="356" type="line"/>
      <point x="1029" y="108"/>
      <point x="1177" y="-22"/>
      <point x="1450" y="-22" type="curve" smooth="yes"/>
      <point x="1712" y="-22"/>
      <point x="1854" y="100"/>
      <point x="1854" y="326" type="curve" smooth="yes"/>
      <point x="1854" y="328" type="line" smooth="yes"/>
      <point x="1854" y="398"/>
      <point x="1837" y="461"/>
      <point x="1817" y="506" type="curve"/>
      <point x="1776" y="506" type="line"/>
      <point x="1805" y="451"/>
      <point x="1815" y="382"/>
      <point x="1815" y="328" type="curve" smooth="yes"/>
      <point x="1815" y="329" type="line" smooth="yes"/>
      <point x="1815" y="123"/>
      <point x="1689" y="14"/>
      <point x="1449" y="14" type="curve" smooth="yes"/>
      <point x="1192" y="14"/>
      <point x="1051" y="141"/>
      <point x="1036" y="402" type="curve" smooth="yes"/>
      <point x="1034" y="436" type="line"/>
      <point x="991" y="436" type="line"/>
      <point x="989" y="402" type="line" smooth="yes"/>
      <point x="974" y="141"/>
      <point x="823" y="14"/>
      <point x="561" y="14" type="curve" smooth="yes"/>
      <point x="320" y="14"/>
      <point x="189" y="101"/>
      <point x="189" y="258" type="curve" smooth="yes"/>
      <point x="189" y="262" type="line" smooth="yes"/>
      <point x="189" y="408"/>
      <point x="259" y="478"/>
      <point x="582" y="577" type="curve" smooth="yes"/>
      <point x="883" y="670"/>
      <point x="970" y="739"/>
      <point x="970" y="881" type="curve" smooth="yes"/>
      <point x="970" y="883" type="line" smooth="yes"/>
      <point x="970" y="1048"/>
      <point x="826" y="1148"/>
      <point x="572" y="1148" type="curve" smooth="yes"/>
      <point x="310" y="1148"/>
      <point x="163" y="1043"/>
      <point x="163" y="856" type="curve" smooth="yes"/>
      <point x="163" y="854" type="line" smooth="yes"/>
      <point x="163" y="792"/>
      <point x="181" y="734"/>
      <point x="211" y="671" type="curve"/>
      <point x="254" y="671" type="line"/>
      <point x="221" y="733"/>
      <point x="203" y="793"/>
      <point x="203" y="853" type="curve" smooth="yes"/>
      <point x="203" y="854" type="line" smooth="yes"/>
      <point x="203" y="1022"/>
      <point x="335" y="1113"/>
      <point x="572" y="1113" type="curve" smooth="yes"/>
      <point x="803" y="1113"/>
      <point x="931" y="1025"/>
      <point x="931" y="883" type="curve" smooth="yes"/>
      <point x="931" y="881" type="line" smooth="yes"/>
      <point x="931" y="752"/>
      <point x="850" y="694"/>
      <point x="555" y="603" type="curve" smooth="yes"/>
      <point x="264" y="513"/>
      <point x="150" y="442"/>
      <point x="150" y="262" type="curve" smooth="yes"/>
      <point x="150" y="258" type="line" smooth="yes"/>
      <point x="150" y="77"/>
      <point x="296" y="-22"/>
    </contour>
    <contour>
      <point x="591" y="1125" type="line"/>
      <point x="770" y="1125"/>
      <point x="840" y="1194"/>
      <point x="840" y="1301" type="curve" smooth="yes"/>
      <point x="840" y="1412"/>
      <point x="771" y="1472"/>
      <point x="614" y="1472" type="curve" smooth="yes"/>
      <point x="549" y="1472" type="line"/>
      <point x="549" y="1449" type="line"/>
      <point x="618" y="1449" type="line" smooth="yes"/>
      <point x="737" y="1449"/>
      <point x="803" y="1392"/>
      <point x="803" y="1303" type="curve" smooth="yes"/>
      <point x="803" y="1212"/>
      <point x="735" y="1148"/>
      <point x="572" y="1148" type="curve"/>
    </contour>
    <contour>
      <point x="1593" y="611" type="curve" smooth="yes"/>
      <point x="1830" y="611"/>
      <point x="1962" y="748"/>
      <point x="1962" y="988" type="curve" smooth="yes"/>
      <point x="1962" y="993" type="line" smooth="yes"/>
      <point x="1962" y="1287"/>
      <point x="1797" y="1485"/>
      <point x="1377" y="1485" type="curve" smooth="yes"/>
      <point x="220" y="1485" type="line"/>
      <point x="215" y="1449" type="line"/>
      <point x="722" y="1449" type="line"/>
      <point x="725" y="1451" type="line"/>
      <point x="872" y="1449" type="line"/>
      <point x="1377" y="1449" type="line" smooth="yes"/>
      <point x="1781" y="1449"/>
      <point x="1928" y="1266"/>
      <point x="1928" y="997" type="curve"/>
      <point x="1928" y="993" type="line"/>
      <point x="1926" y="993" type="line"/>
      <point x="1928" y="981" type="line"/>
      <point x="1928" y="979" type="line"/>
      <point x="1928" y="765"/>
      <point x="1810" y="646"/>
      <point x="1593" y="646" type="curve" smooth="yes"/>
      <point x="1388" y="646"/>
      <point x="1272" y="740"/>
      <point x="1272" y="910" type="curve" smooth="yes"/>
      <point x="1272" y="913" type="line" smooth="yes"/>
      <point x="1272" y="1082"/>
      <point x="1383" y="1177"/>
      <point x="1584" y="1177" type="curve" smooth="yes"/>
      <point x="1744" y="1177"/>
      <point x="1871" y="1105"/>
      <point x="1934" y="956" type="curve"/>
      <point x="1937" y="999" type="line"/>
      <point x="1885" y="1124"/>
      <point x="1771" y="1212"/>
      <point x="1581" y="1212" type="curve" smooth="yes"/>
      <point x="1358" y="1212"/>
      <point x="1233" y="1105"/>
      <point x="1233" y="913" type="curve" smooth="yes"/>
      <point x="1233" y="910" type="line" smooth="yes"/>
      <point x="1233" y="719"/>
      <point x="1363" y="611"/>
    </contour>
  </outline>
</glyph>
<glyph name="Ka.te" format="2">
  <advance width="1575"/>
  <unicode hex="0C15"/>
  <anchor x="792" y="-71" name="bottom"/>
  <outline>
    <contour>
      <point x="792" y="-27" type="curve" smooth="yes"/>
      <point x="1203" y="-27"/>
      <point x="1410" y="77"/>
      <point x="1410" y="288" type="curve" smooth="yes"/>
      <point x="1410" y="292" type="line" smooth="yes"/>
      <point x="1410" y="487"/>
      <point x="1263" y="553"/>
      <point x="985" y="573" type="curve" smooth="yes"/>
      <point x="607" y="600" type="line" smooth="yes"/>
      <point x="338" y="619"/>
      <point x="232" y="685"/>
      <point x="232" y="821" type="curve" smooth="yes"/>
      <point x="232" y="824" type="line" smooth="yes"/>
      <point x="232" y="1002"/>
      <point x="423" y="1100"/>
      <point x="774" y="1100" type="curve" smooth="yes"/>
      <point x="1150" y="1100"/>
      <point x="1342" y="1004"/>
      <point x="1342" y="821" type="curve" smooth="yes"/>
      <point x="1342" y="813" type="line" smooth="yes"/>
      <point x="1342" y="792"/>
      <point x="1342" y="776"/>
      <point x="1336" y="748" type="curve"/>
      <point x="1375" y="748" type="line"/>
      <point x="1381" y="780"/>
      <point x="1381" y="796"/>
      <point x="1381" y="813" type="curve" smooth="yes"/>
      <point x="1381" y="821" type="line" smooth="yes"/>
      <point x="1381" y="1029"/>
      <point x="1180" y="1134"/>
      <point x="774" y="1134" type="curve" smooth="yes"/>
      <point x="395" y="1134"/>
      <point x="193" y="1027"/>
      <point x="193" y="824" type="curve" smooth="yes"/>
      <point x="193" y="821" type="line" smooth="yes"/>
      <point x="193" y="649"/>
      <point x="335" y="584"/>
      <point x="602" y="565" type="curve" smooth="yes"/>
      <point x="980" y="538" type="line" smooth="yes"/>
      <point x="1267" y="518"/>
      <point x="1371" y="445"/>
      <point x="1371" y="292" type="curve" smooth="yes"/>
      <point x="1371" y="288" type="line" smooth="yes"/>
      <point x="1371" y="100"/>
      <point x="1178" y="9"/>
      <point x="792" y="9" type="curve" smooth="yes"/>
      <point x="405" y="9"/>
      <point x="204" y="105"/>
      <point x="204" y="294" type="curve" smooth="yes"/>
      <point x="204" y="299" type="line" smooth="yes"/>
      <point x="204" y="319"/>
      <point x="204" y="335"/>
      <point x="208" y="360" type="curve"/>
      <point x="171" y="360" type="line"/>
      <point x="167" y="335"/>
      <point x="165" y="321"/>
      <point x="165" y="299" type="curve" smooth="yes"/>
      <point x="165" y="294" type="line" smooth="yes"/>
      <point x="165" y="84"/>
      <point x="380" y="-27"/>
    </contour>
    <contour>
      <point x="738" y="1109" type="curve"/>
      <point x="752" y="1109" type="line"/>
      <point x="909" y="1109"/>
      <point x="993" y="1169"/>
      <point x="1098" y="1274" type="curve" smooth="yes"/>
      <point x="1310" y="1485" type="line" smooth="yes"/>
      <point x="1411" y="1586"/>
      <point x="1474" y="1609"/>
      <point x="1568" y="1609" type="curve" smooth="yes"/>
      <point x="1585" y="1609" type="line"/>
      <point x="1581" y="1645" type="line"/>
      <point x="1565" y="1645" type="line" smooth="yes"/>
      <point x="1452" y="1645"/>
      <point x="1382" y="1610"/>
      <point x="1281" y="1509" type="curve" smooth="yes"/>
      <point x="1066" y="1296" type="line" smooth="yes"/>
      <point x="963" y="1194"/>
      <point x="873" y="1136"/>
      <point x="752" y="1136" type="curve"/>
      <point x="738" y="1136" type="line"/>
      <point x="601" y="1136"/>
      <point x="511" y="1198"/>
      <point x="441" y="1299" type="curve" smooth="yes"/>
      <point x="345" y="1438" type="line"/>
      <point x="299" y="1438" type="line"/>
      <point x="415" y="1274" type="line" smooth="yes"/>
      <point x="488" y="1170"/>
      <point x="568" y="1109"/>
    </contour>
  </outline>
</glyph>
<glyph name="Ga.te" format="2">
  <advance width="1626"/>
  <unicode hex="0C17"/>
  <anchor x="808" y="-71" name="bottom"/>
  <outline>
    <contour>
      <point x="347" y="0" type="curve"/>
      <point x="394" y="0" type="line"/>
      <point x="269" y="153"/>
      <point x="204" y="331"/>
      <point x="204" y="518" type="curve" smooth="yes"/>
      <point x="204" y="532" type="line" smooth="yes"/>
      <point x="204" y="910"/>
      <point x="411" y="1102"/>
      <point x="813" y="1102" type="curve" smooth="yes"/>
      <point x="1215" y="1102"/>
      <point x="1422" y="910"/>
      <point x="1422" y="532" type="curve" smooth="yes"/>
      <point x="1422" y="518" type="line" smooth="yes"/>
      <point x="1422" y="332"/>
      <point x="1357" y="153"/>
      <point x="1232" y="0" type="curve"/>
      <point x="1279" y="0" type="line"/>
      <point x="1403" y="168"/>
      <point x="1461" y="329"/>
      <point x="1461" y="518" type="curve" smooth="yes"/>
      <point x="1461" y="532" type="line" smooth="yes"/>
      <point x="1461" y="931"/>
      <point x="1240" y="1134"/>
      <point x="813" y="1134" type="curve" smooth="yes"/>
      <point x="386" y="1134"/>
      <point x="165" y="931"/>
      <point x="165" y="532" type="curve" smooth="yes"/>
      <point x="165" y="518" type="line" smooth="yes"/>
      <point x="165" y="333"/>
      <point x="220" y="172"/>
    </contour>
    <contour>
      <point x="783" y="1109" type="curve"/>
      <point x="797" y="1109" type="line"/>
      <point x="952" y="1109"/>
      <point x="1034" y="1164"/>
      <point x="1144" y="1274" type="curve" smooth="yes"/>
      <point x="1355" y="1485" type="line" smooth="yes"/>
      <point x="1471" y="1601"/>
      <point x="1538" y="1609"/>
      <point x="1614" y="1609" type="curve" smooth="yes"/>
      <point x="1630" y="1609" type="line"/>
      <point x="1627" y="1645" type="line"/>
      <point x="1611" y="1645" type="line" smooth="yes"/>
      <point x="1487" y="1645"/>
      <point x="1420" y="1601"/>
      <point x="1327" y="1509" type="curve" smooth="yes"/>
      <point x="1112" y="1296" type="line" smooth="yes"/>
      <point x="1011" y="1196"/>
      <point x="922" y="1136"/>
      <point x="797" y="1136" type="curve"/>
      <point x="783" y="1136" type="line"/>
      <point x="634" y="1136"/>
      <point x="549" y="1209"/>
      <point x="487" y="1299" type="curve" smooth="yes"/>
      <point x="392" y="1438" type="line"/>
      <point x="346" y="1438" type="line"/>
      <point x="461" y="1274" type="line" smooth="yes"/>
      <point x="537" y="1166"/>
      <point x="617" y="1109"/>
    </contour>
  </outline>
</glyph>
<glyph name="Nga.te" format="2">
  <advance width="2014"/>
  <unicode hex="0C19"/>
  <anchor x="1013" y="-71" name="bottom"/>
  <outline>
    <contour>
      <point x="559" y="-22" type="curve" smooth="yes"/>
      <point x="836" y="-22"/>
      <point x="995" y="108"/>
      <point x="1011" y="356" type="curve"/>
      <point x="1014" y="356" type="line"/>
      <point x="1029" y="108"/>
      <point x="1177" y="-22"/>
      <point x="1450" y="-22" type="curve" smooth="yes"/>
      <point x="1716" y="-22"/>
      <point x="1859" y="100"/>
      <point x="1859" y="326" type="curve" smooth="yes"/>
      <point x="1859" y="328" type="line" smooth="yes"/>
      <point x="1859" y="400"/>
      <point x="1842" y="471"/>
      <point x="1817" y="520" type="curve"/>
      <point x="1776" y="520" type="line"/>
      <point x="1808" y="463"/>
      <point x="1820" y="390"/>
      <point x="1820" y="329" type="curve" smooth="yes"/>
      <point x="1820" y="328" type="line" smooth="yes"/>
      <point x="1820" y="123"/>
      <point x="1693" y="14"/>
      <point x="1449" y="14" type="curve" smooth="yes"/>
      <point x="1192" y="14"/>
      <point x="1051" y="141"/>
      <point x="1036" y="402" type="curve" smooth="yes"/>
      <point x="1034" y="436" type="line"/>
      <point x="991" y="436" type="line"/>
      <point x="989" y="402" type="line" smooth="yes"/>
      <point x="974" y="141"/>
      <point x="823" y="14"/>
      <point x="561" y="14" type="curve" smooth="yes"/>
      <point x="320" y="14"/>
      <point x="189" y="101"/>
      <point x="189" y="258" type="curve" smooth="yes"/>
      <point x="189" y="262" type="line" smooth="yes"/>
      <point x="189" y="408"/>
      <point x="259" y="478"/>
      <point x="582" y="577" type="curve" smooth="yes"/>
      <point x="883" y="670"/>
      <point x="970" y="739"/>
      <point x="970" y="881" type="curve" smooth="yes"/>
      <point x="970" y="883" type="line" smooth="yes"/>
      <point x="970" y="1048"/>
      <point x="826" y="1148"/>
      <point x="572" y="1148" type="curve" smooth="yes"/>
      <point x="310" y="1148"/>
      <point x="163" y="1043"/>
      <point x="163" y="856" type="curve" smooth="yes"/>
      <point x="163" y="854" type="line" smooth="yes"/>
      <point x="163" y="792"/>
      <point x="181" y="734"/>
      <point x="211" y="671" type="curve"/>
      <point x="254" y="671" type="line"/>
      <point x="221" y="733"/>
      <point x="203" y="793"/>
      <point x="203" y="853" type="curve" smooth="yes"/>
      <point x="203" y="854" type="line" smooth="yes"/>
      <point x="203" y="1022"/>
      <point x="335" y="1113"/>
      <point x="572" y="1113" type="curve" smooth="yes"/>
      <point x="803" y="1113"/>
      <point x="931" y="1025"/>
      <point x="931" y="883" type="curve" smooth="yes"/>
      <point x="931" y="881" type="line" smooth="yes"/>
      <point x="931" y="752"/>
      <point x="850" y="694"/>
      <point x="555" y="603" type="curve" smooth="yes"/>
      <point x="264" y="513"/>
      <point x="150" y="442"/>
      <point x="150" y="262" type="curve" smooth="yes"/>
      <point x="150" y="258" type="line" smooth="yes"/>
      <point x="150" y="77"/>
      <point x="296" y="-22"/>
    </contour>
    <contour>
      <point x="920" y="762" type="line"/>
      <point x="1812" y="762" type="line"/>
      <point x="1812" y="796" type="line"/>
      <point x="920" y="796" type="line"/>
    </contour>
    <contour>
      <point x="1367" y="783" type="curve"/>
      <point x="1391" y="783" type="line"/>
      <point x="1404" y="879"/>
      <point x="1411" y="944"/>
      <point x="1411" y="1027" type="curve" smooth="yes"/>
      <point x="1411" y="1088"/>
      <point x="1402" y="1127"/>
      <point x="1397" y="1146" type="curve"/>
      <point x="1361" y="1146" type="line"/>
      <point x="1356" y="1127"/>
      <point x="1346" y="1090"/>
      <point x="1346" y="1027" type="curve" smooth="yes"/>
      <point x="1346" y="941"/>
      <point x="1354" y="879"/>
    </contour>
  </outline>
</glyph>
<glyph name="Ca.te" format="2">
  <advance width="2050"/>
  <unicode hex="0C1A"/>
  <anchor x="1042" y="-71" name="bottom"/>
  <outline>
    <contour>
      <point x="613" y="-22" type="curve" smooth="yes"/>
      <point x="873" y="-22"/>
      <point x="1025" y="109"/>
      <point x="1041" y="356" type="curve"/>
      <point x="1044" y="356" type="line"/>
      <point x="1058" y="109"/>
      <point x="1198" y="-22"/>
      <point x="1441" y="-22" type="curve" smooth="yes"/>
      <point x="1732" y="-22"/>
      <point x="1885" y="138"/>
      <point x="1885" y="443" type="curve" smooth="yes"/>
      <point x="1885" y="456" type="line" smooth="yes"/>
      <point x="1885" y="908"/>
      <point x="1607" y="1134"/>
      <point x="1041" y="1134" type="curve"/>
      <point x="983" y="1123" type="line"/>
      <point x="992" y="1100" type="line"/>
      <point x="1041" y="1100" type="line" smooth="yes"/>
      <point x="1583" y="1100"/>
      <point x="1846" y="888"/>
      <point x="1846" y="456" type="curve" smooth="yes"/>
      <point x="1846" y="443" type="line" smooth="yes"/>
      <point x="1846" y="160"/>
      <point x="1708" y="14"/>
      <point x="1440" y="14" type="curve" smooth="yes"/>
      <point x="1208" y="14"/>
      <point x="1081" y="141"/>
      <point x="1066" y="402" type="curve" smooth="yes"/>
      <point x="1064" y="436" type="line"/>
      <point x="1020" y="436" type="line"/>
      <point x="1018" y="402" type="line" smooth="yes"/>
      <point x="1003" y="141"/>
      <point x="861" y="14"/>
      <point x="615" y="14" type="curve" smooth="yes"/>
      <point x="371" y="14"/>
      <point x="238" y="121"/>
      <point x="238" y="319" type="curve" smooth="yes"/>
      <point x="238" y="324" type="line" smooth="yes"/>
      <point x="238" y="457"/>
      <point x="287" y="597"/>
      <point x="576" y="678" type="curve"/>
      <point x="702" y="684" type="line"/>
      <point x="702" y="714" type="line"/>
      <point x="85" y="717" type="line"/>
      <point x="85" y="678" type="line"/>
      <point x="494" y="680" type="line"/>
      <point x="494" y="678" type="line"/>
      <point x="294" y="618"/>
      <point x="199" y="500"/>
      <point x="199" y="324" type="curve" smooth="yes"/>
      <point x="199" y="319" type="line" smooth="yes"/>
      <point x="199" y="97"/>
      <point x="346" y="-22"/>
    </contour>
    <contour>
      <point x="992" y="1100" type="curve"/>
      <point x="999" y="1111" type="line"/>
      <point x="1166" y="1111"/>
      <point x="1248" y="1174"/>
      <point x="1348" y="1274" type="curve" smooth="yes"/>
      <point x="1559" y="1485" type="line" smooth="yes"/>
      <point x="1675" y="1601"/>
      <point x="1742" y="1609"/>
      <point x="1817" y="1609" type="curve" smooth="yes"/>
      <point x="1834" y="1609" type="line"/>
      <point x="1831" y="1645" type="line"/>
      <point x="1815" y="1645" type="line" smooth="yes"/>
      <point x="1702" y="1645"/>
      <point x="1635" y="1612"/>
      <point x="1531" y="1509" type="curve" smooth="yes"/>
      <point x="1316" y="1296" type="line" smooth="yes"/>
      <point x="1221" y="1202"/>
      <point x="1129" y="1136"/>
      <point x="1001" y="1136" type="curve"/>
      <point x="987" y="1136" type="line"/>
      <point x="837" y="1136"/>
      <point x="751" y="1209"/>
      <point x="690" y="1299" type="curve" smooth="yes"/>
      <point x="596" y="1438" type="line"/>
      <point x="549" y="1438" type="line"/>
      <point x="665" y="1274" type="line" smooth="yes"/>
      <point x="739" y="1169"/>
      <point x="828" y="1100"/>
    </contour>
  </outline>
</glyph>
<glyph name="Ja.te" format="2">
  <advance width="2014"/>
  <unicode hex="0C1C"/>
  <anchor x="1017" y="-71" name="bottom"/>
  <outline>
    <contour>
      <point x="559" y="-22" type="curve" smooth="yes"/>
      <point x="836" y="-22"/>
      <point x="995" y="108"/>
      <point x="1011" y="356" type="curve"/>
      <point x="1014" y="356" type="line"/>
      <point x="1029" y="108"/>
      <point x="1177" y="-22"/>
      <point x="1450" y="-22" type="curve" smooth="yes"/>
      <point x="1716" y="-22"/>
      <point x="1859" y="100"/>
      <point x="1859" y="326" type="curve" smooth="yes"/>
      <point x="1859" y="328" type="line" smooth="yes"/>
      <point x="1859" y="400"/>
      <point x="1842" y="471"/>
      <point x="1817" y="520" type="curve"/>
      <point x="1776" y="520" type="line"/>
      <point x="1808" y="463"/>
      <point x="1820" y="391"/>
      <point x="1820" y="329" type="curve" smooth="yes"/>
      <point x="1820" y="328" type="line" smooth="yes"/>
      <point x="1820" y="123"/>
      <point x="1693" y="14"/>
      <point x="1449" y="14" type="curve" smooth="yes"/>
      <point x="1192" y="14"/>
      <point x="1051" y="141"/>
      <point x="1036" y="402" type="curve" smooth="yes"/>
      <point x="1034" y="436" type="line"/>
      <point x="991" y="436" type="line"/>
      <point x="989" y="402" type="line" smooth="yes"/>
      <point x="974" y="141"/>
      <point x="823" y="14"/>
      <point x="561" y="14" type="curve" smooth="yes"/>
      <point x="321" y="14"/>
      <point x="190" y="101"/>
      <point x="190" y="258" type="curve"/>
      <point x="190" y="262" type="line"/>
      <point x="190" y="427"/>
      <point x="299" y="490"/>
      <point x="582" y="577" type="curve" smooth="yes"/>
      <point x="882" y="670"/>
      <point x="970" y="738"/>
      <point x="970" y="881" type="curve" smooth="yes"/>
      <point x="970" y="883" type="line" smooth="yes"/>
      <point x="970" y="1048"/>
      <point x="826" y="1148"/>
      <point x="572" y="1148" type="curve" smooth="yes"/>
      <point x="310" y="1148"/>
      <point x="163" y="1043"/>
      <point x="163" y="856" type="curve" smooth="yes"/>
      <point x="163" y="854" type="line" smooth="yes"/>
      <point x="163" y="792"/>
      <point x="181" y="734"/>
      <point x="211" y="671" type="curve"/>
      <point x="254" y="671" type="line"/>
      <point x="221" y="733"/>
      <point x="203" y="793"/>
      <point x="203" y="853" type="curve" smooth="yes"/>
      <point x="203" y="854" type="line" smooth="yes"/>
      <point x="203" y="1022"/>
      <point x="335" y="1113"/>
      <point x="572" y="1113" type="curve" smooth="yes"/>
      <point x="803" y="1113"/>
      <point x="931" y="1025"/>
      <point x="931" y="883" type="curve" smooth="yes"/>
      <point x="931" y="881" type="line" smooth="yes"/>
      <point x="931" y="752"/>
      <point x="850" y="694"/>
      <point x="555" y="603" type="curve" smooth="yes"/>
      <point x="290" y="522"/>
      <point x="150" y="453"/>
      <point x="150" y="262" type="curve"/>
      <point x="150" y="258" type="line"/>
      <point x="150" y="77"/>
      <point x="296" y="-22"/>
    </contour>
    <contour>
      <point x="1443" y="664" type="curve" smooth="yes"/>
      <point x="1687" y="664"/>
      <point x="1828" y="765"/>
      <point x="1828" y="938" type="curve" smooth="yes"/>
      <point x="1828" y="940" type="line" smooth="yes"/>
      <point x="1828" y="1027"/>
      <point x="1798" y="1087"/>
      <point x="1748" y="1136" type="curve"/>
      <point x="1697" y="1136" type="line"/>
      <point x="1773" y="1072"/>
      <point x="1789" y="1006"/>
      <point x="1789" y="940" type="curve" smooth="yes"/>
      <point x="1789" y="938" type="line" smooth="yes"/>
      <point x="1789" y="786"/>
      <point x="1662" y="700"/>
      <point x="1440" y="700" type="curve" smooth="yes"/>
      <point x="1222" y="700"/>
      <point x="1036" y="767"/>
      <point x="951" y="977" type="curve"/>
      <point x="930" y="956" type="line"/>
      <point x="1003" y="760"/>
      <point x="1180" y="664"/>
    </contour>
  </outline>
</glyph>
<glyph name="Jha.te" format="2">
  <advance width="3465"/>
  <unicode hex="0C1D"/>
  <anchor x="1731" y="-189" name="bottom"/>
  <outline>
    <contour>
      <point x="830" y="-27" type="curve" smooth="yes"/>
      <point x="1189" y="-27"/>
      <point x="1406" y="110"/>
      <point x="1469" y="374" type="curve" smooth="yes"/>
      <point x="1480" y="420"/>
      <point x="1496" y="483"/>
      <point x="1496" y="550" type="curve" smooth="yes"/>
      <point x="1496" y="562" type="line" smooth="yes"/>
      <point x="1496" y="935"/>
      <point x="1267" y="1134"/>
      <point x="830" y="1134" type="curve" smooth="yes"/>
      <point x="395" y="1134"/>
      <point x="165" y="935"/>
      <point x="165" y="562" type="curve" smooth="yes"/>
      <point x="165" y="550" type="line" smooth="yes"/>
      <point x="165" y="171"/>
      <point x="395" y="-27"/>
    </contour>
    <contour>
      <point x="830" y="9" type="curve" smooth="yes"/>
      <point x="421" y="9"/>
      <point x="204" y="194"/>
      <point x="204" y="550" type="curve" smooth="yes"/>
      <point x="204" y="562" type="line" smooth="yes"/>
      <point x="204" y="913"/>
      <point x="421" y="1100"/>
      <point x="830" y="1100" type="curve" smooth="yes"/>
      <point x="1240" y="1100"/>
      <point x="1457" y="913"/>
      <point x="1457" y="562" type="curve" smooth="yes"/>
      <point x="1457" y="550" type="line" smooth="yes"/>
      <point x="1457" y="194"/>
      <point x="1240" y="9"/>
    </contour>
    <contour>
      <point x="1921" y="-21" type="curve" smooth="yes"/>
      <point x="2180" y="-21"/>
      <point x="2339" y="107"/>
      <point x="2379" y="356" type="curve"/>
      <point x="2392" y="404"/>
      <point x="2397" y="449"/>
      <point x="2397" y="504" type="curve"/>
      <point x="2397" y="507" type="line"/>
      <point x="2358" y="507" type="line"/>
      <point x="2358" y="504" type="line"/>
      <point x="2358" y="180"/>
      <point x="2211" y="14"/>
      <point x="1919" y="14" type="curve" smooth="yes"/>
      <point x="1656" y="14"/>
      <point x="1493" y="141"/>
      <point x="1493" y="402" type="curve" smooth="yes"/>
      <point x="1493" y="554" type="line"/>
      <point x="1465" y="554" type="line"/>
      <point x="1465" y="370" type="line" smooth="yes"/>
      <point x="1465" y="116"/>
      <point x="1640" y="-21"/>
    </contour>
    <contour>
      <point x="814" y="1109" type="curve"/>
      <point x="829" y="1109" type="line"/>
      <point x="992" y="1109"/>
      <point x="1074" y="1174"/>
      <point x="1175" y="1274" type="curve" smooth="yes"/>
      <point x="1387" y="1485" type="line" smooth="yes"/>
      <point x="1488" y="1586"/>
      <point x="1551" y="1609"/>
      <point x="1646" y="1609" type="curve" smooth="yes"/>
      <point x="1662" y="1609" type="line"/>
      <point x="1658" y="1645" type="line"/>
      <point x="1642" y="1645" type="line" smooth="yes"/>
      <point x="1527" y="1645"/>
      <point x="1457" y="1608"/>
      <point x="1358" y="1509" type="curve" smooth="yes"/>
      <point x="1143" y="1296" type="line" smooth="yes"/>
      <point x="1042" y="1196"/>
      <point x="952" y="1136"/>
      <point x="829" y="1136" type="curve"/>
      <point x="814" y="1136" type="line"/>
      <point x="666" y="1136"/>
      <point x="581" y="1210"/>
      <point x="519" y="1299" type="curve" smooth="yes"/>
      <point x="423" y="1438" type="line"/>
      <point x="377" y="1438" type="line"/>
      <point x="492" y="1274" type="line" smooth="yes"/>
      <point x="568" y="1165"/>
      <point x="649" y="1109"/>
    </contour>
    <component base="kombu_1" xOffset="2367" yOffset="-36"/>
    <component base="matraU.te" xOffset="2493"/>
    <component base="Terminals.te" xOffset="1723"/>
  </outline>
</glyph>
<glyph name="Nya.te" format="2">
  <advance width="2464"/>
  <unicode hex="0C1E"/>
  <anchor x="979" y="-71" name="bottom"/>
  <outline>
    <contour>
      <point x="2025" y="701" type="curve"/>
      <point x="2050" y="701" type="line"/>
      <point x="2063" y="829"/>
      <point x="2070" y="917"/>
      <point x="2070" y="997" type="curve" smooth="yes"/>
      <point x="2070" y="1065"/>
      <point x="2061" y="1113"/>
      <point x="2055" y="1136" type="curve"/>
      <point x="2020" y="1136" type="line"/>
      <point x="2013" y="1113"/>
      <point x="2005" y="1062"/>
      <point x="2005" y="997" type="curve" smooth="yes"/>
      <point x="2005" y="924"/>
      <point x="2012" y="829"/>
    </contour>
    <contour>
      <point x="1697" y="680" type="line"/>
      <point x="2389" y="680" type="line"/>
      <point x="2389" y="714" type="line"/>
      <point x="1697" y="714" type="line"/>
    </contour>
    <component base="vowelI.te"/>
  </outline>
</glyph>
<glyph name="Tta.te" format="2">
  <advance width="2095"/>
  <unicode hex="0C1F"/>
  <anchor x="1065" y="-71" name="bottom"/>
  <outline>
    <contour>
      <point x="646" y="-22" type="curve" smooth="yes"/>
      <point x="902" y="-22"/>
      <point x="1047" y="109"/>
      <point x="1062" y="356" type="curve"/>
      <point x="1065" y="356" type="line"/>
      <point x="1080" y="109"/>
      <point x="1225" y="-22"/>
      <point x="1484" y="-22" type="curve" smooth="yes"/>
      <point x="1777" y="-22"/>
      <point x="1930" y="157"/>
      <point x="1930" y="504" type="curve"/>
      <point x="1930" y="507" type="line"/>
      <point x="1891" y="507" type="line"/>
      <point x="1891" y="504" type="line"/>
      <point x="1891" y="180"/>
      <point x="1753" y="14"/>
      <point x="1482" y="14" type="curve" smooth="yes"/>
      <point x="1239" y="14"/>
      <point x="1102" y="141"/>
      <point x="1087" y="402" type="curve" smooth="yes"/>
      <point x="1085" y="436" type="line"/>
      <point x="1042" y="436" type="line"/>
      <point x="1040" y="402" type="line" smooth="yes"/>
      <point x="1025" y="141"/>
      <point x="888" y="14"/>
      <point x="647" y="14" type="curve" smooth="yes"/>
      <point x="312" y="14"/>
      <point x="204" y="241"/>
      <point x="204" y="582" type="curve" smooth="yes"/>
      <point x="204" y="611" type="line" smooth="yes"/>
      <point x="204" y="648"/>
      <point x="206" y="678"/>
      <point x="210" y="721" type="curve"/>
      <point x="213" y="721" type="line"/>
      <point x="211" y="724" type="line"/>
      <point x="211" y="728" type="line"/>
      <point x="243" y="967"/>
      <point x="371" y="1113"/>
      <point x="613" y="1113" type="curve" smooth="yes"/>
      <point x="834" y="1113"/>
      <point x="958" y="1011"/>
      <point x="958" y="826" type="curve" smooth="yes"/>
      <point x="958" y="822" type="line" smooth="yes"/>
      <point x="958" y="644"/>
      <point x="840" y="548"/>
      <point x="625" y="548" type="curve" smooth="yes"/>
      <point x="427" y="548"/>
      <point x="289" y="621"/>
      <point x="203" y="781" type="curve"/>
      <point x="197" y="735" type="line"/>
      <point x="279" y="591"/>
      <point x="419" y="513"/>
      <point x="625" y="513" type="curve" smooth="yes"/>
      <point x="862" y="513"/>
      <point x="997" y="621"/>
      <point x="997" y="822" type="curve" smooth="yes"/>
      <point x="997" y="826" type="line" smooth="yes"/>
      <point x="997" y="1032"/>
      <point x="857" y="1148"/>
      <point x="613" y="1148" type="curve" smooth="yes"/>
      <point x="344" y="1148"/>
      <point x="165" y="983"/>
      <point x="165" y="612" type="curve" smooth="yes"/>
      <point x="165" y="580" type="line" smooth="yes"/>
      <point x="165" y="172"/>
      <point x="327" y="-22"/>
    </contour>
    <contour>
      <point x="602" y="1121" type="curve"/>
      <point x="627" y="1121" type="line"/>
      <point x="641" y="1232"/>
      <point x="650" y="1304"/>
      <point x="650" y="1377" type="curve" smooth="yes"/>
      <point x="650" y="1426"/>
      <point x="639" y="1457"/>
      <point x="634" y="1473" type="curve"/>
      <point x="595" y="1473" type="line"/>
      <point x="589" y="1457"/>
      <point x="578" y="1426"/>
      <point x="578" y="1377" type="curve" smooth="yes"/>
      <point x="578" y="1303"/>
      <point x="588" y="1232"/>
    </contour>
    <component base="Terminals.te" xOffset="1256"/>
  </outline>
</glyph>
<glyph name="Ttha.te" format="2">
  <advance width="1698"/>
  <unicode hex="0C20"/>
  <guideline x="2699" y="3212" angle="90"/>
  <anchor x="849" y="-71" name="bottom"/>
  <outline>
    <contour>
      <point x="849" y="-27" type="curve" smooth="yes"/>
      <point x="1298" y="-27"/>
      <point x="1533" y="171"/>
      <point x="1533" y="550" type="curve" smooth="yes"/>
      <point x="1533" y="562" type="line" smooth="yes"/>
      <point x="1533" y="935"/>
      <point x="1298" y="1134"/>
      <point x="849" y="1134" type="curve" smooth="yes"/>
      <point x="400" y="1134"/>
      <point x="165" y="935"/>
      <point x="165" y="562" type="curve" smooth="yes"/>
      <point x="165" y="550" type="line" smooth="yes"/>
      <point x="165" y="171"/>
      <point x="400" y="-27"/>
    </contour>
    <contour>
      <point x="849" y="9" type="curve" smooth="yes"/>
      <point x="427" y="9"/>
      <point x="204" y="194"/>
      <point x="204" y="550" type="curve" smooth="yes"/>
      <point x="204" y="562" type="line" smooth="yes"/>
      <point x="204" y="913"/>
      <point x="427" y="1100"/>
      <point x="849" y="1100" type="curve" smooth="yes"/>
      <point x="1272" y="1100"/>
      <point x="1494" y="913"/>
      <point x="1494" y="562" type="curve" smooth="yes"/>
      <point x="1494" y="550" type="line" smooth="yes"/>
      <point x="1494" y="194"/>
      <point x="1272" y="9"/>
    </contour>
    <contour>
      <point x="833" y="1109" type="curve"/>
      <point x="847" y="1109" type="line"/>
      <point x="1002" y="1109"/>
      <point x="1084" y="1165"/>
      <point x="1193" y="1274" type="curve" smooth="yes"/>
      <point x="1404" y="1485" type="line" smooth="yes"/>
      <point x="1506" y="1587"/>
      <point x="1569" y="1609"/>
      <point x="1663" y="1609" type="curve" smooth="yes"/>
      <point x="1679" y="1609" type="line"/>
      <point x="1676" y="1645" type="line"/>
      <point x="1660" y="1645" type="line" smooth="yes"/>
      <point x="1548" y="1645"/>
      <point x="1480" y="1613"/>
      <point x="1376" y="1509" type="curve" smooth="yes"/>
      <point x="1162" y="1296" type="line" smooth="yes"/>
      <point x="1059" y="1194"/>
      <point x="969" y="1136"/>
      <point x="847" y="1136" type="curve"/>
      <point x="833" y="1136" type="line"/>
      <point x="696" y="1136"/>
      <point x="607" y="1198"/>
      <point x="537" y="1299" type="curve" smooth="yes"/>
      <point x="441" y="1438" type="line"/>
      <point x="395" y="1438" type="line"/>
      <point x="511" y="1274" type="line" smooth="yes"/>
      <point x="584" y="1170"/>
      <point x="664" y="1109"/>
    </contour>
    <component base="chukka" xOffset="849" yOffset="-117"/>
  </outline>
</glyph>
<glyph name="Ta.te" format="2">
  <advance width="2056"/>
  <unicode hex="0C24"/>
  <anchor x="1028" y="-71" name="bottom"/>
  <outline>
    <contour>
      <point x="1028" y="-27" type="curve" smooth="yes"/>
      <point x="1604" y="-27"/>
      <point x="1901" y="174"/>
      <point x="1901" y="567" type="curve" smooth="yes"/>
      <point x="1901" y="574" type="line" smooth="yes"/>
      <point x="1901" y="681"/>
      <point x="1858" y="776"/>
      <point x="1792" y="833" type="curve"/>
      <point x="1779" y="845" type="line"/>
      <point x="1712" y="900"/>
      <point x="1618" y="931"/>
      <point x="1502" y="931" type="curve" smooth="yes"/>
      <point x="1269" y="931"/>
      <point x="1144" y="826"/>
      <point x="1144" y="643" type="curve" smooth="yes"/>
      <point x="1144" y="639" type="line" smooth="yes"/>
      <point x="1144" y="461"/>
      <point x="1267" y="363"/>
      <point x="1488" y="363" type="curve" smooth="yes"/>
      <point x="1678" y="363"/>
      <point x="1810" y="431"/>
      <point x="1883" y="580" type="curve"/>
      <point x="1878" y="625" type="line"/>
      <point x="1801" y="461"/>
      <point x="1670" y="399"/>
      <point x="1488" y="399" type="curve" smooth="yes"/>
      <point x="1290" y="399"/>
      <point x="1183" y="484"/>
      <point x="1183" y="639" type="curve" smooth="yes"/>
      <point x="1183" y="643" type="line" smooth="yes"/>
      <point x="1183" y="805"/>
      <point x="1292" y="895"/>
      <point x="1501" y="895" type="curve" smooth="yes"/>
      <point x="1722" y="895"/>
      <point x="1860" y="773"/>
      <point x="1863" y="579" type="curve"/>
      <point x="1863" y="575" type="line"/>
      <point x="1858" y="568" type="line"/>
      <point x="1863" y="568" type="line"/>
      <point x="1863" y="564" type="line"/>
      <point x="1863" y="196"/>
      <point x="1580" y="9"/>
      <point x="1028" y="9" type="curve" smooth="yes"/>
      <point x="476" y="9"/>
      <point x="193" y="196"/>
      <point x="193" y="564" type="curve"/>
      <point x="193" y="568" type="line"/>
      <point x="197" y="568" type="line"/>
      <point x="193" y="575" type="line"/>
      <point x="193" y="579" type="line"/>
      <point x="196" y="773"/>
      <point x="333" y="895"/>
      <point x="554" y="895" type="curve" smooth="yes"/>
      <point x="764" y="895"/>
      <point x="873" y="805"/>
      <point x="873" y="643" type="curve" smooth="yes"/>
      <point x="873" y="639" type="line" smooth="yes"/>
      <point x="873" y="484"/>
      <point x="766" y="399"/>
      <point x="568" y="399" type="curve" smooth="yes"/>
      <point x="387" y="399"/>
      <point x="255" y="461"/>
      <point x="178" y="625" type="curve"/>
      <point x="172" y="580" type="line"/>
      <point x="246" y="431"/>
      <point x="378" y="363"/>
      <point x="567" y="363" type="curve" smooth="yes"/>
      <point x="789" y="363"/>
      <point x="912" y="461"/>
      <point x="912" y="639" type="curve" smooth="yes"/>
      <point x="912" y="643" type="line" smooth="yes"/>
      <point x="912" y="826"/>
      <point x="787" y="931"/>
      <point x="554" y="931" type="curve" smooth="yes"/>
      <point x="304" y="931"/>
      <point x="155" y="792"/>
      <point x="155" y="574" type="curve" smooth="yes"/>
      <point x="155" y="567" type="line" smooth="yes"/>
      <point x="155" y="174"/>
      <point x="453" y="-27"/>
    </contour>
    <contour>
      <point x="1770" y="812" type="line"/>
      <point x="1805" y="812" type="line"/>
      <point x="1805" y="817" type="line" smooth="yes"/>
      <point x="1805" y="1029"/>
      <point x="1684" y="1136"/>
      <point x="1395" y="1136" type="curve" smooth="yes"/>
      <point x="1146" y="1136" type="line"/>
      <point x="1064" y="1120" type="line"/>
      <point x="1057" y="1100" type="line"/>
      <point x="1391" y="1100" type="line" smooth="yes"/>
      <point x="1652" y="1100"/>
      <point x="1770" y="1008"/>
      <point x="1770" y="819" type="curve" smooth="yes"/>
    </contour>
    <contour>
      <point x="614" y="1438" type="line"/>
      <point x="729" y="1274" type="line" smooth="yes"/>
      <point x="803" y="1169"/>
      <point x="895" y="1100"/>
      <point x="1057" y="1100" type="curve"/>
      <point x="1066" y="1109" type="line"/>
      <point x="1220" y="1109"/>
      <point x="1303" y="1165"/>
      <point x="1412" y="1274" type="curve" smooth="yes"/>
      <point x="1624" y="1485" type="line" smooth="yes"/>
      <point x="1725" y="1586"/>
      <point x="1789" y="1609"/>
      <point x="1883" y="1609" type="curve" smooth="yes"/>
      <point x="1899" y="1609" type="line"/>
      <point x="1896" y="1645" type="line"/>
      <point x="1880" y="1645" type="line" smooth="yes"/>
      <point x="1756" y="1645"/>
      <point x="1689" y="1601"/>
      <point x="1596" y="1509" type="curve" smooth="yes"/>
      <point x="1381" y="1296" type="line" smooth="yes"/>
      <point x="1264" y="1180"/>
      <point x="1174" y="1136"/>
      <point x="1067" y="1136" type="curve" smooth="yes"/>
      <point x="1052" y="1136" type="line" smooth="yes"/>
      <point x="915" y="1136"/>
      <point x="825" y="1198"/>
      <point x="756" y="1299" type="curve" smooth="yes"/>
      <point x="661" y="1438" type="line"/>
    </contour>
  </outline>
</glyph>
<glyph name="Da.te" format="2">
  <advance width="2018"/>
  <unicode hex="0C26"/>
  <anchor x="1009" y="-71" name="bottom"/>
  <outline>
    <contour>
      <point x="609" y="-21" type="curve" smooth="yes"/>
      <point x="855" y="-21"/>
      <point x="993" y="110"/>
      <point x="1008" y="356" type="curve"/>
      <point x="1011" y="356" type="line"/>
      <point x="1025" y="110"/>
      <point x="1164" y="-21"/>
      <point x="1409" y="-21" type="curve" smooth="yes"/>
      <point x="1701" y="-21"/>
      <point x="1853" y="140"/>
      <point x="1853" y="443" type="curve" smooth="yes"/>
      <point x="1853" y="456" type="line" smooth="yes"/>
      <point x="1853" y="910"/>
      <point x="1574" y="1137"/>
      <point x="1009" y="1137" type="curve" smooth="yes"/>
      <point x="445" y="1137"/>
      <point x="165" y="910"/>
      <point x="165" y="456" type="curve" smooth="yes"/>
      <point x="165" y="443" type="line" smooth="yes"/>
      <point x="165" y="139"/>
      <point x="318" y="-21"/>
    </contour>
    <contour>
      <point x="611" y="14" type="curve" smooth="yes"/>
      <point x="343" y="14"/>
      <point x="204" y="160"/>
      <point x="204" y="443" type="curve" smooth="yes"/>
      <point x="204" y="456" type="line" smooth="yes"/>
      <point x="204" y="890"/>
      <point x="468" y="1104"/>
      <point x="1009" y="1104" type="curve" smooth="yes"/>
      <point x="1551" y="1104"/>
      <point x="1814" y="890"/>
      <point x="1814" y="456" type="curve" smooth="yes"/>
      <point x="1814" y="443" type="line" smooth="yes"/>
      <point x="1814" y="160"/>
      <point x="1676" y="14"/>
      <point x="1408" y="14" type="curve" smooth="yes"/>
      <point x="1181" y="14"/>
      <point x="1049" y="134"/>
      <point x="1033" y="402" type="curve" smooth="yes"/>
      <point x="1031" y="436" type="line"/>
      <point x="988" y="436" type="line"/>
      <point x="986" y="402" type="line" smooth="yes"/>
      <point x="971" y="144"/>
      <point x="846" y="14"/>
    </contour>
    <contour>
      <point x="976" y="1113" type="curve"/>
      <point x="990" y="1113" type="line"/>
      <point x="1148" y="1113"/>
      <point x="1232" y="1173"/>
      <point x="1337" y="1278" type="curve" smooth="yes"/>
      <point x="1548" y="1488" type="line" smooth="yes"/>
      <point x="1650" y="1590"/>
      <point x="1712" y="1613"/>
      <point x="1806" y="1613" type="curve" smooth="yes"/>
      <point x="1823" y="1613" type="line"/>
      <point x="1820" y="1648" type="line"/>
      <point x="1803" y="1648" type="line" smooth="yes"/>
      <point x="1691" y="1648"/>
      <point x="1623" y="1616"/>
      <point x="1520" y="1513" type="curve" smooth="yes"/>
      <point x="1305" y="1299" type="line" smooth="yes"/>
      <point x="1204" y="1198"/>
      <point x="1113" y="1139"/>
      <point x="990" y="1139" type="curve"/>
      <point x="976" y="1139" type="line"/>
      <point x="839" y="1139"/>
      <point x="748" y="1201"/>
      <point x="679" y="1303" type="curve" smooth="yes"/>
      <point x="584" y="1442" type="line"/>
      <point x="538" y="1442" type="line"/>
      <point x="654" y="1278" type="line" smooth="yes"/>
      <point x="727" y="1175"/>
      <point x="805" y="1113"/>
    </contour>
  </outline>
</glyph>
<glyph name="Pa.te" format="2">
  <advance width="1950"/>
  <unicode hex="0C2A"/>
  <anchor x="937" y="-71" name="bottom"/>
  <outline>
    <contour>
      <point x="530" y="-22" type="curve" smooth="yes"/>
      <point x="754" y="-22"/>
      <point x="892" y="77"/>
      <point x="917" y="260" type="curve"/>
      <point x="920" y="260" type="line"/>
      <point x="955" y="76"/>
      <point x="1106" y="-22"/>
      <point x="1334" y="-22" type="curve" smooth="yes"/>
      <point x="1631" y="-22"/>
      <point x="1785" y="157"/>
      <point x="1785" y="500" type="curve" smooth="yes"/>
      <point x="1785" y="509" type="line"/>
      <point x="1746" y="509" type="line"/>
      <point x="1746" y="500" type="line" smooth="yes"/>
      <point x="1746" y="178"/>
      <point x="1607" y="14"/>
      <point x="1333" y="14" type="curve" smooth="yes"/>
      <point x="1106" y="14"/>
      <point x="946" y="122"/>
      <point x="936" y="335" type="curve" smooth="yes"/>
      <point x="935" y="356" type="line" smooth="yes"/>
      <point x="925" y="566"/>
      <point x="792" y="694"/>
      <point x="533" y="694" type="curve" smooth="yes"/>
      <point x="275" y="694"/>
      <point x="130" y="566"/>
      <point x="130" y="340" type="curve" smooth="yes"/>
      <point x="130" y="333" type="line" smooth="yes"/>
      <point x="130" y="106"/>
      <point x="275" y="-22"/>
    </contour>
    <contour>
      <point x="531" y="14" type="curve" smooth="yes"/>
      <point x="297" y="14"/>
      <point x="169" y="128"/>
      <point x="169" y="333" type="curve" smooth="yes"/>
      <point x="169" y="340" type="line" smooth="yes"/>
      <point x="169" y="545"/>
      <point x="297" y="659"/>
      <point x="533" y="659" type="curve" smooth="yes"/>
      <point x="770" y="659"/>
      <point x="897" y="545"/>
      <point x="897" y="342" type="curve" smooth="yes"/>
      <point x="897" y="338" type="line" smooth="yes"/>
      <point x="897" y="130"/>
      <point x="770" y="14"/>
    </contour>
    <contour>
      <point x="603" y="1097" type="curve"/>
      <point x="617" y="1097" type="line" smooth="yes"/>
      <point x="759" y="1097"/>
      <point x="867" y="1178"/>
      <point x="964" y="1275" type="curve" smooth="yes"/>
      <point x="1174" y="1485" type="line" smooth="yes"/>
      <point x="1276" y="1587"/>
      <point x="1339" y="1610"/>
      <point x="1433" y="1610" type="curve" smooth="yes"/>
      <point x="1545" y="1610" type="line"/>
      <point x="1541" y="1645" type="line"/>
      <point x="1430" y="1645" type="line" smooth="yes"/>
      <point x="1315" y="1645"/>
      <point x="1245" y="1608"/>
      <point x="1147" y="1510" type="curve" smooth="yes"/>
      <point x="931" y="1296" type="line" smooth="yes"/>
      <point x="830" y="1196"/>
      <point x="740" y="1133"/>
      <point x="617" y="1133" type="curve"/>
      <point x="603" y="1133" type="line"/>
      <point x="474" y="1133"/>
      <point x="379" y="1193"/>
      <point x="306" y="1300" type="curve" smooth="yes"/>
      <point x="211" y="1439" type="line"/>
      <point x="164" y="1439" type="line"/>
      <point x="280" y="1275" type="line" smooth="yes"/>
      <point x="357" y="1166"/>
      <point x="447" y="1097"/>
    </contour>
    <contour>
      <point x="1746" y="506" type="line"/>
      <point x="1785" y="506" type="line"/>
      <point x="1785" y="513" type="line" smooth="yes"/>
      <point x="1785" y="922"/>
      <point x="1586" y="1136"/>
      <point x="1205" y="1136" type="curve"/>
      <point x="1189" y="1136" type="line"/>
      <point x="1184" y="1100" type="line"/>
      <point x="1195" y="1100" type="line"/>
      <point x="1561" y="1100"/>
      <point x="1746" y="902"/>
      <point x="1746" y="513" type="curve" smooth="yes"/>
    </contour>
  </outline>
</glyph>
<glyph name="Bha.te" format="2">
  <advance width="2042"/>
  <unicode hex="0C2D"/>
  <anchor x="1010" y="-149" name="bottom"/>
  <outline>
    <contour>
      <point x="559" y="-22" type="curve" smooth="yes"/>
      <point x="836" y="-22"/>
      <point x="995" y="109"/>
      <point x="1011" y="356" type="curve"/>
      <point x="1014" y="356" type="line"/>
      <point x="1029" y="109"/>
      <point x="1174" y="-22"/>
      <point x="1433" y="-22" type="curve" smooth="yes"/>
      <point x="1725" y="-22"/>
      <point x="1878" y="157"/>
      <point x="1878" y="504" type="curve" smooth="yes"/>
      <point x="1878" y="507" type="line" smooth="yes"/>
      <point x="1878" y="917"/>
      <point x="1689" y="1130"/>
      <point x="1291" y="1130" type="curve"/>
      <point x="1285" y="1100" type="line"/>
      <point x="1653" y="1100"/>
      <point x="1839" y="902"/>
      <point x="1839" y="507" type="curve" smooth="yes"/>
      <point x="1839" y="504" type="line" smooth="yes"/>
      <point x="1839" y="180"/>
      <point x="1701" y="14"/>
      <point x="1431" y="14" type="curve" smooth="yes"/>
      <point x="1187" y="14"/>
      <point x="1051" y="141"/>
      <point x="1036" y="402" type="curve" smooth="yes"/>
      <point x="1034" y="436" type="line"/>
      <point x="991" y="436" type="line"/>
      <point x="989" y="402" type="line" smooth="yes"/>
      <point x="974" y="141"/>
      <point x="824" y="14"/>
      <point x="561" y="14" type="curve" smooth="yes"/>
      <point x="320" y="14"/>
      <point x="189" y="101"/>
      <point x="189" y="258" type="curve"/>
      <point x="189" y="262" type="line"/>
      <point x="189" y="427"/>
      <point x="298" y="490"/>
      <point x="582" y="577" type="curve" smooth="yes"/>
      <point x="883" y="670"/>
      <point x="970" y="739"/>
      <point x="970" y="881" type="curve" smooth="yes"/>
      <point x="970" y="883" type="line" smooth="yes"/>
      <point x="970" y="1048"/>
      <point x="826" y="1148"/>
      <point x="572" y="1148" type="curve" smooth="yes"/>
      <point x="310" y="1148"/>
      <point x="163" y="1043"/>
      <point x="163" y="856" type="curve" smooth="yes"/>
      <point x="163" y="854" type="line" smooth="yes"/>
      <point x="163" y="792"/>
      <point x="181" y="734"/>
      <point x="211" y="671" type="curve"/>
      <point x="254" y="671" type="line"/>
      <point x="221" y="733"/>
      <point x="203" y="793"/>
      <point x="203" y="853" type="curve" smooth="yes"/>
      <point x="203" y="854" type="line" smooth="yes"/>
      <point x="203" y="1022"/>
      <point x="335" y="1113"/>
      <point x="572" y="1113" type="curve" smooth="yes"/>
      <point x="803" y="1113"/>
      <point x="931" y="1025"/>
      <point x="931" y="883" type="curve" smooth="yes"/>
      <point x="931" y="881" type="line" smooth="yes"/>
      <point x="931" y="752"/>
      <point x="850" y="694"/>
      <point x="555" y="603" type="curve" smooth="yes"/>
      <point x="290" y="522"/>
      <point x="150" y="453"/>
      <point x="150" y="262" type="curve"/>
      <point x="150" y="258" type="line"/>
      <point x="150" y="77"/>
      <point x="296" y="-22"/>
    </contour>
    <contour>
      <point x="1285" y="1100" type="curve"/>
      <point x="1292" y="1111" type="line"/>
      <point x="1441" y="1111"/>
      <point x="1511" y="1180"/>
      <point x="1604" y="1274" type="curve" smooth="yes"/>
      <point x="1813" y="1485" type="line" smooth="yes"/>
      <point x="1922" y="1596"/>
      <point x="1990" y="1609"/>
      <point x="2072" y="1609" type="curve" smooth="yes"/>
      <point x="2090" y="1609" type="line"/>
      <point x="2086" y="1645" type="line"/>
      <point x="2068" y="1645" type="line" smooth="yes"/>
      <point x="1944" y="1645"/>
      <point x="1874" y="1600"/>
      <point x="1781" y="1506" type="curve" smooth="yes"/>
      <point x="1572" y="1296" type="line" smooth="yes"/>
      <point x="1476" y="1200"/>
      <point x="1403" y="1136"/>
      <point x="1294" y="1136" type="curve"/>
      <point x="1282" y="1136" type="line"/>
      <point x="1163" y="1136"/>
      <point x="1094" y="1195"/>
      <point x="1022" y="1298" type="curve" smooth="yes"/>
      <point x="924" y="1438" type="line"/>
      <point x="878" y="1438" type="line"/>
      <point x="995" y="1273" type="line" smooth="yes"/>
      <point x="1076" y="1159"/>
      <point x="1155" y="1100"/>
    </contour>
    <component base="kombu_1" xOffset="1012" yOffset="-36"/>
  </outline>
</glyph>
<glyph name="Ya.te" format="2">
  <advance width="3468"/>
  <unicode hex="0C2F"/>
  <anchor x="1734" y="-71" name="bottom"/>
  <outline>
    <contour>
      <point x="830" y="-23" type="curve" smooth="yes"/>
      <point x="1189" y="-23"/>
      <point x="1407" y="117"/>
      <point x="1469" y="379" type="curve" smooth="yes"/>
      <point x="1481" y="430"/>
      <point x="1496" y="490"/>
      <point x="1496" y="555" type="curve" smooth="yes"/>
      <point x="1496" y="568" type="line" smooth="yes"/>
      <point x="1496" y="947"/>
      <point x="1267" y="1148"/>
      <point x="830" y="1148" type="curve" smooth="yes"/>
      <point x="395" y="1148"/>
      <point x="165" y="947"/>
      <point x="165" y="568" type="curve" smooth="yes"/>
      <point x="165" y="555" type="line" smooth="yes"/>
      <point x="165" y="176"/>
      <point x="395" y="-23"/>
    </contour>
    <contour>
      <point x="830" y="12" type="curve" smooth="yes"/>
      <point x="421" y="12"/>
      <point x="204" y="199"/>
      <point x="204" y="555" type="curve" smooth="yes"/>
      <point x="204" y="568" type="line" smooth="yes"/>
      <point x="204" y="924"/>
      <point x="421" y="1113"/>
      <point x="830" y="1113" type="curve" smooth="yes"/>
      <point x="1240" y="1113"/>
      <point x="1457" y="924"/>
      <point x="1457" y="568" type="curve" smooth="yes"/>
      <point x="1457" y="555" type="line" smooth="yes"/>
      <point x="1457" y="199"/>
      <point x="1240" y="12"/>
    </contour>
    <contour>
      <point x="1924" y="-21" type="curve" smooth="yes"/>
      <point x="2183" y="-21"/>
      <point x="2342" y="107"/>
      <point x="2382" y="356" type="curve"/>
      <point x="2395" y="402"/>
      <point x="2400" y="452"/>
      <point x="2400" y="504" type="curve"/>
      <point x="2400" y="509" type="line" smooth="yes"/>
      <point x="2400" y="920"/>
      <point x="2202" y="1130"/>
      <point x="1799" y="1130" type="curve"/>
      <point x="1793" y="1100" type="line"/>
      <point x="2170" y="1100"/>
      <point x="2361" y="902"/>
      <point x="2361" y="509" type="curve" smooth="yes"/>
      <point x="2361" y="504" type="line" smooth="yes"/>
      <point x="2361" y="180"/>
      <point x="2214" y="14"/>
      <point x="1922" y="14" type="curve" smooth="yes"/>
      <point x="1659" y="14"/>
      <point x="1496" y="141"/>
      <point x="1496" y="402" type="curve" smooth="yes"/>
      <point x="1496" y="550" type="line"/>
      <point x="1468" y="550" type="line"/>
      <point x="1468" y="370" type="line" smooth="yes"/>
      <point x="1468" y="116"/>
      <point x="1643" y="-21"/>
    </contour>
    <contour>
      <point x="1793" y="1100" type="curve"/>
      <point x="1799" y="1111" type="line"/>
      <point x="1955" y="1111"/>
      <point x="2035" y="1172"/>
      <point x="2135" y="1274" type="curve" smooth="yes"/>
      <point x="2342" y="1485" type="line" smooth="yes"/>
      <point x="2448" y="1593"/>
      <point x="2513" y="1609"/>
      <point x="2599" y="1609" type="curve" smooth="yes"/>
      <point x="2617" y="1609" type="line"/>
      <point x="2613" y="1645" type="line"/>
      <point x="2597" y="1645" type="line" smooth="yes"/>
      <point x="2484" y="1645"/>
      <point x="2415" y="1613"/>
      <point x="2313" y="1509" type="curve" smooth="yes"/>
      <point x="2104" y="1296" type="line" smooth="yes"/>
      <point x="2007" y="1197"/>
      <point x="1920" y="1136"/>
      <point x="1802" y="1136" type="curve"/>
      <point x="1789" y="1136" type="line"/>
      <point x="1652" y="1136"/>
      <point x="1568" y="1203"/>
      <point x="1502" y="1299" type="curve" smooth="yes"/>
      <point x="1406" y="1438" type="line"/>
      <point x="1360" y="1438" type="line"/>
      <point x="1476" y="1274" type="line" smooth="yes"/>
      <point x="1557" y="1160"/>
      <point x="1644" y="1100"/>
    </contour>
    <component base="matraU.te" xOffset="2496"/>
  </outline>
</glyph>
<glyph name="Ra.te" format="2">
  <advance width="1698"/>
  <unicode hex="0C30"/>
  <anchor x="849" y="-71" name="bottom"/>
  <outline>
    <contour>
      <point x="849" y="-27" type="curve" smooth="yes"/>
      <point x="1298" y="-27"/>
      <point x="1533" y="171"/>
      <point x="1533" y="550" type="curve" smooth="yes"/>
      <point x="1533" y="562" type="line" smooth="yes"/>
      <point x="1533" y="936"/>
      <point x="1298" y="1134"/>
      <point x="849" y="1134" type="curve" smooth="yes"/>
      <point x="400" y="1134"/>
      <point x="165" y="937"/>
      <point x="165" y="562" type="curve" smooth="yes"/>
      <point x="165" y="550" type="line" smooth="yes"/>
      <point x="165" y="171"/>
      <point x="400" y="-27"/>
    </contour>
    <contour>
      <point x="849" y="9" type="curve" smooth="yes"/>
      <point x="427" y="9"/>
      <point x="204" y="194"/>
      <point x="204" y="550" type="curve" smooth="yes"/>
      <point x="204" y="562" type="line" smooth="yes"/>
      <point x="204" y="915"/>
      <point x="427" y="1100"/>
      <point x="849" y="1100" type="curve" smooth="yes"/>
      <point x="1272" y="1100"/>
      <point x="1494" y="915"/>
      <point x="1494" y="562" type="curve" smooth="yes"/>
      <point x="1494" y="550" type="line" smooth="yes"/>
      <point x="1494" y="194"/>
      <point x="1272" y="9"/>
    </contour>
    <contour>
      <point x="833" y="1109" type="curve"/>
      <point x="847" y="1109" type="line"/>
      <point x="1013" y="1109"/>
      <point x="1097" y="1177"/>
      <point x="1194" y="1274" type="curve" smooth="yes"/>
      <point x="1405" y="1485" type="line" smooth="yes"/>
      <point x="1506" y="1586"/>
      <point x="1569" y="1609"/>
      <point x="1663" y="1609" type="curve" smooth="yes"/>
      <point x="1679" y="1609" type="line"/>
      <point x="1676" y="1645" type="line"/>
      <point x="1660" y="1645" type="line" smooth="yes"/>
      <point x="1548" y="1645"/>
      <point x="1480" y="1613"/>
      <point x="1376" y="1509" type="curve" smooth="yes"/>
      <point x="1162" y="1296" type="line" smooth="yes"/>
      <point x="1059" y="1194"/>
      <point x="969" y="1136"/>
      <point x="847" y="1136" type="curve"/>
      <point x="833" y="1136" type="line"/>
      <point x="696" y="1136"/>
      <point x="607" y="1198"/>
      <point x="537" y="1299" type="curve" smooth="yes"/>
      <point x="441" y="1438" type="line"/>
      <point x="395" y="1438" type="line"/>
      <point x="511" y="1274" type="line" smooth="yes"/>
      <point x="584" y="1170"/>
      <point x="664" y="1109"/>
    </contour>
  </outline>
</glyph>
<glyph name="La.te" format="2">
  <advance width="1936"/>
  <unicode hex="0C32"/>
  <anchor x="980" y="-71" name="bottom"/>
  <outline>
    <contour>
      <point x="980" y="-27" type="curve" smooth="yes"/>
      <point x="1505" y="-27"/>
      <point x="1771" y="187"/>
      <point x="1771" y="607" type="curve" smooth="yes"/>
      <point x="1771" y="618" type="line" smooth="yes"/>
      <point x="1771" y="940"/>
      <point x="1596" y="1136"/>
      <point x="1265" y="1136" type="curve" smooth="yes"/>
      <point x="1249" y="1136" type="line"/>
      <point x="1244" y="1100" type="line"/>
      <point x="1255" y="1100" type="line" smooth="yes"/>
      <point x="1571" y="1100"/>
      <point x="1732" y="918"/>
      <point x="1732" y="618" type="curve" smooth="yes"/>
      <point x="1732" y="607" type="line" smooth="yes"/>
      <point x="1732" y="212"/>
      <point x="1477" y="9"/>
      <point x="980" y="9" type="curve" smooth="yes"/>
      <point x="468" y="9"/>
      <point x="204" y="221"/>
      <point x="204" y="635" type="curve" smooth="yes"/>
      <point x="204" y="653" type="line" smooth="yes"/>
      <point x="204" y="683"/>
      <point x="206" y="712"/>
      <point x="208" y="748" type="curve"/>
      <point x="211" y="748" type="line"/>
      <point x="210" y="751" type="line"/>
      <point x="210" y="755" type="line"/>
      <point x="241" y="977"/>
      <point x="369" y="1113"/>
      <point x="613" y="1113" type="curve" smooth="yes"/>
      <point x="834" y="1113"/>
      <point x="958" y="1009"/>
      <point x="958" y="822" type="curve" smooth="yes"/>
      <point x="958" y="819" type="line" smooth="yes"/>
      <point x="958" y="639"/>
      <point x="840" y="541"/>
      <point x="625" y="541" type="curve" smooth="yes"/>
      <point x="427" y="541"/>
      <point x="289" y="618"/>
      <point x="203" y="781" type="curve"/>
      <point x="197" y="735" type="line"/>
      <point x="279" y="587"/>
      <point x="419" y="506"/>
      <point x="625" y="506" type="curve" smooth="yes"/>
      <point x="862" y="506"/>
      <point x="997" y="616"/>
      <point x="997" y="819" type="curve" smooth="yes"/>
      <point x="997" y="822" type="line" smooth="yes"/>
      <point x="997" y="1031"/>
      <point x="857" y="1148"/>
      <point x="613" y="1148" type="curve" smooth="yes"/>
      <point x="344" y="1148"/>
      <point x="165" y="988"/>
      <point x="165" y="655" type="curve" smooth="yes"/>
      <point x="165" y="635" type="line" smooth="yes"/>
      <point x="165" y="196"/>
      <point x="438" y="-27"/>
    </contour>
  </outline>
</glyph>
<glyph name="Lla.te" format="2">
  <advance width="1757"/>
  <unicode hex="0C33"/>
  <anchor x="899" y="-71" name="bottom"/>
  <outline>
    <contour>
      <point x="1155" y="1100" type="curve"/>
      <point x="1163" y="1111" type="line"/>
      <point x="1327" y="1111"/>
      <point x="1408" y="1181"/>
      <point x="1498" y="1274" type="curve" smooth="yes"/>
      <point x="1702" y="1485" type="line" smooth="yes"/>
      <point x="1822" y="1609"/>
      <point x="1894" y="1609"/>
      <point x="1961" y="1609" type="curve" smooth="yes"/>
      <point x="1977" y="1609" type="line"/>
      <point x="1973" y="1645" type="line"/>
      <point x="1957" y="1645" type="line" smooth="yes"/>
      <point x="1846" y="1645"/>
      <point x="1772" y="1611"/>
      <point x="1673" y="1509" type="curve" smooth="yes"/>
      <point x="1466" y="1296" type="line" smooth="yes"/>
      <point x="1367" y="1195"/>
      <point x="1281" y="1136"/>
      <point x="1165" y="1136" type="curve" smooth="yes"/>
      <point x="1152" y="1136" type="line" smooth="yes"/>
      <point x="1024" y="1136"/>
      <point x="952" y="1202"/>
      <point x="886" y="1298" type="curve" smooth="yes"/>
      <point x="790" y="1438" type="line"/>
      <point x="746" y="1438" type="line"/>
      <point x="859" y="1273" type="line" smooth="yes"/>
      <point x="934" y="1164"/>
      <point x="1012" y="1100"/>
    </contour>
    <contour>
      <point x="899" y="413" type="line"/>
      <point x="945" y="409" type="line"/>
      <point x="1394" y="417"/>
      <point x="1627" y="541"/>
      <point x="1627" y="792" type="curve" smooth="yes"/>
      <point x="1627" y="799" type="line" smooth="yes"/>
      <point x="1627" y="1019"/>
      <point x="1466" y="1127"/>
      <point x="1164" y="1130" type="curve"/>
      <point x="1156" y="1100" type="line"/>
      <point x="1441" y="1096"/>
      <point x="1589" y="996"/>
      <point x="1589" y="799" type="curve" smooth="yes"/>
      <point x="1589" y="790" type="line" smooth="yes"/>
      <point x="1589" y="555"/>
      <point x="1353" y="440"/>
      <point x="899" y="440" type="curve" smooth="yes"/>
      <point x="419" y="440"/>
      <point x="167" y="562"/>
      <point x="167" y="813" type="curve"/>
      <point x="167" y="817" type="line"/>
      <point x="174" y="817" type="line"/>
      <point x="169" y="828" type="line"/>
      <point x="169" y="831" type="line"/>
      <point x="172" y="1011"/>
      <point x="305" y="1113"/>
      <point x="527" y="1113" type="curve" smooth="yes"/>
      <point x="737" y="1113"/>
      <point x="851" y="1032"/>
      <point x="851" y="883" type="curve" smooth="yes"/>
      <point x="851" y="879" type="line" smooth="yes"/>
      <point x="851" y="739"/>
      <point x="746" y="662"/>
      <point x="553" y="662" type="curve" smooth="yes"/>
      <point x="366" y="662"/>
      <point x="233" y="717"/>
      <point x="153" y="874" type="curve"/>
      <point x="146" y="829" type="line"/>
      <point x="224" y="687"/>
      <point x="358" y="627"/>
      <point x="553" y="627" type="curve" smooth="yes"/>
      <point x="769" y="627"/>
      <point x="890" y="716"/>
      <point x="890" y="879" type="curve" smooth="yes"/>
      <point x="890" y="883" type="line" smooth="yes"/>
      <point x="890" y="1054"/>
      <point x="760" y="1148"/>
      <point x="527" y="1148" type="curve" smooth="yes"/>
      <point x="275" y="1148"/>
      <point x="130" y="1029"/>
      <point x="130" y="824" type="curve" smooth="yes"/>
      <point x="130" y="815" type="line" smooth="yes"/>
      <point x="130" y="551"/>
      <point x="375" y="417"/>
      <point x="855" y="409" type="curve"/>
    </contour>
    <contour>
      <point x="899" y="429" type="curve" smooth="yes"/>
      <point x="622" y="429"/>
      <point x="480" y="354"/>
      <point x="480" y="206" type="curve" smooth="yes"/>
      <point x="480" y="203" type="line" smooth="yes"/>
      <point x="480" y="53"/>
      <point x="631" y="-34"/>
      <point x="899" y="-34" type="curve" smooth="yes"/>
      <point x="1167" y="-34"/>
      <point x="1318" y="53"/>
      <point x="1318" y="203" type="curve" smooth="yes"/>
      <point x="1318" y="206" type="line" smooth="yes"/>
      <point x="1318" y="354"/>
      <point x="1177" y="429"/>
    </contour>
    <contour>
      <point x="899" y="2" type="curve" smooth="yes"/>
      <point x="655" y="2"/>
      <point x="519" y="75"/>
      <point x="519" y="205" type="curve" smooth="yes"/>
      <point x="519" y="206" type="line" smooth="yes"/>
      <point x="519" y="338"/>
      <point x="645" y="404"/>
      <point x="899" y="404" type="curve" smooth="yes"/>
      <point x="1154" y="404"/>
      <point x="1279" y="338"/>
      <point x="1279" y="206" type="curve" smooth="yes"/>
      <point x="1279" y="205" type="line" smooth="yes"/>
      <point x="1279" y="75"/>
      <point x="1142" y="2"/>
    </contour>
  </outline>
</glyph>
<glyph name="Llla.te" format="2">
  <advance width="2201"/>
  <unicode hex="0C34"/>
  <anchor x="1101" y="-71" name="bottom"/>
  <outline>
    <contour>
      <point x="663" y="-21" type="curve" smooth="yes"/>
      <point x="931" y="-21"/>
      <point x="1083" y="110"/>
      <point x="1099" y="356" type="curve"/>
      <point x="1102" y="356" type="line"/>
      <point x="1119" y="110"/>
      <point x="1269" y="-21"/>
      <point x="1538" y="-21" type="curve" smooth="yes"/>
      <point x="1869" y="-21"/>
      <point x="2036" y="173"/>
      <point x="2036" y="580" type="curve" smooth="yes"/>
      <point x="2036" y="612" type="line" smooth="yes"/>
      <point x="2036" y="983"/>
      <point x="1858" y="1148"/>
      <point x="1589" y="1148" type="curve" smooth="yes"/>
      <point x="1344" y="1148"/>
      <point x="1205" y="1032"/>
      <point x="1205" y="826" type="curve"/>
      <point x="1205" y="822" type="line"/>
      <point x="1205" y="621"/>
      <point x="1339" y="513"/>
      <point x="1577" y="513" type="curve" smooth="yes"/>
      <point x="1784" y="513"/>
      <point x="1922" y="591"/>
      <point x="2005" y="735" type="curve"/>
      <point x="1998" y="781" type="line"/>
      <point x="1913" y="621"/>
      <point x="1774" y="548"/>
      <point x="1576" y="548" type="curve" smooth="yes"/>
      <point x="1362" y="548"/>
      <point x="1244" y="644"/>
      <point x="1244" y="822" type="curve"/>
      <point x="1244" y="826" type="line"/>
      <point x="1244" y="1011"/>
      <point x="1367" y="1113"/>
      <point x="1589" y="1113" type="curve" smooth="yes"/>
      <point x="1831" y="1113"/>
      <point x="1958" y="967"/>
      <point x="1990" y="728" type="curve"/>
      <point x="1990" y="724" type="line"/>
      <point x="1988" y="721" type="line"/>
      <point x="1991" y="721" type="line"/>
      <point x="1995" y="678"/>
      <point x="1997" y="650"/>
      <point x="1997" y="611" type="curve" smooth="yes"/>
      <point x="1997" y="582" type="line" smooth="yes"/>
      <point x="1997" y="229"/>
      <point x="1877" y="14"/>
      <point x="1536" y="14" type="curve" smooth="yes"/>
      <point x="1283" y="14"/>
      <point x="1139" y="141"/>
      <point x="1124" y="402" type="curve" smooth="yes"/>
      <point x="1122" y="436" type="line"/>
      <point x="1079" y="436" type="line"/>
      <point x="1077" y="402" type="line" smooth="yes"/>
      <point x="1062" y="141"/>
      <point x="918" y="14"/>
      <point x="665" y="14" type="curve" smooth="yes"/>
      <point x="316" y="14"/>
      <point x="204" y="241"/>
      <point x="204" y="582" type="curve" smooth="yes"/>
      <point x="204" y="611" type="line" smooth="yes"/>
      <point x="204" y="648"/>
      <point x="206" y="678"/>
      <point x="210" y="721" type="curve"/>
      <point x="213" y="721" type="line"/>
      <point x="211" y="724" type="line"/>
      <point x="211" y="728" type="line"/>
      <point x="243" y="967"/>
      <point x="371" y="1113"/>
      <point x="613" y="1113" type="curve" smooth="yes"/>
      <point x="834" y="1113"/>
      <point x="958" y="1011"/>
      <point x="958" y="826" type="curve"/>
      <point x="958" y="822" type="line"/>
      <point x="958" y="644"/>
      <point x="840" y="548"/>
      <point x="625" y="548" type="curve" smooth="yes"/>
      <point x="427" y="548"/>
      <point x="289" y="621"/>
      <point x="203" y="781" type="curve"/>
      <point x="197" y="735" type="line"/>
      <point x="279" y="591"/>
      <point x="419" y="513"/>
      <point x="625" y="513" type="curve" smooth="yes"/>
      <point x="862" y="513"/>
      <point x="997" y="621"/>
      <point x="997" y="822" type="curve"/>
      <point x="997" y="826" type="line"/>
      <point x="997" y="1032"/>
      <point x="857" y="1148"/>
      <point x="613" y="1148" type="curve" smooth="yes"/>
      <point x="344" y="1148"/>
      <point x="165" y="983"/>
      <point x="165" y="612" type="curve" smooth="yes"/>
      <point x="165" y="580" type="line" smooth="yes"/>
      <point x="165" y="173"/>
      <point x="332" y="-21"/>
    </contour>
  </outline>
</glyph>
<glyph name="Va.te" format="2">
  <advance width="1950"/>
  <unicode hex="0C35"/>
  <anchor x="919" y="-71" name="bottom"/>
  <outline>
    <contour>
      <point x="530" y="-23" type="curve" smooth="yes"/>
      <point x="754" y="-23"/>
      <point x="892" y="76"/>
      <point x="917" y="260" type="curve"/>
      <point x="920" y="260" type="line"/>
      <point x="955" y="75"/>
      <point x="1106" y="-23"/>
      <point x="1334" y="-23" type="curve" smooth="yes"/>
      <point x="1631" y="-23"/>
      <point x="1785" y="144"/>
      <point x="1785" y="465" type="curve" smooth="yes"/>
      <point x="1785" y="477" type="line" smooth="yes"/>
      <point x="1785" y="982"/>
      <point x="1433" y="1134"/>
      <point x="949" y="1134" type="curve" smooth="yes"/>
      <point x="824" y="1134" type="line"/>
      <point x="733" y="1121" type="line"/>
      <point x="731" y="1100" type="line"/>
      <point x="949" y="1100" type="line" smooth="yes"/>
      <point x="1555" y="1100"/>
      <point x="1746" y="850"/>
      <point x="1746" y="477" type="curve" smooth="yes"/>
      <point x="1746" y="465" type="line" smooth="yes"/>
      <point x="1746" y="166"/>
      <point x="1607" y="14"/>
      <point x="1333" y="14" type="curve" smooth="yes"/>
      <point x="1106" y="14"/>
      <point x="946" y="122"/>
      <point x="936" y="335" type="curve" smooth="yes"/>
      <point x="935" y="356" type="line" smooth="yes"/>
      <point x="925" y="566"/>
      <point x="792" y="694"/>
      <point x="533" y="694" type="curve" smooth="yes"/>
      <point x="275" y="694"/>
      <point x="130" y="566"/>
      <point x="130" y="340" type="curve" smooth="yes"/>
      <point x="130" y="333" type="line" smooth="yes"/>
      <point x="130" y="106"/>
      <point x="275" y="-23"/>
    </contour>
    <contour>
      <point x="531" y="14" type="curve" smooth="yes"/>
      <point x="297" y="14"/>
      <point x="169" y="128"/>
      <point x="169" y="333" type="curve" smooth="yes"/>
      <point x="169" y="340" type="line" smooth="yes"/>
      <point x="169" y="545"/>
      <point x="297" y="659"/>
      <point x="533" y="659" type="curve" smooth="yes"/>
      <point x="770" y="659"/>
      <point x="897" y="545"/>
      <point x="897" y="342" type="curve" smooth="yes"/>
      <point x="897" y="338" type="line" smooth="yes"/>
      <point x="897" y="130"/>
      <point x="770" y="14"/>
    </contour>
    <contour>
      <point x="731" y="1100" type="curve"/>
      <point x="739" y="1109" type="line"/>
      <point x="895" y="1109"/>
      <point x="977" y="1165"/>
      <point x="1086" y="1274" type="curve" smooth="yes"/>
      <point x="1297" y="1485" type="line" smooth="yes"/>
      <point x="1399" y="1587"/>
      <point x="1462" y="1609"/>
      <point x="1556" y="1609" type="curve" smooth="yes"/>
      <point x="1664" y="1609" type="line"/>
      <point x="1661" y="1645" type="line"/>
      <point x="1553" y="1645" type="line" smooth="yes"/>
      <point x="1431" y="1645"/>
      <point x="1364" y="1603"/>
      <point x="1269" y="1509" type="curve" smooth="yes"/>
      <point x="1054" y="1296" type="line" smooth="yes"/>
      <point x="964" y="1207"/>
      <point x="872" y="1136"/>
      <point x="740" y="1136" type="curve"/>
      <point x="725" y="1136" type="line"/>
      <point x="582" y="1136"/>
      <point x="497" y="1203"/>
      <point x="430" y="1299" type="curve" smooth="yes"/>
      <point x="334" y="1438" type="line"/>
      <point x="288" y="1438" type="line"/>
      <point x="404" y="1274" type="line" smooth="yes"/>
      <point x="481" y="1166"/>
      <point x="570" y="1100"/>
    </contour>
  </outline>
</glyph>
<glyph name="Sha.te" format="2">
  <advance width="1626"/>
  <unicode hex="0C36"/>
  <anchor x="817" y="-71" name="bottom"/>
  <outline>
    <contour>
      <point x="1059" y="-27" type="curve" smooth="yes"/>
      <point x="1331" y="-27"/>
      <point x="1480" y="98"/>
      <point x="1480" y="320" type="curve" smooth="yes"/>
      <point x="1480" y="329" type="line" smooth="yes"/>
      <point x="1480" y="534"/>
      <point x="1377" y="681"/>
      <point x="1177" y="755" type="curve" smooth="yes"/>
      <point x="1158" y="762" type="line"/>
      <point x="1064" y="794"/>
      <point x="947" y="812"/>
      <point x="814" y="812" type="curve" smooth="yes"/>
      <point x="796" y="812" type="line" smooth="yes"/>
      <point x="378" y="812"/>
      <point x="140" y="643"/>
      <point x="140" y="342" type="curve" smooth="yes"/>
      <point x="140" y="340" type="line" smooth="yes"/>
      <point x="140" y="270"/>
      <point x="154" y="203"/>
      <point x="178" y="144" type="curve"/>
      <point x="221" y="144" type="line"/>
      <point x="196" y="201"/>
      <point x="179" y="270"/>
      <point x="179" y="338" type="curve" smooth="yes"/>
      <point x="179" y="340" type="line" smooth="yes"/>
      <point x="179" y="621"/>
      <point x="401" y="778"/>
      <point x="796" y="778" type="curve" smooth="yes"/>
      <point x="814" y="778" type="line" smooth="yes"/>
      <point x="932" y="778"/>
      <point x="1033" y="765"/>
      <point x="1118" y="740" type="curve"/>
      <point x="1126" y="737" type="line"/>
      <point x="1334" y="673"/>
      <point x="1441" y="534"/>
      <point x="1441" y="329" type="curve" smooth="yes"/>
      <point x="1441" y="320" type="line" smooth="yes"/>
      <point x="1441" y="121"/>
      <point x="1309" y="9"/>
      <point x="1059" y="9" type="curve" smooth="yes"/>
      <point x="807" y="9"/>
      <point x="672" y="117"/>
      <point x="672" y="299" type="curve" smooth="yes"/>
      <point x="672" y="308" type="line" smooth="yes"/>
      <point x="672" y="533"/>
      <point x="891" y="648"/>
      <point x="1153" y="733" type="curve"/>
      <point x="1170" y="740" type="line"/>
      <point x="1318" y="797"/>
      <point x="1406" y="861"/>
      <point x="1406" y="968" type="curve" smooth="yes"/>
      <point x="1406" y="1066"/>
      <point x="1340" y="1132"/>
      <point x="1177" y="1132" type="curve" smooth="yes"/>
      <point x="876" y="1132" type="line"/>
      <point x="855" y="1100" type="line"/>
      <point x="1172" y="1100" type="line" smooth="yes"/>
      <point x="1315" y="1100"/>
      <point x="1370" y="1047"/>
      <point x="1370" y="968" type="curve" smooth="yes"/>
      <point x="1370" y="869"/>
      <point x="1284" y="809"/>
      <point x="1125" y="756" type="curve" smooth="yes"/>
      <point x="1110" y="751" type="line"/>
      <point x="841" y="662"/>
      <point x="633" y="547"/>
      <point x="633" y="308" type="curve" smooth="yes"/>
      <point x="633" y="299" type="line" smooth="yes"/>
      <point x="633" y="94"/>
      <point x="785" y="-27"/>
    </contour>
    <contour>
      <point x="855" y="1100" type="curve"/>
      <point x="863" y="1109" type="line"/>
      <point x="1018" y="1109"/>
      <point x="1101" y="1165"/>
      <point x="1210" y="1274" type="curve" smooth="yes"/>
      <point x="1421" y="1485" type="line" smooth="yes"/>
      <point x="1537" y="1601"/>
      <point x="1603" y="1609"/>
      <point x="1680" y="1609" type="curve" smooth="yes"/>
      <point x="1696" y="1609" type="line"/>
      <point x="1692" y="1645" type="line"/>
      <point x="1676" y="1645" type="line" smooth="yes"/>
      <point x="1560" y="1645"/>
      <point x="1491" y="1607"/>
      <point x="1393" y="1509" type="curve" smooth="yes"/>
      <point x="1178" y="1296" type="line" smooth="yes"/>
      <point x="1061" y="1180"/>
      <point x="971" y="1136"/>
      <point x="864" y="1136" type="curve" smooth="yes"/>
      <point x="849" y="1136" type="line" smooth="yes"/>
      <point x="708" y="1136"/>
      <point x="620" y="1201"/>
      <point x="553" y="1299" type="curve" smooth="yes"/>
      <point x="458" y="1438" type="line"/>
      <point x="411" y="1438" type="line"/>
      <point x="526" y="1274" type="line" smooth="yes"/>
      <point x="608" y="1157"/>
      <point x="706" y="1100"/>
    </contour>
  </outline>
</glyph>
<glyph name="Sa.te" format="2">
  <advance width="1907"/>
  <unicode hex="0C38"/>
  <anchor x="886" y="-71" name="bottom"/>
  <outline>
    <contour>
      <point x="1331" y="-24" type="curve" smooth="yes"/>
      <point x="1601" y="-24"/>
      <point x="1742" y="159"/>
      <point x="1742" y="477" type="curve" smooth="yes"/>
      <point x="1742" y="486" type="line"/>
      <point x="1703" y="486" type="line"/>
      <point x="1703" y="477" type="line" smooth="yes"/>
      <point x="1703" y="181"/>
      <point x="1576" y="12"/>
      <point x="1331" y="12" type="curve" smooth="yes"/>
      <point x="1110" y="12"/>
      <point x="1012" y="111"/>
      <point x="947" y="301" type="curve" smooth="yes"/>
      <point x="924" y="368" type="line" smooth="yes"/>
      <point x="857" y="562"/>
      <point x="760" y="676"/>
      <point x="515" y="676" type="curve" smooth="yes"/>
      <point x="272" y="676"/>
      <point x="129" y="544"/>
      <point x="129" y="313" type="curve" smooth="yes"/>
      <point x="129" y="306" type="line" smooth="yes"/>
      <point x="129" y="185"/>
      <point x="172" y="80"/>
      <point x="222" y="-2" type="curve"/>
      <point x="269" y="-2" type="line"/>
      <point x="203" y="97"/>
      <point x="168" y="195"/>
      <point x="168" y="306" type="curve" smooth="yes"/>
      <point x="168" y="313" type="line" smooth="yes"/>
      <point x="168" y="525"/>
      <point x="296" y="641"/>
      <point x="519" y="641" type="curve" smooth="yes"/>
      <point x="741" y="641"/>
      <point x="826" y="534"/>
      <point x="890" y="354" type="curve" smooth="yes"/>
      <point x="914" y="286" type="line" smooth="yes"/>
      <point x="992" y="64"/>
      <point x="1111" y="-24"/>
    </contour>
    <contour>
      <point x="602" y="1100" type="curve"/>
      <point x="616" y="1100" type="line" smooth="yes"/>
      <point x="751" y="1100"/>
      <point x="859" y="1170"/>
      <point x="963" y="1274" type="curve" smooth="yes"/>
      <point x="1174" y="1485" type="line" smooth="yes"/>
      <point x="1275" y="1586"/>
      <point x="1338" y="1609"/>
      <point x="1432" y="1609" type="curve" smooth="yes"/>
      <point x="1544" y="1609" type="line"/>
      <point x="1540" y="1645" type="line"/>
      <point x="1429" y="1645" type="line" smooth="yes"/>
      <point x="1317" y="1645"/>
      <point x="1249" y="1613"/>
      <point x="1145" y="1509" type="curve" smooth="yes"/>
      <point x="931" y="1295" type="line" smooth="yes"/>
      <point x="842" y="1206"/>
      <point x="749" y="1136"/>
      <point x="616" y="1136" type="curve"/>
      <point x="602" y="1136" type="line"/>
      <point x="472" y="1136"/>
      <point x="377" y="1194"/>
      <point x="305" y="1299" type="curve" smooth="yes"/>
      <point x="210" y="1438" type="line"/>
      <point x="163" y="1438" type="line"/>
      <point x="280" y="1274" type="line" smooth="yes"/>
      <point x="359" y="1163"/>
      <point x="450" y="1100"/>
    </contour>
    <contour>
      <point x="1703" y="484" type="line"/>
      <point x="1742" y="484" type="line"/>
      <point x="1742" y="489" type="line" smooth="yes"/>
      <point x="1742" y="911"/>
      <point x="1540" y="1134"/>
      <point x="1155" y="1134" type="curve"/>
      <point x="1147" y="1134" type="line"/>
      <point x="1141" y="1098" type="line"/>
      <point x="1145" y="1098" type="line"/>
      <point x="1515" y="1098"/>
      <point x="1703" y="892"/>
      <point x="1703" y="489" type="curve" smooth="yes"/>
    </contour>
  </outline>
</glyph>
<glyph name="Avagraha.te" format="2">
  <advance width="1629"/>
  <unicode hex="0C3D"/>
  <outline>
    <contour>
      <point x="615" y="0" type="curve" smooth="yes"/>
      <point x="1594" y="0" type="line"/>
      <point x="1594" y="36" type="line"/>
      <point x="615" y="36" type="line" smooth="yes"/>
      <point x="323" y="36"/>
      <point x="204" y="104"/>
      <point x="204" y="253" type="curve" smooth="yes"/>
      <point x="204" y="256" type="line" smooth="yes"/>
      <point x="204" y="391"/>
      <point x="266" y="480"/>
      <point x="766" y="552" type="curve" smooth="yes"/>
      <point x="1216" y="617"/>
      <point x="1346" y="693"/>
      <point x="1346" y="858" type="curve" smooth="yes"/>
      <point x="1346" y="863" type="line" smooth="yes"/>
      <point x="1346" y="1052"/>
      <point x="1154" y="1148"/>
      <point x="776" y="1148" type="curve" smooth="yes"/>
      <point x="396" y="1148"/>
      <point x="195" y="1038"/>
      <point x="195" y="821" type="curve" smooth="yes"/>
      <point x="195" y="813" type="line" smooth="yes"/>
      <point x="195" y="796"/>
      <point x="195" y="780"/>
      <point x="200" y="748" type="curve"/>
      <point x="239" y="748" type="line"/>
      <point x="234" y="776"/>
      <point x="234" y="792"/>
      <point x="234" y="813" type="curve" smooth="yes"/>
      <point x="234" y="821" type="line" smooth="yes"/>
      <point x="234" y="1010"/>
      <point x="420" y="1113"/>
      <point x="776" y="1113" type="curve" smooth="yes"/>
      <point x="1125" y="1113"/>
      <point x="1307" y="1028"/>
      <point x="1307" y="863" type="curve" smooth="yes"/>
      <point x="1307" y="858" type="line" smooth="yes"/>
      <point x="1307" y="714"/>
      <point x="1188" y="648"/>
      <point x="762" y="587" type="curve" smooth="yes"/>
      <point x="252" y="515"/>
      <point x="165" y="416"/>
      <point x="165" y="256" type="curve" smooth="yes"/>
      <point x="165" y="253" type="line" smooth="yes"/>
      <point x="165" y="81"/>
      <point x="299" y="0"/>
    </contour>
  </outline>
</glyph>
<glyph name="matraAa.te" format="2">
  <advance width="1256"/>
  <unicode hex="0C3E"/>
  <outline>
    <contour>
      <point x="683" y="210" type="curve" smooth="yes"/>
      <point x="943" y="210"/>
      <point x="1091" y="354"/>
      <point x="1091" y="605" type="curve"/>
      <point x="1091" y="611" type="line"/>
      <point x="1091" y="924"/>
      <point x="926" y="1136"/>
      <point x="507" y="1136" type="curve" smooth="yes"/>
      <point x="-598" y="1136" type="line"/>
      <point x="-598" y="1100" type="line"/>
      <point x="507" y="1100" type="line" smooth="yes"/>
      <point x="910" y="1100"/>
      <point x="1057" y="902"/>
      <point x="1057" y="614" type="curve" smooth="yes"/>
      <point x="1057" y="611" type="line"/>
      <point x="1055" y="611" type="line"/>
      <point x="1057" y="598" type="line"/>
      <point x="1057" y="596" type="line"/>
      <point x="1057" y="372"/>
      <point x="923" y="246"/>
      <point x="683" y="246" type="curve" smooth="yes"/>
      <point x="457" y="246"/>
      <point x="327" y="347"/>
      <point x="327" y="525" type="curve" smooth="yes"/>
      <point x="327" y="529" type="line" smooth="yes"/>
      <point x="327" y="710"/>
      <point x="452" y="812"/>
      <point x="673" y="812" type="curve" smooth="yes"/>
      <point x="853" y="812"/>
      <point x="986" y="735"/>
      <point x="1059" y="573" type="curve"/>
      <point x="1062" y="616" type="line"/>
      <point x="1003" y="753"/>
      <point x="874" y="847"/>
      <point x="670" y="847" type="curve" smooth="yes"/>
      <point x="428" y="847"/>
      <point x="288" y="733"/>
      <point x="288" y="529" type="curve" smooth="yes"/>
      <point x="288" y="525" type="line" smooth="yes"/>
      <point x="288" y="326"/>
      <point x="433" y="210"/>
    </contour>
  </outline>
</glyph>
<glyph name="matraI.te" format="2">
  <unicode hex="0C3F"/>
  <outline>
    <contour>
      <point x="-706" y="1070" type="curve" smooth="yes"/>
      <point x="-429" y="1070"/>
      <point x="-285" y="1204"/>
      <point x="-285" y="1452" type="curve"/>
      <point x="-285" y="1464" type="line"/>
      <point x="-285" y="1677"/>
      <point x="-426" y="1787"/>
      <point x="-697" y="1787" type="curve" smooth="yes"/>
      <point x="-941" y="1787"/>
      <point x="-1068" y="1707"/>
      <point x="-1068" y="1555" type="curve" smooth="yes"/>
      <point x="-1068" y="1552" type="line" smooth="yes"/>
      <point x="-1068" y="1406"/>
      <point x="-944" y="1329"/>
      <point x="-709" y="1329" type="curve" smooth="yes"/>
      <point x="-491" y="1329"/>
      <point x="-374" y="1398"/>
      <point x="-312" y="1471" type="curve"/>
      <point x="-319" y="1499" type="line"/>
      <point x="-391" y="1421"/>
      <point x="-497" y="1364"/>
      <point x="-710" y="1364" type="curve" smooth="yes"/>
      <point x="-919" y="1364"/>
      <point x="-1029" y="1429"/>
      <point x="-1029" y="1552" type="curve" smooth="yes"/>
      <point x="-1029" y="1555" type="line" smooth="yes"/>
      <point x="-1029" y="1684"/>
      <point x="-915" y="1751"/>
      <point x="-697" y="1751" type="curve" smooth="yes"/>
      <point x="-448" y="1751"/>
      <point x="-321" y="1658"/>
      <point x="-321" y="1475" type="curve"/>
      <point x="-321" y="1473" type="line"/>
      <point x="-325" y="1467" type="line"/>
      <point x="-320" y="1467" type="line"/>
      <point x="-320" y="1456" type="line"/>
      <point x="-320" y="1224"/>
      <point x="-446" y="1106"/>
      <point x="-705" y="1106" type="curve" smooth="yes"/>
      <point x="-815" y="1106"/>
      <point x="-926" y="1121"/>
      <point x="-1032" y="1183" type="curve"/>
      <point x="-1026" y="1143" type="line"/>
      <point x="-922" y="1088"/>
      <point x="-819" y="1070"/>
    </contour>
  </outline>
</glyph>
<glyph name="matraU.te" format="2">
  <advance width="972"/>
  <unicode hex="0C41"/>
  <outline>
    <contour>
      <point x="330" y="-21" type="curve" smooth="yes"/>
      <point x="644" y="-21"/>
      <point x="807" y="158"/>
      <point x="807" y="504" type="curve"/>
      <point x="807" y="507" type="line"/>
      <point x="768" y="507" type="line"/>
      <point x="768" y="504" type="line"/>
      <point x="768" y="180"/>
      <point x="621" y="14"/>
      <point x="330" y="14" type="curve" smooth="yes"/>
      <point x="67" y="14"/>
      <point x="-97" y="141"/>
      <point x="-97" y="402" type="curve" smooth="yes"/>
      <point x="-97" y="470" type="line"/>
      <point x="-122" y="470" type="line"/>
      <point x="-122" y="370" type="line" smooth="yes"/>
      <point x="-122" y="116"/>
      <point x="53" y="-21"/>
    </contour>
    <component base="Terminals.te" xOffset="133"/>
  </outline>
</glyph>
<glyph name="matraUu.te" format="2">
  <advance width="2061"/>
  <unicode hex="0C42"/>
  <outline>
    <contour>
      <point x="326" y="-21" type="curve" smooth="yes"/>
      <point x="640" y="-21"/>
      <point x="803" y="158"/>
      <point x="803" y="504" type="curve"/>
      <point x="803" y="507" type="line"/>
      <point x="764" y="507" type="line"/>
      <point x="764" y="504" type="line"/>
      <point x="764" y="180"/>
      <point x="617" y="14"/>
      <point x="326" y="14" type="curve" smooth="yes"/>
      <point x="63" y="14"/>
      <point x="-101" y="141"/>
      <point x="-101" y="402" type="curve" smooth="yes"/>
      <point x="-101" y="470" type="line"/>
      <point x="-126" y="470" type="line"/>
      <point x="-126" y="370" type="line" smooth="yes"/>
      <point x="-126" y="116"/>
      <point x="49" y="-21"/>
    </contour>
    <contour>
      <point x="764" y="506" type="line"/>
      <point x="803" y="506" type="line"/>
      <point x="803" y="511" type="line"/>
      <point x="803" y="913"/>
      <point x="608" y="1129"/>
      <point x="239" y="1129" type="curve"/>
      <point x="206" y="1136" type="line"/>
      <point x="201" y="1100" type="line"/>
      <point x="212" y="1100" type="line"/>
      <point x="578" y="1100"/>
      <point x="764" y="902"/>
      <point x="764" y="511" type="curve"/>
    </contour>
    <contour>
      <point x="1488" y="210" type="curve" smooth="yes"/>
      <point x="1748" y="210"/>
      <point x="1896" y="354"/>
      <point x="1896" y="605" type="curve"/>
      <point x="1896" y="611" type="line"/>
      <point x="1896" y="924"/>
      <point x="1731" y="1136"/>
      <point x="1312" y="1136" type="curve" smooth="yes"/>
      <point x="206" y="1136" type="line"/>
      <point x="208" y="1111" type="line"/>
      <point x="590" y="1100" type="line"/>
      <point x="1312" y="1100" type="line" smooth="yes"/>
      <point x="1715" y="1100"/>
      <point x="1862" y="902"/>
      <point x="1862" y="614" type="curve" smooth="yes"/>
      <point x="1862" y="611" type="line"/>
      <point x="1860" y="611" type="line"/>
      <point x="1862" y="598" type="line"/>
      <point x="1862" y="596" type="line"/>
      <point x="1862" y="372"/>
      <point x="1728" y="246"/>
      <point x="1488" y="246" type="curve" smooth="yes"/>
      <point x="1262" y="246"/>
      <point x="1132" y="347"/>
      <point x="1132" y="525" type="curve" smooth="yes"/>
      <point x="1132" y="529" type="line" smooth="yes"/>
      <point x="1132" y="710"/>
      <point x="1257" y="812"/>
      <point x="1478" y="812" type="curve" smooth="yes"/>
      <point x="1658" y="812"/>
      <point x="1791" y="735"/>
      <point x="1864" y="573" type="curve"/>
      <point x="1867" y="616" type="line"/>
      <point x="1808" y="753"/>
      <point x="1679" y="847"/>
      <point x="1475" y="847" type="curve" smooth="yes"/>
      <point x="1233" y="847"/>
      <point x="1093" y="733"/>
      <point x="1093" y="529" type="curve" smooth="yes"/>
      <point x="1093" y="525" type="line" smooth="yes"/>
      <point x="1093" y="326"/>
      <point x="1238" y="210"/>
    </contour>
  </outline>
</glyph>
<glyph name="matraVocalicR.te" format="2">
  <advance width="382"/>
  <unicode hex="0C43"/>
  <outline>
    <contour>
      <point x="-32" y="-677" type="curve" smooth="yes"/>
      <point x="235" y="-677"/>
      <point x="361" y="-523"/>
      <point x="361" y="-191" type="curve" smooth="yes"/>
      <point x="361" y="-177" type="line" smooth="yes"/>
      <point x="361" y="304"/>
      <point x="186" y="504"/>
      <point x="5" y="514" type="curve"/>
      <point x="-1" y="480" type="line"/>
      <point x="166" y="470"/>
      <point x="325" y="290"/>
      <point x="325" y="-176" type="curve" smooth="yes"/>
      <point x="325" y="-190" type="line" smooth="yes"/>
      <point x="325" y="-503"/>
      <point x="214" y="-643"/>
      <point x="-32" y="-643" type="curve" smooth="yes"/>
      <point x="-252" y="-643"/>
      <point x="-370" y="-546"/>
      <point x="-370" y="-367" type="curve"/>
      <point x="-370" y="-366" type="line"/>
      <point x="-368" y="-366" type="line"/>
      <point x="-370" y="-363" type="line"/>
      <point x="-370" y="-361" type="line"/>
      <point x="-370" y="-238"/>
      <point x="-304" y="-168"/>
      <point x="-179" y="-168" type="curve" smooth="yes"/>
      <point x="-73" y="-168"/>
      <point x="-16" y="-218"/>
      <point x="-16" y="-310" type="curve" smooth="yes"/>
      <point x="-16" y="-313" type="line" smooth="yes"/>
      <point x="-16" y="-393"/>
      <point x="-66" y="-450"/>
      <point x="-166" y="-450" type="curve" smooth="yes"/>
      <point x="-254" y="-450"/>
      <point x="-324" y="-417"/>
      <point x="-372" y="-327" type="curve"/>
      <point x="-377" y="-358" type="line"/>
      <point x="-342" y="-434"/>
      <point x="-268" y="-483"/>
      <point x="-163" y="-483" type="curve" smooth="yes"/>
      <point x="-41" y="-483"/>
      <point x="20" y="-407"/>
      <point x="20" y="-313" type="curve" smooth="yes"/>
      <point x="20" y="-310" type="line" smooth="yes"/>
      <point x="20" y="-198"/>
      <point x="-52" y="-134"/>
      <point x="-179" y="-134" type="curve" smooth="yes"/>
      <point x="-323" y="-134"/>
      <point x="-404" y="-218"/>
      <point x="-404" y="-366" type="curve" smooth="yes"/>
      <point x="-404" y="-370" type="line" smooth="yes"/>
      <point x="-404" y="-565"/>
      <point x="-270" y="-677"/>
    </contour>
  </outline>
</glyph>
<glyph name="matraVocalicRr.te" format="2">
  <advance width="991"/>
  <unicode hex="0C44"/>
  <outline>
    <contour>
      <point x="-32" y="-677" type="curve" smooth="yes"/>
      <point x="235" y="-677"/>
      <point x="361" y="-523"/>
      <point x="361" y="-191" type="curve" smooth="yes"/>
      <point x="361" y="-173" type="line" smooth="yes"/>
      <point x="361" y="298"/>
      <point x="186" y="500"/>
      <point x="8" y="508" type="curve"/>
      <point x="5" y="514" type="line"/>
      <point x="-1" y="480" type="line"/>
      <point x="156" y="480"/>
      <point x="325" y="290"/>
      <point x="325" y="-176" type="curve" smooth="yes"/>
      <point x="325" y="-190" type="line" smooth="yes"/>
      <point x="325" y="-503"/>
      <point x="214" y="-643"/>
      <point x="-32" y="-643" type="curve" smooth="yes"/>
      <point x="-252" y="-643"/>
      <point x="-370" y="-546"/>
      <point x="-370" y="-367" type="curve"/>
      <point x="-370" y="-366" type="line"/>
      <point x="-368" y="-366" type="line"/>
      <point x="-370" y="-363" type="line"/>
      <point x="-370" y="-361" type="line"/>
      <point x="-370" y="-238"/>
      <point x="-304" y="-168"/>
      <point x="-179" y="-168" type="curve" smooth="yes"/>
      <point x="-73" y="-168"/>
      <point x="-16" y="-218"/>
      <point x="-16" y="-310" type="curve" smooth="yes"/>
      <point x="-16" y="-313" type="line" smooth="yes"/>
      <point x="-16" y="-393"/>
      <point x="-66" y="-450"/>
      <point x="-166" y="-450" type="curve" smooth="yes"/>
      <point x="-254" y="-450"/>
      <point x="-324" y="-417"/>
      <point x="-372" y="-327" type="curve"/>
      <point x="-377" y="-358" type="line"/>
      <point x="-342" y="-434"/>
      <point x="-268" y="-483"/>
      <point x="-163" y="-483" type="curve" smooth="yes"/>
      <point x="-41" y="-483"/>
      <point x="20" y="-407"/>
      <point x="20" y="-313" type="curve" smooth="yes"/>
      <point x="20" y="-310" type="line" smooth="yes"/>
      <point x="20" y="-198"/>
      <point x="-52" y="-134"/>
      <point x="-179" y="-134" type="curve" smooth="yes"/>
      <point x="-323" y="-134"/>
      <point x="-404" y="-218"/>
      <point x="-404" y="-366" type="curve" smooth="yes"/>
      <point x="-404" y="-370" type="line" smooth="yes"/>
      <point x="-404" y="-565"/>
      <point x="-270" y="-677"/>
    </contour>
    <contour>
      <point x="698" y="-24" type="curve" smooth="yes"/>
      <point x="841" y="-24"/>
      <point x="916" y="61"/>
      <point x="916" y="216" type="curve"/>
      <point x="916" y="220" type="line"/>
      <point x="916" y="414"/>
      <point x="798" y="514"/>
      <point x="568" y="514" type="curve" smooth="yes"/>
      <point x="5" y="514" type="line"/>
      <point x="7" y="487" type="line"/>
      <point x="230" y="481" type="line"/>
      <point x="566" y="481" type="line" smooth="yes"/>
      <point x="778" y="481"/>
      <point x="883" y="396"/>
      <point x="883" y="223" type="curve" smooth="yes"/>
      <point x="883" y="222" type="line"/>
      <point x="880" y="222" type="line"/>
      <point x="883" y="216" type="line"/>
      <point x="883" y="213" type="line"/>
      <point x="883" y="80"/>
      <point x="819" y="9"/>
      <point x="700" y="9" type="curve" smooth="yes"/>
      <point x="588" y="9"/>
      <point x="527" y="59"/>
      <point x="527" y="150" type="curve" smooth="yes"/>
      <point x="527" y="154" type="line" smooth="yes"/>
      <point x="527" y="248"/>
      <point x="592" y="292"/>
      <point x="686" y="292" type="curve" smooth="yes"/>
      <point x="777" y="292"/>
      <point x="846" y="261"/>
      <point x="885" y="194" type="curve"/>
      <point x="893" y="219" type="line"/>
      <point x="860" y="280"/>
      <point x="791" y="325"/>
      <point x="685" y="325" type="curve" smooth="yes"/>
      <point x="571" y="325"/>
      <point x="492" y="266"/>
      <point x="492" y="154" type="curve" smooth="yes"/>
      <point x="492" y="150" type="line" smooth="yes"/>
      <point x="492" y="40"/>
      <point x="566" y="-24"/>
    </contour>
  </outline>
</glyph>
<glyph name="matraE.te" format="2">
  <unicode hex="0C46"/>
  <outline>
    <contour>
      <point x="-275" y="1547" type="curve" smooth="yes"/>
      <point x="-985" y="1547" type="line"/>
      <point x="-991" y="1511" type="line"/>
      <point x="-275" y="1511" type="line" smooth="yes"/>
      <point x="-131" y="1511"/>
      <point x="-39" y="1462"/>
      <point x="-39" y="1323" type="curve" smooth="yes"/>
      <point x="-39" y="1198"/>
      <point x="-116" y="1136"/>
      <point x="-275" y="1136" type="curve" smooth="yes"/>
      <point x="-649" y="1136" type="line"/>
      <point x="-649" y="1100" type="line"/>
      <point x="-275" y="1100" type="line" smooth="yes"/>
      <point x="-93" y="1100"/>
      <point x="0" y="1174"/>
      <point x="0" y="1323" type="curve" smooth="yes"/>
      <point x="0" y="1472"/>
      <point x="-93" y="1547"/>
    </contour>
  </outline>
</glyph>
<glyph name="matraO.te" format="2">
  <advance width="1241"/>
  <unicode hex="0C4A"/>
  <outline>
    <contour>
      <point x="720" y="480" type="curve" smooth="yes"/>
      <point x="983" y="480"/>
      <point x="1131" y="634"/>
      <point x="1131" y="904" type="curve" smooth="yes"/>
      <point x="1131" y="910" type="line" smooth="yes"/>
      <point x="1131" y="1256"/>
      <point x="980" y="1481"/>
      <point x="592" y="1481" type="curve" smooth="yes"/>
      <point x="331" y="1481"/>
      <point x="167" y="1364"/>
      <point x="142" y="1201" type="curve"/>
      <point x="139" y="1201" type="line"/>
      <point x="114" y="1480"/>
      <point x="-171" y="1565"/>
      <point x="-541" y="1565" type="curve" smooth="yes"/>
      <point x="-671" y="1565" type="line" smooth="yes"/>
      <point x="-988" y="1565"/>
      <point x="-1142" y="1485"/>
      <point x="-1142" y="1318" type="curve" smooth="yes"/>
      <point x="-1142" y="1175"/>
      <point x="-1031" y="1107"/>
      <point x="-813" y="1107" type="curve" smooth="yes"/>
      <point x="-570" y="1107" type="line"/>
      <point x="-566" y="1136" type="line"/>
      <point x="-799" y="1136" type="line" smooth="yes"/>
      <point x="-997" y="1136"/>
      <point x="-1103" y="1195"/>
      <point x="-1103" y="1318" type="curve" smooth="yes"/>
      <point x="-1103" y="1481"/>
      <point x="-925" y="1530"/>
      <point x="-671" y="1530" type="curve" smooth="yes"/>
      <point x="-541" y="1530" type="line" smooth="yes"/>
      <point x="-124" y="1530"/>
      <point x="109" y="1430"/>
      <point x="109" y="1151" type="curve" smooth="yes"/>
      <point x="109" y="1132" type="line"/>
      <point x="157" y="1132" type="line"/>
      <point x="159" y="1151" type="line" smooth="yes"/>
      <point x="178" y="1331"/>
      <point x="336" y="1446"/>
      <point x="592" y="1446" type="curve" smooth="yes"/>
      <point x="964" y="1446"/>
      <point x="1098" y="1222"/>
      <point x="1098" y="910" type="curve" smooth="yes"/>
      <point x="1098" y="907" type="line"/>
      <point x="1098" y="905" type="line"/>
      <point x="1096" y="905" type="line"/>
      <point x="1098" y="895" type="line"/>
      <point x="1098" y="652"/>
      <point x="963" y="516"/>
      <point x="720" y="516" type="curve" smooth="yes"/>
      <point x="502" y="516"/>
      <point x="378" y="615"/>
      <point x="378" y="791" type="curve" smooth="yes"/>
      <point x="378" y="795" type="line" smooth="yes"/>
      <point x="378" y="974"/>
      <point x="499" y="1074"/>
      <point x="718" y="1074" type="curve" smooth="yes"/>
      <point x="895" y="1074"/>
      <point x="1027" y="1007"/>
      <point x="1100" y="866" type="curve"/>
      <point x="1103" y="909" type="line"/>
      <point x="1044" y="1028"/>
      <point x="918" y="1109"/>
      <point x="714" y="1109" type="curve" smooth="yes"/>
      <point x="474" y="1109"/>
      <point x="339" y="997"/>
      <point x="339" y="795" type="curve" smooth="yes"/>
      <point x="339" y="791" type="line" smooth="yes"/>
      <point x="339" y="594"/>
      <point x="477" y="480"/>
    </contour>
  </outline>
</glyph>
<glyph name="matraAu.te" format="2">
  <advance width="1260"/>
  <unicode hex="0C4C"/>
  <outline>
    <contour>
      <point x="781" y="627" type="curve" smooth="yes"/>
      <point x="1038" y="627"/>
      <point x="1185" y="770"/>
      <point x="1185" y="1019" type="curve" smooth="yes"/>
      <point x="1185" y="1025" type="line" smooth="yes"/>
      <point x="1185" y="1336"/>
      <point x="1020" y="1547"/>
      <point x="600" y="1547" type="curve" smooth="yes"/>
      <point x="-1030" y="1547" type="line"/>
      <point x="-1036" y="1511" type="line"/>
      <point x="-118" y="1511" type="line"/>
      <point x="-81" y="1513" type="line"/>
      <point x="42" y="1511" type="line"/>
      <point x="600" y="1511" type="line" smooth="yes"/>
      <point x="1004" y="1511"/>
      <point x="1151" y="1314"/>
      <point x="1151" y="1028" type="curve" smooth="yes"/>
      <point x="1151" y="1025" type="line"/>
      <point x="1149" y="1025" type="line"/>
      <point x="1151" y="1012" type="line"/>
      <point x="1151" y="1010" type="line"/>
      <point x="1151" y="788"/>
      <point x="1018" y="663"/>
      <point x="781" y="663" type="curve" smooth="yes"/>
      <point x="559" y="663"/>
      <point x="431" y="763"/>
      <point x="431" y="939" type="curve" smooth="yes"/>
      <point x="431" y="943" type="line" smooth="yes"/>
      <point x="431" y="1122"/>
      <point x="554" y="1223"/>
      <point x="772" y="1223" type="curve" smooth="yes"/>
      <point x="949" y="1223"/>
      <point x="1082" y="1147"/>
      <point x="1153" y="987" type="curve"/>
      <point x="1156" y="1030" type="line"/>
      <point x="1098" y="1165"/>
      <point x="971" y="1258"/>
      <point x="768" y="1258" type="curve" smooth="yes"/>
      <point x="529" y="1258"/>
      <point x="392" y="1145"/>
      <point x="392" y="943" type="curve" smooth="yes"/>
      <point x="392" y="939" type="line" smooth="yes"/>
      <point x="392" y="742"/>
      <point x="534" y="627"/>
    </contour>
    <contour>
      <point x="-575" y="1105" type="line"/>
      <point x="-209" y="1105" type="line" smooth="yes"/>
      <point x="-25" y="1105"/>
      <point x="66" y="1176"/>
      <point x="66" y="1323" type="curve" smooth="yes"/>
      <point x="66" y="1465"/>
      <point x="-27" y="1537"/>
      <point x="-209" y="1537" type="curve" smooth="yes"/>
      <point x="-586" y="1537" type="line"/>
      <point x="-591" y="1511" type="line"/>
      <point x="-209" y="1511" type="line" smooth="yes"/>
      <point x="-65" y="1511"/>
      <point x="27" y="1462"/>
      <point x="27" y="1323" type="curve" smooth="yes"/>
      <point x="27" y="1199"/>
      <point x="-51" y="1136"/>
      <point x="-209" y="1136" type="curve" smooth="yes"/>
      <point x="-575" y="1136" type="line"/>
    </contour>
  </outline>
</glyph>
<glyph name="Halant.te" format="2">
  <unicode hex="0C4D"/>
  <outline>
    <contour>
      <point x="-730" y="1100" type="curve" smooth="yes"/>
      <point x="-416" y="1100" type="line"/>
      <point x="-416" y="1136" type="line"/>
      <point x="-730" y="1136" type="line" smooth="yes"/>
      <point x="-857" y="1136"/>
      <point x="-946" y="1171"/>
      <point x="-946" y="1290" type="curve" smooth="yes"/>
      <point x="-946" y="1407"/>
      <point x="-863" y="1449"/>
      <point x="-730" y="1449" type="curve" smooth="yes"/>
      <point x="-169" y="1449" type="line"/>
      <point x="-169" y="1485" type="line"/>
      <point x="-730" y="1485" type="line" smooth="yes"/>
      <point x="-877" y="1485"/>
      <point x="-969" y="1528"/>
      <point x="-969" y="1650" type="curve" smooth="yes"/>
      <point x="-969" y="1775"/>
      <point x="-871" y="1811"/>
      <point x="-730" y="1811" type="curve" smooth="yes"/>
      <point x="111" y="1811" type="line"/>
      <point x="105" y="1847" type="line"/>
      <point x="-730" y="1847" type="line" smooth="yes"/>
      <point x="-894" y="1847"/>
      <point x="-1008" y="1800"/>
      <point x="-1008" y="1650" type="curve" smooth="yes"/>
      <point x="-1008" y="1538"/>
      <point x="-941" y="1478"/>
      <point x="-820" y="1469" type="curve"/>
      <point x="-820" y="1465" type="line"/>
      <point x="-927" y="1456"/>
      <point x="-985" y="1397"/>
      <point x="-985" y="1290" type="curve" smooth="yes"/>
      <point x="-985" y="1162"/>
      <point x="-903" y="1100"/>
    </contour>
  </outline>
</glyph>
<glyph name="Lengthmark.te" format="2">
  <unicode hex="0C55"/>
  <outline>
    <contour>
      <point x="974" y="2044" type="curve"/>
      <point x="971" y="2084" type="line"/>
      <point x="914" y="2120"/>
      <point x="825" y="2154"/>
      <point x="698" y="2154" type="curve" smooth="yes"/>
      <point x="524" y="2154"/>
      <point x="428" y="2084"/>
      <point x="428" y="1961" type="curve" smooth="yes"/>
      <point x="428" y="1851"/>
      <point x="503" y="1789"/>
      <point x="663" y="1770" type="curve"/>
      <point x="676" y="1791" type="line"/>
      <point x="528" y="1811"/>
      <point x="466" y="1865"/>
      <point x="466" y="1959" type="curve" smooth="yes"/>
      <point x="466" y="2061"/>
      <point x="548" y="2119"/>
      <point x="697" y="2119" type="curve" smooth="yes"/>
      <point x="815" y="2119"/>
      <point x="909" y="2088"/>
    </contour>
  </outline>
</glyph>
<glyph name="matraAiLengthmark.te" format="2">
  <unicode hex="0C56"/>
  <anchor x="-50" y="-31" name="_bottom"/>
  <outline>
    <contour>
      <point x="-542" y="-567" type="curve" smooth="yes"/>
      <point x="523" y="-567" type="line"/>
      <point x="528" y="-534" type="line"/>
      <point x="-404" y="-534" type="line"/>
      <point x="-404" y="-532" type="line"/>
      <point x="-327" y="-504"/>
      <point x="-287" y="-444"/>
      <point x="-287" y="-357" type="curve" smooth="yes"/>
      <point x="-287" y="-354" type="line" smooth="yes"/>
      <point x="-287" y="-217"/>
      <point x="-380" y="-141"/>
      <point x="-544" y="-141" type="curve" smooth="yes"/>
      <point x="-708" y="-141"/>
      <point x="-801" y="-217"/>
      <point x="-801" y="-354" type="curve" smooth="yes"/>
      <point x="-801" y="-357" type="line" smooth="yes"/>
      <point x="-801" y="-493"/>
      <point x="-710" y="-567"/>
    </contour>
    <contour>
      <point x="-544" y="-533" type="curve" smooth="yes"/>
      <point x="-691" y="-533"/>
      <point x="-764" y="-474"/>
      <point x="-764" y="-357" type="curve" smooth="yes"/>
      <point x="-764" y="-354" type="line" smooth="yes"/>
      <point x="-764" y="-241"/>
      <point x="-686" y="-175"/>
      <point x="-544" y="-175" type="curve" smooth="yes"/>
      <point x="-402" y="-175"/>
      <point x="-324" y="-241"/>
      <point x="-324" y="-354" type="curve" smooth="yes"/>
      <point x="-324" y="-357" type="line" smooth="yes"/>
      <point x="-324" y="-474"/>
      <point x="-397" y="-533"/>
    </contour>
  </outline>
</glyph>
<glyph name="Tsa.te" format="2">
  <advance width="2050"/>
  <unicode hex="0C58"/>
  <anchor x="1042" y="-71" name="bottom"/>
  <outline>
    <contour>
      <point x="97" y="1570" type="line"/>
      <point x="1103" y="1570" type="line" smooth="yes"/>
      <point x="1313" y="1570"/>
      <point x="1403" y="1679"/>
      <point x="1403" y="1810" type="curve" smooth="yes"/>
      <point x="1403" y="1814" type="line" smooth="yes"/>
      <point x="1403" y="1940"/>
      <point x="1302" y="2042"/>
      <point x="1103" y="2042" type="curve" smooth="yes"/>
      <point x="904" y="2042"/>
      <point x="815" y="1940"/>
      <point x="815" y="1814" type="curve" smooth="yes"/>
      <point x="815" y="1810" type="line" smooth="yes"/>
      <point x="815" y="1704"/>
      <point x="885" y="1638"/>
      <point x="975" y="1609" type="curve"/>
      <point x="975" y="1606" type="line"/>
      <point x="92" y="1606" type="line"/>
    </contour>
    <contour>
      <point x="1103" y="1607" type="curve"/>
      <point x="944" y="1607"/>
      <point x="854" y="1702"/>
      <point x="854" y="1810" type="curve" smooth="yes"/>
      <point x="854" y="1814" type="line" smooth="yes"/>
      <point x="854" y="1926"/>
      <point x="930" y="2006"/>
      <point x="1103" y="2006" type="curve" smooth="yes"/>
      <point x="1275" y="2006"/>
      <point x="1363" y="1926"/>
      <point x="1363" y="1814" type="curve" smooth="yes"/>
      <point x="1363" y="1810" type="line" smooth="yes"/>
      <point x="1363" y="1696"/>
      <point x="1292" y="1607"/>
    </contour>
    <component base="Ca.te"/>
  </outline>
</glyph>
<glyph name="Dza.te" format="2">
  <advance width="2014"/>
  <unicode hex="0C59"/>
  <anchor x="1017" y="-71" name="bottom"/>
  <outline>
    <contour>
      <point x="185" y="1321" type="line"/>
      <point x="1542" y="1321" type="line" smooth="yes"/>
      <point x="1753" y="1321"/>
      <point x="1843" y="1429"/>
      <point x="1843" y="1561" type="curve" smooth="yes"/>
      <point x="1843" y="1565" type="line" smooth="yes"/>
      <point x="1843" y="1691"/>
      <point x="1741" y="1792"/>
      <point x="1542" y="1792" type="curve" smooth="yes"/>
      <point x="1343" y="1792"/>
      <point x="1255" y="1691"/>
      <point x="1255" y="1565" type="curve" smooth="yes"/>
      <point x="1255" y="1561" type="line" smooth="yes"/>
      <point x="1255" y="1456"/>
      <point x="1322" y="1389"/>
      <point x="1414" y="1360" type="curve"/>
      <point x="1414" y="1356" type="line"/>
      <point x="179" y="1356" type="line"/>
    </contour>
    <contour>
      <point x="1542" y="1358" type="curve"/>
      <point x="1384" y="1358"/>
      <point x="1295" y="1452"/>
      <point x="1295" y="1561" type="curve" smooth="yes"/>
      <point x="1295" y="1565" type="line" smooth="yes"/>
      <point x="1295" y="1677"/>
      <point x="1370" y="1757"/>
      <point x="1542" y="1757" type="curve" smooth="yes"/>
      <point x="1714" y="1757"/>
      <point x="1804" y="1677"/>
      <point x="1804" y="1565" type="curve" smooth="yes"/>
      <point x="1804" y="1561" type="line" smooth="yes"/>
      <point x="1804" y="1447"/>
      <point x="1731" y="1358"/>
    </contour>
    <component base="Ja.te"/>
  </outline>
</glyph>
<glyph name="Rrr.te" format="2">
  <advance width="2018"/>
  <unicode hex="0C5A"/>
  <outline>
    <contour>
      <point x="204" y="623" type="line"/>
      <point x="1813" y="623" type="line"/>
      <point x="1813" y="655" type="line"/>
      <point x="204" y="655" type="line"/>
    </contour>
    <contour>
      <point x="609" y="-21" type="curve" smooth="yes"/>
      <point x="855" y="-21"/>
      <point x="993" y="110"/>
      <point x="1008" y="356" type="curve"/>
      <point x="1011" y="356" type="line"/>
      <point x="1025" y="110"/>
      <point x="1164" y="-21"/>
      <point x="1409" y="-21" type="curve" smooth="yes"/>
      <point x="1701" y="-21"/>
      <point x="1853" y="140"/>
      <point x="1853" y="443" type="curve" smooth="yes"/>
      <point x="1853" y="456" type="line" smooth="yes"/>
      <point x="1853" y="917"/>
      <point x="1574" y="1148"/>
      <point x="1009" y="1148" type="curve" smooth="yes"/>
      <point x="445" y="1148"/>
      <point x="165" y="917"/>
      <point x="165" y="456" type="curve" smooth="yes"/>
      <point x="165" y="443" type="line" smooth="yes"/>
      <point x="165" y="139"/>
      <point x="318" y="-21"/>
    </contour>
    <contour>
      <point x="611" y="14" type="curve" smooth="yes"/>
      <point x="343" y="14"/>
      <point x="204" y="160"/>
      <point x="204" y="443" type="curve" smooth="yes"/>
      <point x="204" y="456" type="line" smooth="yes"/>
      <point x="204" y="896"/>
      <point x="468" y="1113"/>
      <point x="1009" y="1113" type="curve" smooth="yes"/>
      <point x="1551" y="1113"/>
      <point x="1814" y="896"/>
      <point x="1814" y="456" type="curve" smooth="yes"/>
      <point x="1814" y="443" type="line" smooth="yes"/>
      <point x="1814" y="160"/>
      <point x="1676" y="14"/>
      <point x="1408" y="14" type="curve" smooth="yes"/>
      <point x="1181" y="14"/>
      <point x="1049" y="134"/>
      <point x="1033" y="402" type="curve" smooth="yes"/>
      <point x="1031" y="436" type="line"/>
      <point x="988" y="436" type="line"/>
      <point x="986" y="402" type="line" smooth="yes"/>
      <point x="971" y="144"/>
      <point x="846" y="14"/>
    </contour>
  </outline>
</glyph>
<glyph name="vowelVocalicRr.te" format="2">
  <advance width="4887"/>
  <unicode hex="0C60"/>
  <anchor x="1047" y="0" name="_bottom"/>
  <outline>
    <contour>
      <point x="559" y="-21" type="curve" smooth="yes"/>
      <point x="836" y="-21"/>
      <point x="995" y="110"/>
      <point x="1011" y="356" type="curve"/>
      <point x="1014" y="356" type="line"/>
      <point x="1029" y="110"/>
      <point x="1173" y="-21"/>
      <point x="1433" y="-21" type="curve" smooth="yes"/>
      <point x="1678" y="-21"/>
      <point x="1825" y="110"/>
      <point x="1861" y="365" type="curve"/>
      <point x="1870" y="408"/>
      <point x="1878" y="454"/>
      <point x="1878" y="504" type="curve" smooth="yes"/>
      <point x="1878" y="507" type="line"/>
      <point x="1839" y="507" type="line"/>
      <point x="1839" y="504" type="line" smooth="yes"/>
      <point x="1839" y="180"/>
      <point x="1701" y="14"/>
      <point x="1431" y="14" type="curve" smooth="yes"/>
      <point x="1188" y="14"/>
      <point x="1051" y="141"/>
      <point x="1036" y="402" type="curve" smooth="yes"/>
      <point x="1034" y="436" type="line"/>
      <point x="991" y="436" type="line"/>
      <point x="989" y="402" type="line" smooth="yes"/>
      <point x="974" y="141"/>
      <point x="823" y="14"/>
      <point x="561" y="14" type="curve" smooth="yes"/>
      <point x="321" y="14"/>
      <point x="190" y="101"/>
      <point x="190" y="258" type="curve" smooth="yes"/>
      <point x="190" y="262" type="line" smooth="yes"/>
      <point x="190" y="408"/>
      <point x="260" y="478"/>
      <point x="582" y="577" type="curve" smooth="yes"/>
      <point x="857" y="662"/>
      <point x="970" y="728"/>
      <point x="970" y="881" type="curve"/>
      <point x="970" y="883" type="line"/>
      <point x="970" y="1047"/>
      <point x="826" y="1148"/>
      <point x="572" y="1148" type="curve" smooth="yes"/>
      <point x="310" y="1148"/>
      <point x="163" y="1043"/>
      <point x="163" y="856" type="curve"/>
      <point x="163" y="854" type="line"/>
      <point x="163" y="790"/>
      <point x="182" y="732"/>
      <point x="211" y="671" type="curve"/>
      <point x="254" y="671" type="line"/>
      <point x="221" y="733"/>
      <point x="203" y="793"/>
      <point x="203" y="853" type="curve"/>
      <point x="203" y="854" type="line"/>
      <point x="203" y="1022"/>
      <point x="335" y="1113"/>
      <point x="572" y="1113" type="curve" smooth="yes"/>
      <point x="803" y="1113"/>
      <point x="931" y="1025"/>
      <point x="931" y="883" type="curve"/>
      <point x="931" y="881" type="line"/>
      <point x="931" y="739"/>
      <point x="820" y="685"/>
      <point x="555" y="603" type="curve" smooth="yes"/>
      <point x="264" y="513"/>
      <point x="150" y="442"/>
      <point x="150" y="262" type="curve" smooth="yes"/>
      <point x="150" y="258" type="line" smooth="yes"/>
      <point x="150" y="78"/>
      <point x="296" y="-21"/>
    </contour>
    <contour>
      <point x="1875" y="374" type="curve" smooth="yes"/>
      <point x="1875" y="470" type="line"/>
      <point x="1850" y="470" type="line"/>
      <point x="1850" y="361" type="line" smooth="yes"/>
      <point x="1850" y="134"/>
      <point x="2017" y="-18"/>
      <point x="2296" y="-18" type="curve" smooth="yes"/>
      <point x="2578" y="-18"/>
      <point x="2705" y="150"/>
      <point x="2742" y="338" type="curve"/>
      <point x="2757" y="390"/>
      <point x="2762" y="448"/>
      <point x="2762" y="509" type="curve" smooth="yes"/>
      <point x="2762" y="511" type="line"/>
      <point x="2723" y="511" type="line"/>
      <point x="2723" y="509" type="line" smooth="yes"/>
      <point x="2723" y="190"/>
      <point x="2572" y="18"/>
      <point x="2296" y="18" type="curve" smooth="yes"/>
      <point x="2038" y="18"/>
      <point x="1875" y="157"/>
    </contour>
    <contour>
      <point x="3178" y="-18" type="curve" smooth="yes"/>
      <point x="3483" y="-18"/>
      <point x="3644" y="174"/>
      <point x="3644" y="506" type="curve" smooth="yes"/>
      <point x="3644" y="509" type="line"/>
      <point x="3605" y="509" type="line"/>
      <point x="3605" y="506" type="line" smooth="yes"/>
      <point x="3605" y="189"/>
      <point x="3454" y="18"/>
      <point x="3179" y="18" type="curve" smooth="yes"/>
      <point x="2920" y="18"/>
      <point x="2759" y="157"/>
      <point x="2759" y="374" type="curve"/>
      <point x="2759" y="452" type="line"/>
      <point x="2733" y="452" type="line"/>
      <point x="2733" y="361" type="line"/>
      <point x="2733" y="134"/>
      <point x="2900" y="-18"/>
    </contour>
    <contour>
      <point x="3605" y="507" type="line"/>
      <point x="3644" y="507" type="line"/>
      <point x="3644" y="511" type="line" smooth="yes"/>
      <point x="3644" y="882"/>
      <point x="3472" y="1130"/>
      <point x="3081" y="1129" type="curve"/>
      <point x="3048" y="1136" type="line"/>
      <point x="3042" y="1100" type="line"/>
      <point x="3054" y="1100" type="line"/>
      <point x="3447" y="1100"/>
      <point x="3605" y="872"/>
      <point x="3605" y="511" type="curve" smooth="yes"/>
    </contour>
    <contour>
      <point x="4314" y="210" type="curve" smooth="yes"/>
      <point x="4574" y="210"/>
      <point x="4722" y="354"/>
      <point x="4722" y="605" type="curve"/>
      <point x="4722" y="611" type="line"/>
      <point x="4722" y="924"/>
      <point x="4557" y="1136"/>
      <point x="4138" y="1136" type="curve" smooth="yes"/>
      <point x="3048" y="1136" type="line"/>
      <point x="3053" y="1111" type="line"/>
      <point x="3427" y="1100" type="line"/>
      <point x="4138" y="1100" type="line" smooth="yes"/>
      <point x="4541" y="1100"/>
      <point x="4688" y="902"/>
      <point x="4688" y="614" type="curve" smooth="yes"/>
      <point x="4688" y="611" type="line"/>
      <point x="4686" y="611" type="line"/>
      <point x="4688" y="598" type="line"/>
      <point x="4688" y="596" type="line"/>
      <point x="4688" y="372"/>
      <point x="4554" y="246"/>
      <point x="4314" y="246" type="curve" smooth="yes"/>
      <point x="4088" y="246"/>
      <point x="3958" y="347"/>
      <point x="3958" y="525" type="curve" smooth="yes"/>
      <point x="3958" y="529" type="line" smooth="yes"/>
      <point x="3958" y="710"/>
      <point x="4083" y="812"/>
      <point x="4304" y="812" type="curve" smooth="yes"/>
      <point x="4484" y="812"/>
      <point x="4618" y="735"/>
      <point x="4690" y="573" type="curve"/>
      <point x="4694" y="616" type="line"/>
      <point x="4635" y="753"/>
      <point x="4507" y="847"/>
      <point x="4301" y="847" type="curve" smooth="yes"/>
      <point x="4058" y="847"/>
      <point x="3919" y="733"/>
      <point x="3919" y="529" type="curve" smooth="yes"/>
      <point x="3919" y="525" type="line" smooth="yes"/>
      <point x="3919" y="326"/>
      <point x="4063" y="210"/>
    </contour>
    <component base="Terminals.te" xOffset="2088"/>
    <component base="Terminals.te" xOffset="1204"/>
  </outline>
</glyph>
<glyph name="vowelVocalicLl.te" format="2">
  <advance width="3598"/>
  <unicode hex="0C61"/>
  <outline>
    <contour>
      <point x="1591" y="-27" type="curve" smooth="yes"/>
      <point x="2097" y="-27"/>
      <point x="2354" y="182"/>
      <point x="2354" y="589" type="curve" smooth="yes"/>
      <point x="2354" y="600" type="line" smooth="yes"/>
      <point x="2354" y="929"/>
      <point x="2179" y="1130"/>
      <point x="1844" y="1130" type="curve"/>
      <point x="1831" y="1136" type="line"/>
      <point x="1826" y="1100" type="line"/>
      <point x="1837" y="1100" type="line" smooth="yes"/>
      <point x="2155" y="1100"/>
      <point x="2315" y="911"/>
      <point x="2315" y="600" type="curve" smooth="yes"/>
      <point x="2315" y="589" type="line" smooth="yes"/>
      <point x="2315" y="206"/>
      <point x="2068" y="9"/>
      <point x="1591" y="9" type="curve" smooth="yes"/>
      <point x="1208" y="9"/>
      <point x="1007" y="109"/>
      <point x="1007" y="278" type="curve"/>
      <point x="1007" y="281" type="line"/>
      <point x="1007" y="431"/>
      <point x="1115" y="500"/>
      <point x="1374" y="562" type="curve" smooth="yes"/>
      <point x="1639" y="626"/>
      <point x="1699" y="715"/>
      <point x="1699" y="847" type="curve" smooth="yes"/>
      <point x="1699" y="860" type="line" smooth="yes"/>
      <point x="1699" y="1038"/>
      <point x="1572" y="1148"/>
      <point x="1306" y="1148" type="curve" smooth="yes"/>
      <point x="1057" y="1148"/>
      <point x="914" y="1032"/>
      <point x="899" y="817" type="curve"/>
      <point x="896" y="817" type="line"/>
      <point x="881" y="1032"/>
      <point x="760" y="1148"/>
      <point x="516" y="1148" type="curve" smooth="yes"/>
      <point x="262" y="1148"/>
      <point x="130" y="1034"/>
      <point x="130" y="817" type="curve"/>
      <point x="130" y="813" type="line"/>
      <point x="130" y="767"/>
      <point x="137" y="719"/>
      <point x="156" y="671" type="curve"/>
      <point x="195" y="671" type="line"/>
      <point x="176" y="721"/>
      <point x="169" y="769"/>
      <point x="169" y="813" type="curve"/>
      <point x="169" y="817" type="line"/>
      <point x="169" y="1013"/>
      <point x="287" y="1113"/>
      <point x="518" y="1113" type="curve" smooth="yes"/>
      <point x="765" y="1113"/>
      <point x="860" y="982"/>
      <point x="874" y="767" type="curve" smooth="yes"/>
      <point x="876" y="737" type="line"/>
      <point x="919" y="737" type="line"/>
      <point x="921" y="767" type="line" smooth="yes"/>
      <point x="937" y="1002"/>
      <point x="1070" y="1113"/>
      <point x="1306" y="1113" type="curve" smooth="yes"/>
      <point x="1548" y="1113"/>
      <point x="1660" y="1016"/>
      <point x="1660" y="860" type="curve" smooth="yes"/>
      <point x="1660" y="847" type="line" smooth="yes"/>
      <point x="1660" y="748"/>
      <point x="1636" y="661"/>
      <point x="1361" y="595" type="curve" smooth="yes"/>
      <point x="1092" y="530"/>
      <point x="968" y="450"/>
      <point x="968" y="281" type="curve"/>
      <point x="968" y="278" type="line"/>
      <point x="968" y="89"/>
      <point x="1175" y="-27"/>
    </contour>
    <contour>
      <point x="3024" y="210" type="curve" smooth="yes"/>
      <point x="3284" y="210"/>
      <point x="3433" y="354"/>
      <point x="3433" y="605" type="curve"/>
      <point x="3433" y="611" type="line"/>
      <point x="3433" y="924"/>
      <point x="3268" y="1136"/>
      <point x="2848" y="1136" type="curve" smooth="yes"/>
      <point x="1831" y="1136" type="line"/>
      <point x="1837" y="1111" type="line"/>
      <point x="2152" y="1100" type="line"/>
      <point x="2848" y="1100" type="line" smooth="yes"/>
      <point x="3252" y="1100"/>
      <point x="3399" y="902"/>
      <point x="3399" y="614" type="curve" smooth="yes"/>
      <point x="3399" y="611" type="line"/>
      <point x="3397" y="611" type="line"/>
      <point x="3399" y="598" type="line"/>
      <point x="3399" y="596" type="line"/>
      <point x="3399" y="372"/>
      <point x="3264" y="246"/>
      <point x="3024" y="246" type="curve" smooth="yes"/>
      <point x="2798" y="246"/>
      <point x="2669" y="347"/>
      <point x="2669" y="525" type="curve" smooth="yes"/>
      <point x="2669" y="529" type="line" smooth="yes"/>
      <point x="2669" y="710"/>
      <point x="2793" y="812"/>
      <point x="3015" y="812" type="curve" smooth="yes"/>
      <point x="3193" y="812"/>
      <point x="3329" y="735"/>
      <point x="3401" y="573" type="curve"/>
      <point x="3404" y="616" type="line"/>
      <point x="3345" y="753"/>
      <point x="3218" y="847"/>
      <point x="3011" y="847" type="curve" smooth="yes"/>
      <point x="2768" y="847"/>
      <point x="2630" y="733"/>
      <point x="2630" y="529" type="curve" smooth="yes"/>
      <point x="2630" y="525" type="line" smooth="yes"/>
      <point x="2630" y="326"/>
      <point x="2773" y="210"/>
    </contour>
  </outline>
</glyph>
<glyph name="VocalicLsmall1.te" format="2">
  <unicode hex="0C62"/>
  <anchor x="-130" y="-31" name="_bottom"/>
  <outline>
    <contour>
      <point x="38" y="-723" type="curve" smooth="yes"/>
      <point x="319" y="-723"/>
      <point x="458" y="-615"/>
      <point x="458" y="-416" type="curve"/>
      <point x="458" y="-414" type="line"/>
      <point x="458" y="-242"/>
      <point x="366" y="-135"/>
      <point x="201" y="-135" type="curve" smooth="yes"/>
      <point x="196" y="-135" type="line"/>
      <point x="191" y="-167" type="line"/>
      <point x="194" y="-167" type="line" smooth="yes"/>
      <point x="344" y="-167"/>
      <point x="422" y="-258"/>
      <point x="422" y="-414" type="curve"/>
      <point x="422" y="-416" type="line"/>
      <point x="422" y="-595"/>
      <point x="302" y="-689"/>
      <point x="38" y="-689" type="curve" smooth="yes"/>
      <point x="-160" y="-689"/>
      <point x="-270" y="-644"/>
      <point x="-270" y="-559" type="curve"/>
      <point x="-270" y="-558" type="line"/>
      <point x="-270" y="-493"/>
      <point x="-224" y="-461"/>
      <point x="-78" y="-431" type="curve" smooth="yes"/>
      <point x="96" y="-396"/>
      <point x="132" y="-351"/>
      <point x="132" y="-282" type="curve"/>
      <point x="132" y="-281" type="line"/>
      <point x="132" y="-191"/>
      <point x="55" y="-135"/>
      <point x="-85" y="-135" type="curve" smooth="yes"/>
      <point x="-232" y="-135"/>
      <point x="-311" y="-199"/>
      <point x="-323" y="-312" type="curve"/>
      <point x="-325" y="-312" type="line"/>
      <point x="-337" y="-192"/>
      <point x="-419" y="-135"/>
      <point x="-550" y="-135" type="curve" smooth="yes"/>
      <point x="-694" y="-135"/>
      <point x="-774" y="-199"/>
      <point x="-774" y="-317" type="curve"/>
      <point x="-774" y="-318" type="line"/>
      <point x="-774" y="-334"/>
      <point x="-772" y="-351"/>
      <point x="-767" y="-372" type="curve"/>
      <point x="-731" y="-372" type="line"/>
      <point x="-736" y="-352"/>
      <point x="-738" y="-333"/>
      <point x="-738" y="-319" type="curve"/>
      <point x="-738" y="-318" type="line"/>
      <point x="-738" y="-220"/>
      <point x="-674" y="-169"/>
      <point x="-550" y="-169" type="curve" smooth="yes"/>
      <point x="-413" y="-169"/>
      <point x="-358" y="-234"/>
      <point x="-345" y="-339" type="curve" smooth="yes"/>
      <point x="-343" y="-355" type="line"/>
      <point x="-305" y="-355" type="line"/>
      <point x="-303" y="-339" type="line" smooth="yes"/>
      <point x="-289" y="-227"/>
      <point x="-224" y="-169"/>
      <point x="-85" y="-169" type="curve" smooth="yes"/>
      <point x="35" y="-169"/>
      <point x="96" y="-213"/>
      <point x="96" y="-282" type="curve"/>
      <point x="96" y="-283" type="line"/>
      <point x="96" y="-337"/>
      <point x="64" y="-369"/>
      <point x="-88" y="-400" type="curve" smooth="yes"/>
      <point x="-268" y="-436"/>
      <point x="-306" y="-485"/>
      <point x="-306" y="-558" type="curve"/>
      <point x="-306" y="-559" type="line"/>
      <point x="-306" y="-667"/>
      <point x="-187" y="-723"/>
    </contour>
  </outline>
</glyph>
<glyph name="VocalicLlsmall1.te" format="2">
  <unicode hex="0C63"/>
  <anchor x="110" y="-31" name="_bottom"/>
  <outline>
    <contour>
      <point x="38" y="-723" type="curve" smooth="yes"/>
      <point x="319" y="-723"/>
      <point x="458" y="-615"/>
      <point x="458" y="-416" type="curve"/>
      <point x="458" y="-414" type="line"/>
      <point x="458" y="-247"/>
      <point x="366" y="-145"/>
      <point x="202" y="-145" type="curve"/>
      <point x="196" y="-135" type="line"/>
      <point x="191" y="-167" type="line"/>
      <point x="194" y="-167" type="line" smooth="yes"/>
      <point x="344" y="-167"/>
      <point x="422" y="-258"/>
      <point x="422" y="-414" type="curve"/>
      <point x="422" y="-416" type="line"/>
      <point x="422" y="-595"/>
      <point x="302" y="-689"/>
      <point x="38" y="-689" type="curve" smooth="yes"/>
      <point x="-160" y="-689"/>
      <point x="-270" y="-644"/>
      <point x="-270" y="-559" type="curve"/>
      <point x="-270" y="-558" type="line"/>
      <point x="-270" y="-493"/>
      <point x="-224" y="-461"/>
      <point x="-78" y="-431" type="curve" smooth="yes"/>
      <point x="96" y="-396"/>
      <point x="132" y="-351"/>
      <point x="132" y="-282" type="curve"/>
      <point x="132" y="-281" type="line"/>
      <point x="132" y="-191"/>
      <point x="55" y="-135"/>
      <point x="-85" y="-135" type="curve" smooth="yes"/>
      <point x="-232" y="-135"/>
      <point x="-311" y="-199"/>
      <point x="-323" y="-312" type="curve"/>
      <point x="-325" y="-312" type="line"/>
      <point x="-337" y="-192"/>
      <point x="-419" y="-135"/>
      <point x="-550" y="-135" type="curve" smooth="yes"/>
      <point x="-694" y="-135"/>
      <point x="-774" y="-199"/>
      <point x="-774" y="-317" type="curve"/>
      <point x="-774" y="-318" type="line"/>
      <point x="-774" y="-334"/>
      <point x="-772" y="-351"/>
      <point x="-767" y="-372" type="curve"/>
      <point x="-731" y="-372" type="line"/>
      <point x="-736" y="-352"/>
      <point x="-738" y="-333"/>
      <point x="-738" y="-319" type="curve"/>
      <point x="-738" y="-318" type="line"/>
      <point x="-738" y="-220"/>
      <point x="-674" y="-169"/>
      <point x="-550" y="-169" type="curve" smooth="yes"/>
      <point x="-413" y="-169"/>
      <point x="-358" y="-234"/>
      <point x="-345" y="-339" type="curve" smooth="yes"/>
      <point x="-343" y="-355" type="line"/>
      <point x="-305" y="-355" type="line"/>
      <point x="-303" y="-339" type="line" smooth="yes"/>
      <point x="-289" y="-227"/>
      <point x="-224" y="-169"/>
      <point x="-85" y="-169" type="curve" smooth="yes"/>
      <point x="35" y="-169"/>
      <point x="96" y="-213"/>
      <point x="96" y="-282" type="curve"/>
      <point x="96" y="-283" type="line"/>
      <point x="96" y="-337"/>
      <point x="64" y="-369"/>
      <point x="-88" y="-400" type="curve" smooth="yes"/>
      <point x="-268" y="-436"/>
      <point x="-306" y="-485"/>
      <point x="-306" y="-558" type="curve"/>
      <point x="-306" y="-559" type="line"/>
      <point x="-306" y="-667"/>
      <point x="-187" y="-723"/>
    </contour>
    <contour>
      <point x="807" y="-628" type="curve" smooth="yes"/>
      <point x="946" y="-628"/>
      <point x="1020" y="-548"/>
      <point x="1020" y="-403" type="curve"/>
      <point x="1020" y="-399" type="line"/>
      <point x="1020" y="-225"/>
      <point x="919" y="-135"/>
      <point x="722" y="-135" type="curve" smooth="yes"/>
      <point x="196" y="-135" type="line"/>
      <point x="201" y="-158" type="line"/>
      <point x="414" y="-168" type="line"/>
      <point x="720" y="-168" type="line" smooth="yes"/>
      <point x="899" y="-168"/>
      <point x="987" y="-243"/>
      <point x="987" y="-396" type="curve" smooth="yes"/>
      <point x="987" y="-397" type="line"/>
      <point x="984" y="-397" type="line"/>
      <point x="987" y="-403" type="line"/>
      <point x="987" y="-406" type="line"/>
      <point x="987" y="-529"/>
      <point x="924" y="-595"/>
      <point x="809" y="-595" type="curve" smooth="yes"/>
      <point x="700" y="-595"/>
      <point x="641" y="-549"/>
      <point x="641" y="-461" type="curve" smooth="yes"/>
      <point x="641" y="-457" type="line" smooth="yes"/>
      <point x="641" y="-370"/>
      <point x="704" y="-327"/>
      <point x="795" y="-327" type="curve" smooth="yes"/>
      <point x="882" y="-327"/>
      <point x="951" y="-358"/>
      <point x="989" y="-425" type="curve"/>
      <point x="997" y="-400" type="line"/>
      <point x="965" y="-339"/>
      <point x="898" y="-294"/>
      <point x="794" y="-294" type="curve" smooth="yes"/>
      <point x="683" y="-294"/>
      <point x="606" y="-353"/>
      <point x="606" y="-457" type="curve" smooth="yes"/>
      <point x="606" y="-461" type="line" smooth="yes"/>
      <point x="606" y="-568"/>
      <point x="679" y="-628"/>
    </contour>
  </outline>
</glyph>
<glyph name="one.te" format="2">
  <advance width="1607"/>
  <unicode hex="0C67"/>
  <outline>
    <contour>
      <point x="1201" y="0" type="curve"/>
      <point x="1247" y="0" type="line"/>
      <point x="1385" y="184"/>
      <point x="1442" y="340"/>
      <point x="1442" y="550" type="curve" smooth="yes"/>
      <point x="1442" y="568" type="line" smooth="yes"/>
      <point x="1442" y="957"/>
      <point x="1223" y="1171"/>
      <point x="804" y="1171" type="curve" smooth="yes"/>
      <point x="384" y="1171"/>
      <point x="165" y="957"/>
      <point x="165" y="568" type="curve" smooth="yes"/>
      <point x="165" y="550" type="line" smooth="yes"/>
      <point x="165" y="340"/>
      <point x="222" y="184"/>
      <point x="360" y="0" type="curve"/>
      <point x="406" y="0" type="line"/>
      <point x="260" y="194"/>
      <point x="204" y="349"/>
      <point x="204" y="550" type="curve" smooth="yes"/>
      <point x="204" y="568" type="line" smooth="yes"/>
      <point x="204" y="943"/>
      <point x="420" y="1136"/>
      <point x="804" y="1136" type="curve" smooth="yes"/>
      <point x="1188" y="1136"/>
      <point x="1403" y="943"/>
      <point x="1403" y="568" type="curve" smooth="yes"/>
      <point x="1403" y="550" type="line" smooth="yes"/>
      <point x="1403" y="371"/>
      <point x="1361" y="212"/>
    </contour>
  </outline>
</glyph>
<glyph name="two.te" format="2">
  <advance width="1681"/>
  <unicode hex="0C68"/>
  <outline>
    <contour>
      <point x="61" y="0" type="line"/>
      <point x="712" y="0" type="line" smooth="yes"/>
      <point x="1261" y="0"/>
      <point x="1516" y="183"/>
      <point x="1516" y="579" type="curve" smooth="yes"/>
      <point x="1516" y="595" type="line" smooth="yes"/>
      <point x="1516" y="958"/>
      <point x="1279" y="1148"/>
      <point x="825" y="1148" type="curve" smooth="yes"/>
      <point x="552" y="1148"/>
      <point x="384" y="1023"/>
      <point x="384" y="817" type="curve" smooth="yes"/>
      <point x="384" y="812" type="line" smooth="yes"/>
      <point x="384" y="619"/>
      <point x="524" y="493"/>
      <point x="800" y="493" type="curve" smooth="yes"/>
      <point x="1064" y="493"/>
      <point x="1193" y="624"/>
      <point x="1193" y="812" type="curve"/>
      <point x="1193" y="813" type="line"/>
      <point x="1193" y="910"/>
      <point x="1145" y="1024"/>
      <point x="1017" y="1098" type="curve"/>
      <point x="1019" y="1115" type="line"/>
      <point x="946" y="1109" type="line"/>
      <point x="1114" y="1027"/>
      <point x="1153" y="910"/>
      <point x="1153" y="813" type="curve"/>
      <point x="1153" y="812" type="line"/>
      <point x="1153" y="635"/>
      <point x="1039" y="529"/>
      <point x="800" y="529" type="curve" smooth="yes"/>
      <point x="556" y="529"/>
      <point x="423" y="628"/>
      <point x="423" y="812" type="curve" smooth="yes"/>
      <point x="423" y="817" type="line" smooth="yes"/>
      <point x="423" y="1002"/>
      <point x="572" y="1113"/>
      <point x="826" y="1113" type="curve" smooth="yes"/>
      <point x="1263" y="1113"/>
      <point x="1477" y="943"/>
      <point x="1477" y="595" type="curve" smooth="yes"/>
      <point x="1477" y="579" type="line" smooth="yes"/>
      <point x="1477" y="206"/>
      <point x="1238" y="36"/>
      <point x="713" y="36" type="curve" smooth="yes"/>
      <point x="55" y="36" type="line"/>
    </contour>
  </outline>
</glyph>
<glyph name="three.te" format="2">
  <advance width="1272"/>
  <unicode hex="0C69"/>
  <outline>
    <contour>
      <point x="634" y="-23" type="curve" smooth="yes"/>
      <point x="970" y="-23"/>
      <point x="1142" y="89"/>
      <point x="1142" y="289" type="curve"/>
      <point x="1142" y="292" type="line"/>
      <point x="1142" y="464"/>
      <point x="1016" y="561"/>
      <point x="775" y="571" type="curve"/>
      <point x="775" y="575" type="line"/>
      <point x="1014" y="585"/>
      <point x="1132" y="675"/>
      <point x="1132" y="843" type="curve" smooth="yes"/>
      <point x="1132" y="846" type="line" smooth="yes"/>
      <point x="1132" y="1046"/>
      <point x="958" y="1145"/>
      <point x="631" y="1145" type="curve" smooth="yes"/>
      <point x="412" y="1145"/>
      <point x="269" y="1096"/>
      <point x="154" y="1032" type="curve"/>
      <point x="148" y="985" type="line"/>
      <point x="269" y="1062"/>
      <point x="430" y="1110"/>
      <point x="631" y="1110" type="curve" smooth="yes"/>
      <point x="936" y="1110"/>
      <point x="1093" y="1025"/>
      <point x="1093" y="846" type="curve" smooth="yes"/>
      <point x="1093" y="843" type="line" smooth="yes"/>
      <point x="1093" y="683"/>
      <point x="960" y="597"/>
      <point x="714" y="594" type="curve" smooth="yes"/>
      <point x="444" y="591" type="line"/>
      <point x="444" y="555" type="line"/>
      <point x="714" y="552" type="line" smooth="yes"/>
      <point x="965" y="549"/>
      <point x="1103" y="456"/>
      <point x="1103" y="292" type="curve"/>
      <point x="1103" y="289" type="line"/>
      <point x="1103" y="111"/>
      <point x="946" y="13"/>
      <point x="634" y="13" type="curve" smooth="yes"/>
      <point x="417" y="13"/>
      <point x="256" y="64"/>
      <point x="125" y="160" type="curve"/>
      <point x="130" y="111" type="line"/>
      <point x="253" y="28"/>
      <point x="406" y="-23"/>
    </contour>
  </outline>
</glyph>
<glyph name="four.te" format="2">
  <advance width="1642"/>
  <unicode hex="0C6A"/>
  <outline>
    <contour>
      <point x="721" y="403" type="curve"/>
      <point x="821" y="404" type="line"/>
      <point x="919" y="403" type="line"/>
      <point x="1368" y="425"/>
      <point x="1512" y="597"/>
      <point x="1512" y="789" type="curve" smooth="yes"/>
      <point x="1512" y="803" type="line" smooth="yes"/>
      <point x="1512" y="1022"/>
      <point x="1347" y="1136"/>
      <point x="1116" y="1136" type="curve" smooth="yes"/>
      <point x="1099" y="1136" type="line"/>
      <point x="1094" y="1100" type="line"/>
      <point x="1106" y="1100" type="line" smooth="yes"/>
      <point x="1327" y="1100"/>
      <point x="1473" y="1004"/>
      <point x="1473" y="803" type="curve" smooth="yes"/>
      <point x="1473" y="789" type="line" smooth="yes"/>
      <point x="1473" y="596"/>
      <point x="1316" y="434"/>
      <point x="821" y="434" type="curve" smooth="yes"/>
      <point x="325" y="434"/>
      <point x="169" y="596"/>
      <point x="169" y="789" type="curve" smooth="yes"/>
      <point x="169" y="803" type="line" smooth="yes"/>
      <point x="169" y="1004"/>
      <point x="314" y="1100"/>
      <point x="536" y="1100" type="curve" smooth="yes"/>
      <point x="547" y="1100" type="line"/>
      <point x="542" y="1136" type="line"/>
      <point x="525" y="1136" type="line" smooth="yes"/>
      <point x="295" y="1136"/>
      <point x="130" y="1022"/>
      <point x="130" y="803" type="curve" smooth="yes"/>
      <point x="130" y="789" type="line" smooth="yes"/>
      <point x="130" y="598"/>
      <point x="274" y="425"/>
    </contour>
    <contour>
      <point x="821" y="-34" type="curve" smooth="yes"/>
      <point x="1107" y="-34"/>
      <point x="1217" y="69"/>
      <point x="1217" y="194" type="curve" smooth="yes"/>
      <point x="1217" y="199" type="line" smooth="yes"/>
      <point x="1217" y="340"/>
      <point x="1120" y="424"/>
      <point x="821" y="424" type="curve" smooth="yes"/>
      <point x="522" y="424"/>
      <point x="425" y="340"/>
      <point x="425" y="199" type="curve" smooth="yes"/>
      <point x="425" y="194" type="line" smooth="yes"/>
      <point x="425" y="69"/>
      <point x="535" y="-34"/>
    </contour>
    <contour>
      <point x="821" y="2" type="curve" smooth="yes"/>
      <point x="573" y="2"/>
      <point x="464" y="82"/>
      <point x="464" y="201" type="curve"/>
      <point x="464" y="203" type="line"/>
      <point x="464" y="331"/>
      <point x="577" y="399"/>
      <point x="821" y="399" type="curve" smooth="yes"/>
      <point x="1065" y="399"/>
      <point x="1178" y="331"/>
      <point x="1178" y="203" type="curve"/>
      <point x="1178" y="201" type="line"/>
      <point x="1178" y="82"/>
      <point x="1069" y="2"/>
    </contour>
  </outline>
</glyph>
<glyph name="five.te" format="2">
  <advance width="1964"/>
  <unicode hex="0C6B"/>
  <outline>
    <contour>
      <point x="236" y="-11" type="line"/>
      <point x="276" y="-11" type="line"/>
      <point x="276" y="-2" type="line" smooth="yes"/>
      <point x="276" y="166"/>
      <point x="507" y="270"/>
      <point x="716" y="339" type="curve" smooth="yes"/>
      <point x="1070" y="456" type="line" smooth="yes"/>
      <point x="1208" y="502"/>
      <point x="1320" y="527"/>
      <point x="1410" y="527" type="curve" smooth="yes"/>
      <point x="1417" y="527" type="line" smooth="yes"/>
      <point x="1632" y="527"/>
      <point x="1736" y="438"/>
      <point x="1736" y="244" type="curve" smooth="yes"/>
      <point x="1736" y="206" type="line" smooth="yes"/>
      <point x="1736" y="141"/>
      <point x="1739" y="70"/>
      <point x="1773" y="-11" type="curve"/>
      <point x="1812" y="-11" type="line"/>
      <point x="1777" y="62"/>
      <point x="1772" y="131"/>
      <point x="1772" y="206" type="curve" smooth="yes"/>
      <point x="1772" y="244" type="line" smooth="yes"/>
      <point x="1772" y="466"/>
      <point x="1645" y="560"/>
      <point x="1414" y="560" type="curve" smooth="yes"/>
      <point x="1407" y="560" type="line" smooth="yes"/>
      <point x="1300" y="560"/>
      <point x="1174" y="526"/>
      <point x="1056" y="487" type="curve" smooth="yes"/>
      <point x="701" y="371" type="line" smooth="yes"/>
      <point x="469" y="295"/>
      <point x="236" y="179"/>
      <point x="236" y="2" type="curve" smooth="yes"/>
    </contour>
    <contour>
      <point x="683" y="350" type="curve"/>
      <point x="722" y="356" type="line"/>
      <point x="755" y="464"/>
      <point x="771" y="570"/>
      <point x="771" y="669" type="curve" smooth="yes"/>
      <point x="771" y="679" type="line" smooth="yes"/>
      <point x="771" y="990"/>
      <point x="659" y="1148"/>
      <point x="409" y="1148" type="curve" smooth="yes"/>
      <point x="321" y="1148"/>
      <point x="224" y="1126"/>
      <point x="145" y="1080" type="curve"/>
      <point x="140" y="1036" type="line"/>
      <point x="226" y="1090"/>
      <point x="318" y="1113"/>
      <point x="411" y="1113" type="curve" smooth="yes"/>
      <point x="637" y="1113"/>
      <point x="733" y="970"/>
      <point x="733" y="678" type="curve" smooth="yes"/>
      <point x="733" y="670" type="line" smooth="yes"/>
      <point x="733" y="584"/>
      <point x="718" y="461"/>
    </contour>
    <contour>
      <point x="1222" y="516" type="curve"/>
      <point x="1267" y="525" type="line"/>
      <point x="1129" y="605"/>
      <point x="1074" y="718"/>
      <point x="1074" y="820" type="curve" smooth="yes"/>
      <point x="1074" y="829" type="line" smooth="yes"/>
      <point x="1074" y="1002"/>
      <point x="1197" y="1113"/>
      <point x="1426" y="1113" type="curve" smooth="yes"/>
      <point x="1653" y="1113"/>
      <point x="1775" y="1002"/>
      <point x="1775" y="829" type="curve" smooth="yes"/>
      <point x="1775" y="820" type="line" smooth="yes"/>
      <point x="1775" y="714"/>
      <point x="1717" y="600"/>
      <point x="1573" y="518" type="curve"/>
      <point x="1616" y="509" type="line"/>
      <point x="1753" y="590"/>
      <point x="1814" y="704"/>
      <point x="1814" y="820" type="curve" smooth="yes"/>
      <point x="1814" y="829" type="line" smooth="yes"/>
      <point x="1814" y="1026"/>
      <point x="1669" y="1148"/>
      <point x="1426" y="1148" type="curve" smooth="yes"/>
      <point x="1182" y="1148"/>
      <point x="1035" y="1026"/>
      <point x="1035" y="829" type="curve" smooth="yes"/>
      <point x="1035" y="820" type="line" smooth="yes"/>
      <point x="1035" y="706"/>
      <point x="1092" y="595"/>
    </contour>
  </outline>
</glyph>
<glyph name="six.te" format="2">
  <advance width="1659"/>
  <unicode hex="0C6C"/>
  <outline>
    <contour>
      <point x="588" y="0" type="curve" smooth="yes"/>
      <point x="1604" y="0" type="line"/>
      <point x="1604" y="36" type="line"/>
      <point x="588" y="36" type="line" smooth="yes"/>
      <point x="303" y="36"/>
      <point x="169" y="118"/>
      <point x="169" y="292" type="curve" smooth="yes"/>
      <point x="169" y="295" type="line" smooth="yes"/>
      <point x="169" y="465"/>
      <point x="311" y="552"/>
      <point x="546" y="552" type="curve" smooth="yes"/>
      <point x="1116" y="552" type="line"/>
      <point x="1116" y="587" type="line"/>
      <point x="546" y="587" type="line" smooth="yes"/>
      <point x="314" y="587"/>
      <point x="178" y="672"/>
      <point x="178" y="842" type="curve" smooth="yes"/>
      <point x="178" y="846" type="line" smooth="yes"/>
      <point x="178" y="1019"/>
      <point x="308" y="1100"/>
      <point x="588" y="1100" type="curve" smooth="yes"/>
      <point x="806" y="1100" type="line"/>
      <point x="801" y="1136" type="line"/>
      <point x="588" y="1136" type="line" smooth="yes"/>
      <point x="284" y="1136"/>
      <point x="139" y="1043"/>
      <point x="139" y="846" type="curve" smooth="yes"/>
      <point x="139" y="842" type="line" smooth="yes"/>
      <point x="139" y="672"/>
      <point x="255" y="583"/>
      <point x="457" y="571" type="curve"/>
      <point x="457" y="568" type="line"/>
      <point x="249" y="556"/>
      <point x="130" y="466"/>
      <point x="130" y="295" type="curve" smooth="yes"/>
      <point x="130" y="292" type="line" smooth="yes"/>
      <point x="130" y="96"/>
      <point x="280" y="0"/>
    </contour>
  </outline>
</glyph>
<glyph name="seven.te" format="2">
  <advance width="1520"/>
  <unicode hex="0C6D"/>
  <outline>
    <contour>
      <point x="1385" y="150" type="curve"/>
      <point x="1390" y="199" type="line"/>
      <point x="1252" y="100"/>
      <point x="1027" y="12"/>
      <point x="723" y="12" type="curve" smooth="yes"/>
      <point x="362" y="12"/>
      <point x="190" y="104"/>
      <point x="190" y="276" type="curve" smooth="yes"/>
      <point x="190" y="280" type="line" smooth="yes"/>
      <point x="190" y="433"/>
      <point x="327" y="509"/>
      <point x="747" y="566" type="curve" smooth="yes"/>
      <point x="1168" y="623"/>
      <point x="1321" y="705"/>
      <point x="1321" y="869" type="curve"/>
      <point x="1321" y="871" type="line"/>
      <point x="1321" y="1035"/>
      <point x="1174" y="1148"/>
      <point x="798" y="1148" type="curve" smooth="yes"/>
      <point x="545" y="1148"/>
      <point x="337" y="1090"/>
      <point x="195" y="1014" type="curve"/>
      <point x="190" y="967" type="line"/>
      <point x="349" y="1056"/>
      <point x="559" y="1114"/>
      <point x="798" y="1114" type="curve" smooth="yes"/>
      <point x="1156" y="1114"/>
      <point x="1282" y="1010"/>
      <point x="1282" y="871" type="curve"/>
      <point x="1282" y="869" type="line"/>
      <point x="1282" y="727"/>
      <point x="1138" y="655"/>
      <point x="734" y="600" type="curve" smooth="yes"/>
      <point x="296" y="540"/>
      <point x="151" y="455"/>
      <point x="151" y="280" type="curve" smooth="yes"/>
      <point x="151" y="276" type="line" smooth="yes"/>
      <point x="151" y="82"/>
      <point x="340" y="-24"/>
      <point x="723" y="-24" type="curve" smooth="yes"/>
      <point x="1042" y="-24"/>
      <point x="1261" y="65"/>
    </contour>
  </outline>
</glyph>
<glyph name="eight.te" format="2">
  <advance width="1606"/>
  <unicode hex="0C6E"/>
  <outline>
    <contour>
      <point x="804" y="-25" type="curve" smooth="yes"/>
      <point x="1222" y="-25"/>
      <point x="1441" y="215"/>
      <point x="1441" y="568" type="curve" smooth="yes"/>
      <point x="1441" y="586" type="line" smooth="yes"/>
      <point x="1441" y="799"/>
      <point x="1373" y="979"/>
      <point x="1225" y="1102" type="curve"/>
      <point x="1225" y="1105" type="line"/>
      <point x="1496" y="1105" type="line"/>
      <point x="1493" y="1141" type="line"/>
      <point x="1075" y="1136" type="line"/>
      <point x="1075" y="1105" type="line"/>
      <point x="1180" y="1100" type="line"/>
      <point x="1347" y="969"/>
      <point x="1402" y="787"/>
      <point x="1402" y="586" type="curve" smooth="yes"/>
      <point x="1402" y="568" type="line" smooth="yes"/>
      <point x="1402" y="230"/>
      <point x="1187" y="11"/>
      <point x="804" y="11" type="curve" smooth="yes"/>
      <point x="420" y="11"/>
      <point x="204" y="230"/>
      <point x="204" y="568" type="curve" smooth="yes"/>
      <point x="204" y="586" type="line" smooth="yes"/>
      <point x="204" y="787"/>
      <point x="260" y="941"/>
      <point x="406" y="1136" type="curve"/>
      <point x="360" y="1136" type="line"/>
      <point x="222" y="952"/>
      <point x="165" y="795"/>
      <point x="165" y="586" type="curve" smooth="yes"/>
      <point x="165" y="568" type="line" smooth="yes"/>
      <point x="165" y="215"/>
      <point x="384" y="-25"/>
    </contour>
  </outline>
</glyph>
